<?xml version="1.0" encoding="UTF-8"?>
<svg width="509px" height="341px" viewBox="0 0 509 341" version="1.1" xmlns="http://www.w3.org/2000/svg" xmlns:xlink="http://www.w3.org/1999/xlink">
    <!-- Generator: Sketch 47.1 (45422) - http://www.bohemiancoding.com/sketch -->
    <title>images/femme_2</title>
    <desc>Created with Sketch.</desc>
    <defs></defs>
    <g id="Site-web-Copy" stroke="none" stroke-width="1" fill="none" fill-rule="evenodd" opacity="0.410439312">
        <g id="Desktop" transform="translate(-864.000000, -1458.000000)" fill="#FFFFFF">
            <g id="Group-14" transform="translate(0.000000, 884.000000)">
                <g id="Page-1" transform="translate(0.000000, 574.000000)">
                    <g id="images/femme_2" transform="translate(864.000000, -1.000000)">
                        <path d="M219.204868,34.7194569 C213.683895,41.9045612 207.974693,48.8784138 201.857237,55.7517309 C195.729606,62.6097768 189.21407,69.4118282 181.865491,75.9389979 C189.324718,67.6976349 195.262848,59.8762302 200.84614,52.3615223 C206.409082,44.8289979 211.557411,37.5484485 216.910504,29.9548394 C222.993645,21.3375487 229.290811,12.2775871 236.602124,1.87021682 C236.737464,1.67756563 236.941261,1.38754355 237.213516,1.00015059 L242.757879,1.00423854 C242.519147,1.37678875 242.340119,1.65591013 242.220796,1.84160268 C234.635418,13.6460759 227.123222,24.408876 219.204868,34.7194569 Z" id="Fill-3"></path>
                        <path d="M508.795117,1.0041418 C508.788351,1.48071829 508.782668,1.83818464 508.778067,2.07654086 C508.648331,8.79846173 508.089697,15.5442624 507.179357,22.3056175 C504.588658,41.2419179 498.786613,60.0356871 490.640603,77.8164659 C482.507312,95.631605 472.141975,112.470659 460.657436,128.31454 C446.221002,148.181111 431.110504,165.23269 412.073895,186.24842 C402.577212,196.780465 392.013471,208.251688 380.528933,222.009776 C374.807012,228.903455 368.863796,236.38253 362.990529,244.784241 C357.156688,253.19995 351.32412,262.542113 346.592948,273.369401 C350.845915,262.299046 356.271501,252.6031 361.728883,243.837426 C367.225691,235.080659 372.819157,227.236348 378.205317,220.000339 C389.018334,205.549957 398.947436,193.464067 407.861626,182.458615 C425.739606,160.489707 439.902599,143.051257 454.077037,123.539741 C462.940354,111.28714 472.269157,97.7555758 480.797985,82.3151099 C489.287387,66.8911878 496.989531,49.4552837 501.592249,29.8406871 C503.677051,20.9473941 505.103121,11.6279714 505.67708,1.9968014 C505.690389,1.77347388 505.709319,1.43810706 505.733869,0.990700936 L508.795117,1.0041418 Z" id="Fill-31"></path>
                        <path d="M473.996084,1.00383 C473.977324,1.36184526 473.963146,1.63018073 473.95355,1.80883641 C473.146398,16.8365388 471.660243,30.757368 469.409978,43.5500341 C464.722047,70.2848324 456.740102,91.9317726 446.953444,108.656293 C441.899229,116.930743 436.590651,123.70607 431.747559,129.702565 C426.877758,135.677426 422.383145,140.803462 418.352746,145.297016 C410.27287,154.271397 404.061299,160.728574 399.382272,165.371022 C389.64903,175.007155 380.254092,183.543761 368.4109,194.083442 C362.50711,199.368553 355.967409,205.137252 348.728207,212.046202 C345.118781,215.510222 341.333843,219.261849 337.526012,223.519971 C335.631,225.65285 333.729628,227.91299 331.918556,230.378017 C330.121474,232.84559 328.368905,235.504054 327.048756,238.536661 C327.809304,235.299165 329.092571,232.279283 330.471224,229.460472 C331.863868,226.637844 333.393868,224.007378 334.945489,221.511807 C338.061449,216.533393 341.266436,212.098379 344.35696,208.028602 C350.562172,199.899227 356.324791,193.183713 361.633369,187.198671 C372.287409,175.257857 381.235938,166.286022 390.953918,156.755514 C396.16711,151.63075 403.332546,145.067948 412.372646,136.344269 C416.881249,131.974158 421.857883,127.060646 427.125763,121.393755 C432.350401,115.721773 438.012546,109.300229 443.008257,101.668442 C452.980601,86.0179965 461.69893,65.2300619 467.054566,39.5515223 C469.517928,27.8942452 471.32524,15.258068 472.524185,1.69356304 C472.537691,1.54075443 472.557778,1.31127651 472.584443,1.00512928 L473.996084,1.00383 Z" id="Fill-34"></path>
                        <path d="M296.98699,187.143949 C308.072177,197.112232 315.152401,208.683991 320.383399,220.389373 C325.619484,232.177475 329.220007,244.31936 332.627214,257.769478 C327.141853,243.054394 322.489534,231.887322 316.65315,220.229026 C313.702526,214.424693 310.418686,208.503282 306.104671,202.278991 C301.794471,196.058518 296.352352,189.606432 289.049559,182.962183 C283.456092,177.845055 277.076641,173.200062 270.538212,168.398539 C264.072277,163.621195 256.932277,158.764951 251.837364,151.355869 C249.253025,147.71114 247.571678,143.405931 245.864895,139.712844 C244.158112,135.999394 241.917165,132.950243 238.943648,130.282871 C232.990257,124.972308 225.345344,120.989067 217.805993,117.127997 C216.63719,116.552781 215.229284,115.824853 214.017239,115.082927 C212.777214,114.334638 211.589334,113.53799 210.439608,112.704436 C208.145244,111.032239 205.994596,109.223873 203.921529,107.280611 C199.775394,103.391543 195.889983,98.998525 191.95497,93.8635807 C188.039035,88.7171829 184.050606,82.8352218 180.086342,75.7213832 C178.113748,72.1619186 176.148786,68.2906669 174.364421,63.9969117 C172.641105,59.7057017 170.872002,54.9627184 170.47901,49.6419743 C171.351479,54.9130869 173.541554,59.3900967 175.657863,63.4356947 C177.82886,67.471112 180.151204,71.0522107 182.44684,74.3189771 C187.062277,80.8346933 191.574696,86.0918074 195.854372,90.6235389 C200.149309,95.1425445 204.240756,98.9374402 208.332202,102.266564 C210.376017,103.929853 212.431279,105.462065 214.522152,106.867016 C215.56886,107.565674 216.627015,108.228699 217.69916,108.848455 C218.795469,109.486029 219.787489,109.988706 221.063125,110.616098 C227.260706,113.7976 233.888162,117.615403 240.2231,123.249207 C243.345419,126.070563 246.383798,129.546035 248.446691,133.727802 C250.552825,137.908296 251.459633,142.292405 253.213474,146.254012 C254.924072,150.260159 257.54911,154.005424 260.815145,157.42872 C264.049384,160.869832 267.927165,163.938073 271.887613,167.110667 C279.81487,173.435493 288.585344,179.563066 296.98699,187.143949" id="Fill-46"></path>
                        <path d="M232.429638,11.8270223 C226.819638,17.2864798 221.437294,21.3957079 216.695948,24.7362851 C211.939339,28.0679541 207.800835,30.6233366 204.337668,32.7282184 C197.383354,36.8908957 193.171085,39.3062921 190.668142,40.5661669 C188.054551,41.8616745 185.571958,42.9077524 182.433105,44.1358122 C180.866222,44.7542962 179.132731,45.4173213 177.166496,46.2559652 C175.206621,47.1086078 172.994925,48.1037816 170.597544,49.6881697 C172.301783,47.3414937 174.156097,45.5636704 175.828541,44.0925438 C177.516247,42.6239624 179.067868,41.4646231 180.501209,40.4745396 C183.375524,38.4956453 185.788167,37.1899569 188.429738,35.9135382 C191.265898,34.5187677 196.225998,32.850388 203.680137,29.6663408 C207.39894,28.0539555 211.740935,26.0356106 216.615823,23.2282531 C221.479264,20.4158053 226.893404,16.7978011 232.429638,11.8270223" id="Fill-48"></path>
                        <path d="M143.922,260.697605 C141.480105,262.876298 138.601975,264.463231 135.863746,266.06289 C133.092449,267.632007 130.322424,269.09168 127.585466,270.488996 C122.106464,273.286172 116.7521,275.842828 111.555441,278.26586 C106.356239,280.679983 101.314743,282.952848 96.4055162,285.09209 C93.9865137,286.211979 91.3004289,287.123161 88.6486833,287.475672 C85.9842195,287.868905 83.3197556,287.821819 80.7608529,287.504942 C75.6252419,286.855915 70.9347681,285.205352 66.5495312,283.502612 L53.8707531,278.394392 C49.8085586,276.517306 46.0388828,274.504051 42.4014763,272.420804 C40.5865885,271.370908 38.8162145,270.298106 37.0967132,269.154038 C36.2369626,268.576277 35.3899302,267.984517 34.555616,267.336764 C33.7213017,266.663558 32.9098803,266.041256 32.0793815,264.981179 L31.9509277,264.819559 L31.8542693,264.58031 C27.3698304,253.410693 22.9260898,243.248975 19.3599052,233.115255 C18.5408529,230.671861 17.5043192,228.276826 16.5936958,225.777438 C15.6754414,223.290776 14.8500299,220.762118 14.2103042,218.187647 C12.9194065,213.045067 12.3750673,207.66451 13.0109776,202.346312 C13.9508529,194.143127 17.717985,187.014017 22.4199052,181.521471 C22.9973117,180.84063 23.6306783,180.134337 24.234793,179.491673 C24.7982095,178.906277 25.5040698,178.150352 26.239182,177.553502 C27.7094065,176.322897 29.3169875,175.360811 30.9525486,174.588342 C34.2389327,173.05104 37.6270623,172.209851 40.9452419,171.607911 C42.6075112,171.31394 44.2608778,171.084872 45.8913516,170.883801 L50.8667132,170.285679 C52.794793,170.222049 54.4354414,170.49184 56.1015262,170.761631 C57.7523491,171.047967 59.3662893,171.396659 60.9700549,171.772076 C67.358409,173.254656 73.704793,175.275547 80.1402045,176.852299 C83.7801546,177.596771 87.0029476,179.324962 90.1418005,181.013704 C93.2870125,182.724079 96.3877107,184.666068 99.6194065,186.219914 C100.027661,186.410804 100.41811,186.58006 100.80983,186.740408 C101.176115,186.86894 101.870529,187.141277 102.334743,187.451791 C103.297511,188.055004 104.031352,188.730755 104.774095,189.411597 C106.231601,190.780915 107.561925,192.221499 108.925317,193.670992 C111.641925,196.561068 114.405591,199.55168 117.605491,202.19869 C118.011202,202.535929 118.39402,202.836263 118.823895,203.160776 L119.517037,203.688905 C119.801925,203.926882 120.081726,204.236124 120.28013,204.634448 C120.722723,205.450185 120.549756,206.506444 120.154219,207.132563 C119.767586,207.794316 119.253771,208.244816 118.725965,208.611325 C116.57786,210.029003 114.080005,210.338245 111.669905,210.146082 C109.244544,209.931013 106.885317,209.087278 104.767736,207.823586 C103.71594,207.197466 102.693397,206.438996 101.766239,205.63853 C100.867062,204.869879 99.8966633,204.159768 98.8817506,203.492925 C94.785217,200.845915 89.9357656,199.019733 84.7823491,197.603328 C79.6238454,196.155108 74.0825237,195.293558 68.3695062,194.174942 C74.1181347,195.055581 79.6950673,195.689337 84.9489576,196.939031 C90.1964888,198.160727 95.1921995,199.810018 99.5570873,202.401033 C100.64195,203.057695 101.687387,203.763989 102.669232,204.541548 C103.607835,205.289837 104.533721,205.921047 105.538459,206.477174 C107.525042,207.565248 109.673147,208.235908 111.798359,208.34917 C113.890504,208.462431 116.066589,208.031019 117.543172,206.958217 C117.899282,206.697334 118.190529,206.386819 118.329157,206.117028 C118.46397,205.828147 118.438534,205.73143 118.374943,205.615623 C118.33806,205.549448 118.261751,205.459093 118.140928,205.366193 L117.540628,204.944962 C117.105666,204.63572 116.631277,204.2883 116.209032,203.959969 C112.753496,201.282417 109.842299,198.309622 107.040479,195.495901 C105.640204,194.09095 104.276813,192.699997 102.899431,191.475755 C102.215192,190.875088 101.506788,190.285873 100.856888,189.906638 C100.521127,189.710658 100.340529,189.649573 99.8165387,189.467591 C99.3281596,189.288154 98.8512269,189.093446 98.4111771,188.900011 C94.8577107,187.297807 91.7582843,185.438537 88.6385087,183.833787 C85.5250923,182.237946 82.5070623,180.732459 79.4407032,180.182695 C72.6313766,178.642848 66.4426983,176.751764 60.1497307,175.365901 C58.5866633,175.015936 57.0286833,174.695241 55.4846933,174.44072 C53.9597805,174.197654 52.3738204,173.988947 51.0600299,174.052577 L46.3695561,174.65579 C44.7721496,174.861951 43.1912768,175.088474 41.6269377,175.376082 C38.5046185,175.951298 35.4153666,176.753036 32.6046434,178.080359 C31.2043691,178.744656 29.8842195,179.54894 28.7306783,180.521207 C28.1354663,181.003523 27.6687082,181.510018 27.0378853,182.170498 C26.459207,182.790255 25.9326733,183.380741 25.3819751,184.03104 C21.047611,189.116353 17.717985,195.472994 16.8709526,202.80572 C16.3011771,207.570338 16.7768379,212.44949 17.9774364,217.24974 C18.5726484,219.65241 19.3446434,222.038537 20.2247431,224.438662 C21.0883092,226.831152 22.1324738,229.264364 22.9947681,231.859197 C26.4414015,241.776576 30.8190075,252.001924 35.1724489,263.265713 L34.944793,262.857209 C35.3085337,263.353523 36.0347431,264.002549 36.7431471,264.566312 C37.4693566,265.14789 38.2502544,265.71547 39.0527731,266.269051 C40.6654414,267.377487 42.368409,268.447744 44.1197057,269.501458 C47.6248429,271.591068 51.3347431,273.659045 55.2036209,275.545039 L67.6140449,280.873419 C71.877187,282.652515 76.3349177,284.337438 81.0978853,285.076819 C85.8659401,285.842925 90.8438454,285.406423 95.6462394,283.254455 C100.59998,281.287014 105.708883,279.184677 110.979307,276.958898 C116.247187,274.726757 121.680404,272.373718 127.249706,269.799246 C130.033721,268.508829 132.850803,267.166235 135.675516,265.714197 C138.468434,264.2278 141.394893,262.768127 143.922,260.697605" id="Fill-86"></path>
                        <path d="M68.3070599,203.21308 C73.5863865,206.190966 78.2717731,209.453914 82.8617731,212.169645 C87.4390549,214.908282 91.9463865,217.048796 96.3812244,218.544102 C100.737209,219.983414 105.187309,220.450458 109.324541,220.95059 C113.485938,221.407454 117.440027,221.711606 121.205888,221.983942 C128.745239,222.524798 135.545663,222.881126 142.000152,223.444888 C143.616636,223.589965 145.210227,223.746494 146.80509,223.962837 C148.380875,224.166453 150.082571,224.47824 151.663444,225.089088 C153.235414,225.717753 154.906586,226.537308 156.081748,228.330403 C156.656611,229.221223 156.952945,230.47219 156.698581,231.618803 C156.444217,232.753963 155.808307,233.671508 155.106262,234.32308 C153.178182,236.065271 151.02499,236.629033 148.969728,237.014631 C146.920825,237.328963 145.145364,237.41041 143.30504,237.574575 L132.798531,238.297412 C125.986661,238.714825 119.424067,239.05461 112.34893,239.312948 C108.808182,239.438935 105.149155,239.556015 101.238307,239.578921 L99.7502768,239.571286 C99.2657132,239.575104 98.6145411,239.5242 98.1070848,239.427482 C97.0374838,239.241682 96.030202,238.951529 95.0203766,238.630834 C93.0083566,237.97799 91.0128703,237.178796 88.9639676,236.3147 C80.7721721,232.854499 71.8465362,228.131877 60.7855137,223.147099 C72.137783,227.434492 81.3495786,231.658254 89.6062369,234.683226 C91.6653142,235.439151 93.664616,236.131446 95.6028703,236.668483 C96.5694539,236.930639 97.5258628,237.158435 98.4288554,237.276787 C98.9083317,237.336599 99.2428204,237.355688 99.7426459,237.336599 L101.18489,237.286967 C105.037234,237.118984 108.692446,236.883553 112.214117,236.664666 L132.603943,235.319526 L143.065938,234.558511 C146.635938,234.218727 150.65489,234.25945 153.015389,232.130389 C153.814092,231.314652 153.967983,230.679624 153.502496,229.919881 C153.015389,229.120688 151.84913,228.386397 150.586212,227.915535 C148.045115,226.950903 144.891,226.775284 141.725439,226.416411 L120.982047,224.627134 C117.202197,224.25808 113.230302,223.831759 109.030751,223.224728 C104.842646,222.56043 100.374741,221.930493 95.7720224,220.188303 C91.2939426,218.44993 86.7840673,216.024353 82.3276085,213.014652 C77.8495287,210.026585 73.3879825,206.516752 68.3070599,203.21308" id="Fill-88"></path>
                        <path d="M147.49785,235.820931 C149.324185,235.701307 151.146703,235.925284 152.807701,236.552677 C154.44199,237.183887 156.012688,238.215966 156.831741,239.880528 C157.231092,240.702628 157.365905,241.690166 157.171317,242.600076 C156.983087,243.513803 156.525232,244.316814 155.982165,244.976022 C154.876953,246.307162 153.513561,247.157259 152.146354,247.871188 C150.748623,248.595298 149.303835,248.964353 147.978599,249.324499 C146.634284,249.671919 145.330668,249.959526 144.061392,250.2255 C141.525382,250.753629 139.130544,251.181223 136.848898,251.570639 C127.733761,253.118122 120.392813,253.987308 113.233736,255.298087 C112.044584,255.519519 110.902489,255.753678 109.823985,256.017106 L106.482913,256.804846 C104.285207,257.288435 102.158723,257.681668 100.036055,257.959095 C97.9133865,258.231432 95.79199,258.393052 93.6044589,258.319241 C91.4576259,258.249248 89.0666035,257.881467 86.9401197,256.975375 C78.8500698,253.599165 70.2373017,249.067433 56.5970274,243.25292 C70.8070773,247.306154 80.0735611,251.104867 88.0415162,253.937677 C91.7069027,255.228094 95.5706933,254.879401 99.5438603,254.358908 C101.534259,254.070027 103.566628,253.680611 105.685481,253.207204 L108.950244,252.429645 C110.12795,252.140764 111.32219,251.89897 112.55204,251.668629 C119.91588,250.320945 127.246653,249.458122 136.394858,248.370048 L143.594633,247.474137 C144.853736,247.301063 146.145905,247.113991 147.454608,246.886195 C148.768399,246.640583 150.079646,246.419151 151.286603,245.917746 C152.507551,245.421432 153.775556,244.76477 154.710344,243.831953 C155.656579,242.913136 156.178025,241.654533 155.70618,240.3463 C155.254683,239.040611 154.003212,237.904179 152.539347,237.145709 C151.061491,236.377058 149.322913,235.934193 147.49785,235.820931" id="Fill-90"></path>
                        <path d="M148.779591,248.458748 C150.516898,248.349305 152.302534,248.488018 153.794379,249.376293 C154.523132,249.819159 155.15014,250.540723 155.33201,251.426453 C155.522783,252.312184 155.287496,253.206822 154.921212,253.946203 C154.15812,255.444054 152.974055,256.542309 151.798893,257.478943 C150.607197,258.410487 149.362085,259.182955 148.124603,259.856161 C143.14797,262.510807 138.354479,263.894124 134.083706,265.036919 C125.505277,267.281787 118.586574,268.699465 111.675501,270.16041 L99.1747781,272.787058 C97.2428828,273.208289 95.3465985,273.657517 93.3561995,274.015118 C91.3759751,274.373992 89.2507631,274.601787 87.0759501,274.443985 C84.8159252,274.337086 82.6907132,273.610431 80.5349776,272.935953 C78.3652519,272.228387 76.1103142,271.413922 73.6900399,270.530737 C68.8405885,268.791092 63.3768479,266.61749 56.5751521,264.66532 C63.5447282,265.929013 69.2234065,267.615209 74.1860499,268.974346 L81.1301895,270.88452 C83.3151771,271.427921 85.3144788,271.980229 87.1878703,271.973866 C91.0427581,272.084583 94.6585436,270.936697 98.5617606,270.072601 C102.462434,269.174145 106.490289,268.366043 111.096823,267.396321 L133.497397,262.634249 C137.777072,261.672163 142.454828,260.586634 147.398394,258.390125 C148.625701,257.836544 149.854279,257.196426 151.031985,256.416321 C152.195701,255.638762 153.353057,254.707218 154.10216,253.502065 C154.4659,252.901398 154.701187,252.219284 154.619791,251.549896 C154.548569,250.877962 154.125052,250.246752 153.512035,249.783526 C152.259292,248.858345 150.515626,248.516015 148.779591,248.458748" id="Fill-92"></path>
                        <path d="M88.6158703,215.949015 C83.7867681,213.02585 82.0329277,210.46665 80.7229526,207.916358 C79.8962693,206.166532 79.4638504,204.668681 79.6177406,202.878131 C79.7194863,202.001309 80.0196359,200.983229 80.8386883,200.172582 C81.6450224,199.347937 82.9575411,198.959793 84.3361945,199.176136 C82.9295611,199.318667 81.9413566,199.947332 81.4555212,200.691803 C80.9544239,201.433729 80.8463192,202.229105 80.8361446,202.95067 C80.8679401,204.414161 81.2202344,205.710941 81.9782394,207.308055 C83.2131771,209.666184 84.6923042,211.956866 88.6158703,215.949015" id="Fill-94"></path>
                        <path d="M312.628855,227.437164 C320.049928,235.602171 326.669753,243.624647 332.784666,251.573312 C335.842122,255.522192 338.766037,259.56779 341.616187,263.358868 C344.503219,267.111768 347.462746,270.883757 350.73514,273.664389 C351.544017,274.337595 352.384691,274.920446 353.141424,275.261503 C353.926137,275.610196 354.427234,275.65601 354.822771,275.530022 C355.251374,275.415488 355.872022,274.87336 356.408731,274.067804 C356.950526,273.268611 357.431274,272.28489 357.86115,271.257901 C359.55903,267.07359 360.715115,262.343332 362.050526,257.684341 C364.670476,248.325634 367.67706,238.641142 372.854641,229.580224 C368.17307,240.420238 366.451025,250.688854 364.582721,260.447157 C364.117234,262.899459 363.65302,265.327581 363.093419,267.760794 C362.513469,270.191462 361.904267,272.622129 360.767259,275.110064 C360.165688,276.340669 359.454741,277.645085 358.100252,278.798061 C357.423643,279.359278 356.547359,279.853047 355.579504,280.068117 C354.619279,280.298458 353.646337,280.257734 352.80312,280.085933 C351.107783,279.723242 349.825788,278.97368 348.665888,278.207574 C347.51489,277.423652 346.493618,276.568465 345.525763,275.677644 C341.701399,272.101636 338.53711,268.080217 335.34484,263.839911 L325.559454,250.648131 C318.677633,241.444682 310.984392,231.279146 301.593269,219.750655 C294.378232,210.920078 286.326337,202.224396 277.452845,193.997032 C268.570451,185.838388 258.866461,177.894814 248.082696,172.04085 C245.376262,170.596448 242.650751,169.344209 239.803145,168.342672 C236.731698,167.240599 233.684416,166.031629 230.666387,164.724668 C224.625239,162.109473 218.699828,159.094682 212.971549,155.693019 C201.504815,148.890968 190.789728,140.533798 181.458382,130.798402 C175.613095,124.695008 170.515638,118.259466 165.91292,111.067999 C161.347085,103.865078 157.185688,95.9075049 154.09898,86.4151752 C152.591873,81.6632837 151.345489,76.5143408 150.902895,70.8754465 C150.661249,67.9344659 150.742646,65.2111001 150.900352,62.249758 C151.074591,59.3215035 151.421798,56.2952587 152.080601,53.2015661 C152.743219,50.115509 153.716162,46.9365522 155.340277,43.8912184 C156.941499,40.8713366 159.304541,37.9278108 162.58711,36.0901752 C165.835339,34.219452 169.888631,33.7053213 173.617608,34.6635897 C177.3008,35.6014965 180.966187,37.8463644 182.834491,41.456733 C180.64696,38.0283463 176.891274,36.2479777 173.370875,35.7045772 C169.795788,35.1522684 166.262671,36.0252726 163.654167,37.9163574 C161.012596,39.7896259 159.261299,42.5015382 158.13701,45.3101683 C156.998731,48.1289791 156.428955,51.0763227 156.136436,53.951128 C155.84519,56.8310236 155.8312,59.6561975 155.9711,62.3910167 C156.116087,65.1016565 156.36282,67.8555647 156.838481,70.2035132 C157.788531,75.1348414 159.416461,79.6487566 161.246611,83.8063435 C164.971773,92.1215174 169.501998,99.0622823 174.1912,105.418924 C178.916012,111.765384 183.882471,117.536629 189.341125,123.235335 C196.192421,130.383534 204.053544,137.832067 213.32893,144.948451 C217.962172,148.50537 222.951524,151.973207 228.330052,155.224702 C231.017409,156.852359 233.801424,158.426566 236.683369,159.932053 C239.574217,161.497352 242.493045,162.711413 245.769254,164.47142 C252.011349,167.91635 257.716736,172.278826 263.292397,177.000175 C268.860426,181.741886 274.274566,186.898465 279.68489,192.308291 C290.49282,203.145759 301.303294,215.002581 312.628855,227.437164" id="Fill-96"></path>
                        <path d="M217.335546,200.859277 C224.264424,203.426113 231.059761,205.020682 237.679586,206.510898 C244.303227,207.992205 250.780608,209.348798 257.14607,211.121531 C263.505172,212.887901 269.7638,215.061503 275.792229,218.048297 C281.816843,221.023638 287.583277,224.823624 292.879137,229.586969 C286.331805,224.880891 279.918015,221.771927 273.625047,219.418888 C267.319362,217.069667 261.110334,215.461099 254.574449,213.967066 C248.042379,212.459034 241.146569,211.138074 233.45587,209.147727 C225.813501,207.116656 217.190559,204.468373 208.360309,199.00128 C201.614574,194.823332 195.325421,189.394417 189.943077,182.895244 C187.246818,179.656475 184.752778,176.156823 182.467317,172.509549 C180.197117,168.939903 177.788289,165.391892 175.320958,161.846426 C165.403302,147.696378 154.5941,133.501788 143.600484,119.747518 C140.137317,115.451218 136.787342,111.326718 133.147392,107.216218 C131.331232,105.166058 129.426045,103.114625 127.386045,101.13064 L125.794998,99.6327893 C125.171805,99.0626641 124.558788,98.4619965 123.969935,97.8155153 C122.793501,96.5238255 121.69592,95.0641523 120.798015,93.4059534 C118.974224,90.1150076 118.170434,85.9154249 118.919536,81.8978241 C119.621581,77.864952 121.55602,74.1005987 124.137815,70.6760299 C126.729786,67.2463707 129.997092,64.0915932 133.827815,61.2104249 C137.669985,58.3636168 142.078115,55.6618853 147.244249,53.9031509 C142.245995,56.1238394 138.174898,59.2098964 134.715546,62.3519478 C131.275272,65.5245417 128.477267,68.8918435 126.437267,72.3100494 C124.393451,75.7218922 123.143252,79.2342705 122.967741,82.4564958 C122.765521,85.6914471 123.714299,88.5153484 125.286269,90.7729423 C126.082429,91.905557 127.015945,92.9134569 128.03213,93.8195487 C128.540858,94.271322 129.073751,94.6950981 129.614274,95.1010577 C130.241282,95.5770104 130.825047,96.0186029 131.464773,96.5365515 C133.888863,98.4938115 136.067491,100.481614 138.126569,102.501232 C142.23582,106.537921 145.865596,110.649695 149.420334,115.060529 C158.323077,126.157608 167.027416,140.324201 176.438888,156.547316 C178.786668,160.612003 181.176419,164.806496 183.578888,169.154973 C185.916494,173.560717 188.405446,177.862108 191.604075,181.943339 C194.764549,186.010571 198.498613,189.81183 202.829162,193.037873 C207.15208,196.274097 212.057491,198.904563 217.335546,200.859277" id="Fill-98"></path>
                        <path d="M369.874511,236.195076 C372.835309,248.924902 374.688352,260.062704 375.334436,269.795556 C375.993239,279.518226 375.400571,287.865215 373.613663,294.737259 C371.859823,301.62203 368.878676,306.903323 365.956032,310.592593 C363.018127,314.30986 360.307878,316.57509 358.29713,318.065305 C354.086132,321.165361 349.805185,323.121348 345.146506,325.625827 C342.847055,326.918789 340.454761,328.335194 338.414761,330.759499 C336.35314,333.150716 334.8791,336.916341 334.534436,341.728045 C333.177404,337.131411 333.14688,332.491508 334.734112,328.629165 C336.288277,324.759186 338.864985,322.058727 341.113564,320.007294 C345.744262,315.940062 349.592791,313.730827 353.275983,311.045639 C355.252392,309.610145 357.91304,307.869227 360.839499,305.007148 C363.753239,302.157795 366.89718,298.009116 369.209349,291.915903 C371.539324,285.853233 372.961219,277.972016 373.107479,268.606946 C373.266456,259.236787 372.212117,248.392955 369.874511,236.195076" id="Fill-100"></path>
                        <path d="M163.450167,234.656501 C174.635828,237.524944 184.377973,242.290834 193.056875,247.166168 C201.735778,252.093678 209.398496,257.247711 216.379519,262.117955 C230.307224,271.924617 241.595903,280.556668 251.278272,287.278546 C260.930117,294.039874 268.905703,298.97502 275.433958,302.362684 C281.964756,305.773254 286.998621,307.647795 290.6869,308.816042 C291.645853,309.121467 292.599718,309.393803 293.549768,309.640688 L296.560167,310.39534 C298.577274,310.892927 300.594382,311.367607 302.652187,311.821926 C306.76907,312.715291 311.055105,313.548845 315.824431,314.006981 C320.58104,314.426939 325.883259,314.533838 331.734905,312.999081 C337.558571,311.491049 343.875703,307.922677 349.542935,301.703476 C345.092835,308.84404 339.124182,313.86954 332.943135,316.548365 C326.760815,319.259005 320.797249,319.969116 315.575155,320.101467 C310.316177,320.200729 305.654955,319.69678 301.267175,318.990486 C299.070741,318.631613 296.93917,318.216745 294.830491,317.747155 L291.657299,317.005229 C290.549544,316.725257 289.450691,316.412197 288.358197,316.058414 C283.656277,314.555472 277.771564,311.787565 270.860491,307.388184 C263.930342,303.004074 255.984007,296.987218 246.661564,289.365611 C237.307324,281.779638 226.624032,272.499832 213.464506,262.386474 C206.870117,257.357155 199.634731,252.131856 191.432761,247.19162 C183.232062,242.294652 174.025354,237.587301 163.450167,234.656501" id="Fill-102"></path>
                        <path d="M48.4180773,341.835834 C52.8732643,335.094868 55.7068803,329.859388 58.2365312,325.579631 L64.7711446,314.446919 C67.4267057,309.860466 69.3280773,306.368449 71.7343616,302.382663 C74.1241122,298.385424 77.0314938,293.912232 81.3925661,287.111453 C78.8412943,294.763602 76.7987506,299.749652 74.8325162,304.011592 C72.8484763,308.270987 70.9216683,311.81009 68.2292244,316.457629 C66.2006708,319.939465 64.1187007,323.402211 61.16299,327.501259 C58.1843865,331.562128 54.4007207,336.392921 48.4180773,341.835834" id="Fill-104"></path>
                        <path d="M86.5435661,304.934101 C96.3912718,307.598927 105.829451,308.837168 114.603741,309.239309 C123.385661,309.645269 131.51005,309.252035 138.984539,308.620825 C153.933516,307.293503 166.350299,305.253524 176.870798,304.244351 C187.37985,303.163913 195.972269,302.980659 202.842643,303.462974 C209.715561,303.931291 214.837182,304.962098 218.521646,305.969998 C226.16783,308.110513 233.067456,311.208023 240.578828,316.514768 C248.048229,321.853329 256.116658,329.50675 264.706534,341.68045 C254.025786,331.194219 245.196808,325.238447 237.661272,321.066862 C230.083766,316.939817 223.741197,314.478607 216.704214,312.465353 C212.918005,311.411639 207.834539,310.088134 200.990873,309.198586 C194.15611,308.284859 185.562419,307.910714 174.997406,308.330672 C164.431122,308.68191 151.912594,309.94433 137.142943,310.44828 C122.425436,310.8886 105.1999,310.383378 86.5435661,304.934101" id="Fill-106"></path>
                        <path d="M237.123707,1.00509088 C235.608037,1.74276303 234.060823,2.35501747 232.532656,2.89603686 C229.434501,3.98283797 226.365599,4.76166968 223.392082,5.41705911 C217.437419,6.70493115 211.861758,7.49648887 206.717244,8.19260153 C196.418042,9.53519541 187.806546,10.4743748 180.685623,11.5293609 C166.414526,13.5489784 158.18712,15.9134708 153.533529,17.4011412 C148.718416,18.9791662 144.227618,20.5508282 139.586746,23.8595904 C137.320362,25.5496043 135.0349,27.7753832 133.471833,31.0905083 C131.882057,34.3801815 131.209264,38.7744722 131.771409,43.8648755 C130.306272,38.9539089 130.143479,34.235105 131.342805,30.2544096 C132.506521,26.2558978 134.833953,23.2156544 137.217344,20.9886029 C139.631259,18.743735 142.149464,17.2026154 144.619339,15.9452858 C147.101933,14.7057726 149.571808,13.7653206 152.162506,12.9635821 C157.735623,11.1997573 167.219589,9.64463908 181.867145,8.66728164 C189.19283,8.13278929 197.824676,7.74337344 207.919115,6.86782406 C212.961883,6.40841516 218.379838,5.83319958 224.119564,4.74512587 C226.986247,4.19281711 229.934327,3.50306745 232.905299,2.52698261 C234.219198,2.08629626 235.545914,1.59078869 236.853384,1.00390551 L237.123707,1.00509088 Z" id="Fill-108"></path>
                        <path d="M194.746998,16.9473317 C188.240364,20.5246127 181.920688,23.3383331 176.0258,25.8695362 C170.12201,28.385468 164.618843,30.5972483 159.558269,32.6817684 C149.432035,36.834265 141.086349,40.5426238 134.444903,44.1453567 C127.793282,47.7264555 122.854803,51.1522969 119.268269,54.1925403 C115.671561,57.2251481 113.408993,59.836525 111.834479,61.7886947 C108.609142,65.8775612 106.145626,70.0847796 104.577471,76.0011008 C103.052559,81.8983331 102.649392,89.7044666 105.167596,100.251782 C100.78999,90.3140424 99.7750773,81.9937782 100.726399,75.2222691 C101.699342,68.4278533 104.365077,63.2649117 108.029192,58.6988199 C110.022135,56.2452455 113.036349,53.2839033 117.402509,50.2258435 C121.758494,47.1563303 127.447347,44.0142789 134.592434,40.8811356 C141.733706,37.7276307 150.335027,34.5983053 160.430738,31.0108435 C165.47605,29.2050229 170.896549,27.2732149 176.650264,25.028347 C182.397621,22.7732983 188.497272,20.2230063 194.746998,16.9473317" id="Fill-110"></path>
                        <path d="M120.750449,83.6507045 C113.106808,92.4774638 106.460274,99.9972622 101.172045,106.785315 C95.85202,113.541553 91.7682045,119.450239 88.6433416,124.522825 C82.3974314,134.690906 79.9122943,141.377151 78.405187,145.180955 C76.8739152,149.16165 75.5626683,152.894188 74.4142145,157.713528 C73.8584289,160.128924 73.3598753,162.82302 73.1322195,165.980343 C72.9134663,169.13512 72.9592519,172.772213 73.773217,176.950162 C72.2165087,172.969467 71.5182793,169.261108 71.2333915,165.971435 C70.9523192,162.670308 71.0807731,159.768778 71.37202,157.167582 C71.995212,151.961372 73.1945387,147.922137 74.8186534,143.758187 C76.5915711,139.298994 80.2366085,132.143159 87.4592768,122.241052 C91.0674314,117.289362 95.5760349,111.663194 101.127531,105.302735 C106.651047,98.9130063 113.326833,91.8958853 120.750449,83.6507045" id="Fill-112"></path>
                        <path d="M72.1479576,157.692657 C64.9672594,156.136266 58.5967107,155.928832 53.2372594,156.422602 C47.8663616,156.915098 43.4976584,158.089709 40.0166858,159.392852 C33.0458379,162.066586 29.5724963,164.963026 27.527409,166.469785 C25.423818,168.110168 23.546611,169.731461 21.3972344,171.996691 C19.3063616,174.29119 16.8072344,177.218172 14.7176334,182.162226 C15.8915237,176.889841 17.9951147,173.385098 19.9117481,170.740634 C21.8919726,168.105077 23.8162369,166.266169 26.0559127,164.53925 C28.476187,162.741065 32.8270848,159.937525 40.3142918,157.799556 C47.7404514,155.730307 58.5153142,154.465341 72.1479576,157.692657" id="Fill-114"></path>
                        <path d="M70.7905436,157.729944 C55.7538105,155.049847 42.2763292,155.549979 31.6362793,158.945278 C26.3226135,160.621293 21.7567781,163.009965 18.1002943,165.826231 C14.4323641,168.639951 11.6877756,171.858359 9.71772569,175.05895 C7.74640399,178.270994 6.52418454,181.455042 5.74201496,184.385841 C5.35029426,185.84806 5.06795012,187.264465 4.86191521,188.586697 C4.67877307,189.861843 4.60373566,191.119172 4.587202,192.29251 C4.56939651,197.026586 5.27398504,200.584777 5.75091771,203.170702 C6.83069327,208.549986 8.25386035,213.511857 10.7084738,219.51726 C11.9586733,222.509145 13.5001197,225.76064 15.6342344,229.334103 C17.7734364,232.89993 20.5154813,236.797907 24.3360299,240.862594 C19.8312419,237.536015 16.3591721,234.063088 13.5853317,230.750508 C10.8140349,227.429019 8.7295212,224.257698 7.05199002,221.260723 C3.73762594,215.237503 1.92655362,209.954937 0.785730673,204.107337 C0.226129676,200.95765 -0.341102244,196.677893 0.251566085,191.040271 C0.561890274,188.183282 1.37967082,185.126495 2.60697756,181.922086 C3.85590524,178.704951 5.65171571,175.307107 8.22333666,172.042886 C10.7822394,168.777392 14.1436608,165.6837 18.2745337,163.142316 C22.3990474,160.594569 27.2713915,158.606766 32.6969776,157.317622 C43.5697706,154.720243 56.5512419,154.907316 70.7905436,157.729944" id="Fill-116"></path>
                        <path d="M119.198574,98.0407656 C115.722688,101.847115 113.181591,106.008519 111.917401,110.183923 C110.625232,114.354236 110.615057,118.421468 111.31583,121.980933 C112.01406,125.555668 113.332938,128.66336 114.77391,131.376545 C116.227601,134.093547 117.816105,136.431315 119.34992,138.501837 C122.440444,142.632699 125.282963,145.728937 127.522638,148.26523 C129.775032,150.788798 131.466554,152.735877 132.576853,154.297358 C134.847052,157.560307 136.870519,160.833436 138.26189,165.926385 C138.59002,167.206621 138.852015,168.625571 138.925781,170.213777 C138.989372,171.793074 138.858374,173.589987 138.194484,175.386899 C137.544584,177.181266 136.309646,178.838193 134.760569,179.961899 C133.215307,181.104695 131.43603,181.812261 129.543561,182.278033 C130.964185,180.917622 132.064309,179.487219 132.673511,178.121718 C133.301791,176.7524 133.39209,175.506524 133.23184,174.461718 C132.874459,172.375926 131.75017,170.687184 130.676753,169.077344 C128.426903,165.892024 126.269895,163.234834 124.157401,160.139869 C123.011491,158.475307 121.626479,156.106997 119.856105,152.914041 C118.104808,149.71345 115.91982,145.70603 113.628,140.585084 C112.49608,138.020793 111.34381,135.167622 110.391217,131.95685 C109.448798,128.754987 108.683162,125.171343 108.624658,121.269549 C108.544534,117.381753 109.273287,113.194896 111.078,109.201475 C112.872539,105.201691 115.689621,101.458971 119.198574,98.0407656" id="Fill-119"></path>
                    </g>
                </g>
            </g>
        </g>
    </g>
</svg>