<?xml version="1.0" encoding="UTF-8"?>
<svg width="366px" height="575px" viewBox="0 0 366 575" version="1.1" xmlns="http://www.w3.org/2000/svg" xmlns:xlink="http://www.w3.org/1999/xlink">
    <!-- Generator: Sketch 47.1 (45422) - http://www.bohemiancoding.com/sketch -->
    <title>images/femme_1</title>
    <desc>Created with Sketch.</desc>
    <defs></defs>
    <g id="Site-web-Copy" stroke="none" stroke-width="1" fill="none" fill-rule="evenodd" opacity="0.410439312">
        <g id="Desktop" transform="translate(-1007.000000, -884.000000)" fill="#58BC82">
            <g id="Group-14" transform="translate(0.000000, 884.000000)">
                <g id="images/femme_1" transform="translate(1006.000000, 0.000000)">
                    <g id="Page-1">
                        <path d="M100.837198,573.880311 L95.3008269,573.875938 C102.844629,563.180555 108.882643,554.675754 113.414868,548.361536 C119.739631,539.60986 126.009706,530.349144 132.666414,520.954805 C136.004943,516.258908 139.44013,511.531195 143.144943,506.882385 C146.871377,502.252663 150.783496,497.638212 155.620229,493.539165 C156.847536,492.523629 158.125716,491.541182 159.543796,490.647816 C160.968234,489.736634 162.517312,488.981981 164.048584,488.357134 C167.132748,487.109985 170.272873,486.315882 173.400279,485.707579 C179.663995,484.524061 185.908633,484.074832 192.116389,483.799951 C204.534444,483.307454 216.846938,483.607788 229.046239,483.778316 L240.36417,483.9463 C244.068983,483.943755 248.00781,484.125736 251.259855,483.8534 C254.627636,483.555611 257.883496,482.779325 260.639531,481.121126 C263.399382,479.487106 265.667037,476.866821 267.197037,473.251362 C268.739756,469.654992 269.537187,465.244158 269.829706,460.437545 C270.119681,455.616933 269.922549,450.373817 269.422723,444.752739 C268.92417,439.129116 268.119107,433.119895 267.186863,426.667809 C266.267337,420.211905 265.17993,413.302955 264.402848,405.844241 C265.853995,413.227871 267.593845,419.990472 269.158185,426.343296 C270.731426,432.696119 272.169855,438.632802 273.286514,444.294603 C274.399357,449.952586 275.209506,455.333143 275.466414,460.562259 C275.704244,465.774832 275.418085,470.880507 273.922424,475.762204 C272.483995,480.622266 269.451975,485.215083 265.359257,488.156063 C261.293247,491.14413 256.705791,492.554172 252.423571,493.241376 C251.345067,493.411905 250.275466,493.539165 249.21604,493.625702 L247.642798,493.733873 L246.212,493.814047 C244.259756,493.909492 242.349481,493.984575 240.430304,494.034207 C236.594494,494.137287 232.767586,494.147468 228.888534,494.087656 C219.138758,493.950215 208.624618,493.111571 197.435142,492.43582 C191.841676,492.11767 186.068883,491.835152 180.185441,491.978956 C177.248808,492.055312 174.282923,492.239839 171.352648,492.669978 C168.431277,493.110298 165.518808,493.780959 162.916663,494.98993 C160.291626,496.225625 157.704743,498.070896 155.232324,500.117239 C152.748459,502.173761 150.357436,504.472079 148.014743,506.898928 C143.343347,511.764081 138.8818,517.149728 134.519456,522.834436 C125.804943,534.229304 117.474519,546.839506 109.261102,560.349436 C107.370805,563.464461 104.562837,567.974753 100.837198,573.880311 Z" id="Fill-3"></path>
                        <path d="M95.960404,424.417214 C99.3129227,424.550837 102.43397,426.058869 104.917835,428.045399 C107.406788,430.048473 109.277636,432.834196 109.791451,435.930434 C109.947885,436.733445 109.917362,437.451192 110.054718,438.123125 C110.175541,438.805239 110.376489,439.479718 110.609232,440.133834 C111.083621,441.440796 111.720803,442.66631 112.468633,443.779836 C113.970653,446.004342 115.968683,447.751623 118.208359,448.754433 C122.755117,450.922944 127.628733,449.386915 131.877885,447.881428 C136.158833,446.258862 140.032798,444.21252 143.63205,442.13309 C147.231302,440.035844 150.549481,437.860969 153.675616,435.684822 C155.206888,434.600566 156.804294,433.494676 158.157511,432.414238 C159.545067,431.299439 160.866489,430.101922 162.147212,428.892951 C167.24594,424.0138 171.731651,418.992117 176.134693,413.932256 C181.987611,407.150566 186.918459,401.035719 191.606389,395.095218 C196.285416,389.144537 200.730429,383.360566 205.357312,377.034467 C207.640229,373.872054 210.065591,370.550566 212.226414,366.974558 C214.318559,363.533445 214.893421,358.994078 215.007885,354.173466 C215.188484,344.441887 213.125591,333.291359 210.976214,319.979954 C213.945915,333.127193 216.651077,344.126282 216.957586,354.159467 C217.03008,356.661401 216.949955,359.098431 216.601476,361.469287 C216.263172,363.812145 215.589107,366.190636 214.46609,368.197527 C212.295092,372.115865 209.999456,375.456442 207.76614,378.739752 C203.268983,385.247833 198.886289,391.124704 194.222524,397.141561 C189.547312,403.149509 184.591027,409.296171 178.685965,416.138946 C174.235865,421.253529 169.719631,426.315935 164.418683,431.315983 C163.082,432.556769 161.699531,433.793737 160.186065,434.982346 C158.628085,436.188772 157.104444,437.204307 155.480329,438.319106 C152.261352,440.493981 148.826165,442.648494 145.080653,444.703744 C141.332599,446.744996 137.284394,448.739161 132.724918,450.287917 C130.436913,451.034933 128.025541,451.705594 125.405591,451.955024 C122.800903,452.252812 119.856638,451.827764 117.360055,450.511894 C114.817686,449.230385 112.668309,447.133139 111.149756,444.61848 C110.391751,443.359878 109.771102,441.998195 109.329781,440.55252 C109.112299,439.825865 108.931701,439.083939 108.835042,438.305107 C108.720579,437.514822 108.790529,436.729627 108.688783,436.083146 C108.384818,433.289787 106.816663,430.565149 104.531202,428.493355 C102.247012,426.443195 99.2874863,424.762089 95.960404,424.417214" id="Fill-5"></path>
                        <path d="M118.653115,403.522508 C111.784012,403.315074 105.694536,403.075825 98.1183017,402.0552 C91.5239127,401.165652 86.095783,400.083941 83.4491247,400.377912 C77.7907955,401.005304 78.5996733,409.372654 83.4491247,411.071576 C96.0223416,415.474775 109.223838,407.715728 118.653115,403.522508" id="Fill-7"></path>
                        <path d="M93.2974663,414.33707 C89.7363691,418.199414 89.6219052,425.986458 95.9670175,424.295172 C102.308314,422.603885 115.301232,412.37981 117.201332,404.182988 C111.658738,405.599393 96.8611072,410.474727 93.2974663,414.33707" id="Fill-9"></path>
                        <path d="M169.757022,423.541029 C176.886848,427.409735 182.341686,431.98219 186.38989,436.488469 C190.454628,440.999839 193.192858,445.368678 195.207421,449.135576 C197.202908,452.926654 198.498893,456.132336 199.41206,458.723351 C200.325227,461.320729 200.863207,463.304714 201.156998,464.782204 C201.75984,467.856807 202.03201,470.772336 201.925177,474.406884 C201.811985,478.037614 201.328693,482.40009 200.054329,488.241328 C199.206025,482.291919 198.333556,478.145785 197.649317,474.73776 C196.957446,471.334825 196.438544,468.664909 195.901835,465.782468 C195.26211,462.718045 194.865302,457.424026 192.006249,449.667524 C190.53984,445.820451 188.379017,441.371439 184.852259,436.768442 C181.342035,432.17308 176.385751,427.487364 169.757022,423.541029" id="Fill-11"></path>
                        <path d="M84.0705362,384.480709 C86.3267456,384.516342 87.8707357,383.934764 89.1056733,383.444812 C90.3380673,382.923046 91.2741272,382.40637 92.1478678,381.799339 C93.2925062,380.972149 94.059414,380.22895 94.8034289,379.265591 C95.1722569,378.778185 95.5309102,378.228421 95.8145262,377.51322 C96.077793,376.800563 96.2698379,375.891926 96.0040274,374.783491 C96.5331047,375.779937 96.5814339,376.834924 96.4364464,377.676113 C96.276197,378.528755 95.964601,379.214687 95.6123067,379.803901 C94.8924564,380.978512 94.0339776,381.80952 92.7837781,382.709249 C91.8324564,383.369729 90.8086409,383.936036 89.4274439,384.361085 C88.0691397,384.759409 86.260611,385.077559 84.0705362,384.480709" id="Fill-13"></path>
                        <path d="M73.2750698,381.879513 C72.8401072,381.753526 72.4115037,381.609722 72.0999077,381.227942 C71.729808,380.821982 71.9320274,380.119506 72.2156434,379.824263 C72.7739726,379.151057 73.40098,378.865994 73.9516783,378.610202 C75.0721521,378.141885 76.0171147,378.003171 76.9544464,377.905181 C78.2033741,377.791919 79.1534239,377.800828 80.2395586,377.996808 C81.3015287,378.219513 82.5936983,378.583477 84.0537481,379.731363 C82.2884613,379.27959 81.122202,379.341947 80.1136484,379.307587 C79.1063666,379.306314 78.2428005,379.298679 77.0994339,379.403032 C76.2434988,379.489569 75.3875636,379.620647 74.3675636,379.858623 C73.8740973,379.985883 73.2890599,380.139868 72.8299327,380.436384 C72.6137232,380.60564 72.4649202,380.712538 72.5348703,380.989965 C72.6137232,381.280118 72.9291347,381.599541 73.2750698,381.879513" id="Fill-15"></path>
                        <path d="M55.9986608,310.845734 C55.0562419,313.261131 55.7875387,317.764865 59.5597581,314.828975 C63.3332494,311.894357 73.8105062,293.861604 82.6127756,291.974337 C86.1904065,291.208231 98.3312045,289.667111 111.319035,290.297049 C94.76502,286.9412 87.0120025,286.9412 79.5031746,289.248426 C72.9215037,291.269316 59.5597581,301.711006 55.9986608,310.845734" id="Fill-17"></path>
                        <path d="M85.3362519,323.635755 C84.9165511,327.200309 82.7061272,331.128828 78.131389,335.832361 C98.3317132,335.168063 112.785953,319.442535 113.833933,311.474781 C102.308696,319.095115 93.2978479,323.066902 85.3362519,323.635755" id="Fill-19"></path>
                        <path d="M85.3362519,323.635755 C82.6120125,321.539781 80.0391197,316.612271 79.5036833,313.570755 C81.2053791,318.880045 83.7312145,320.343536 88.1444314,323.299788 C87.0366758,323.662479 86.1209651,323.653571 85.3362519,323.635755" id="Fill-21"></path>
                        <path d="M48.1316883,335.831088 C47.2935586,338.906965 47.2859277,342.927111 40.4219127,347.818988 C48.9443815,346.980344 55.082187,341.965024 54.1486708,335.168063 C51.0390698,335.936714 51.6241072,335.272417 48.1316883,335.831088" id="Fill-23"></path>
                        <path d="M115.708342,78.5612128 C110.399763,80.1990501 105.574476,82.602993 101.055698,85.0972907 C96.5445511,87.6195855 92.3424564,90.3047733 88.3883666,93.0217761 C80.4789152,98.4659624 73.5309601,104.009412 67.2952244,109.341609 C54.8441022,120.040364 45.2444015,129.918292 37.6223815,138.50453 C22.4317581,155.757179 15.0933541,167.820163 11.2893392,175.031992 C7.43190773,182.58615 4.37445137,190.027047 2.37006234,199.845163 C1.42128429,204.752312 0.752306733,210.283035 1.07407731,216.619314 C1.42382793,222.911053 2.79103491,230.133063 6.66118454,237.29017 C4.13280549,229.527305 4.08320449,222.561088 4.67968828,216.648584 C5.32068579,210.709356 6.65609726,205.70549 8.06400249,201.253932 C10.9828304,192.368633 14.1598379,185.589488 17.8010599,178.372569 C21.7869451,170.69115 28.3037531,157.571908 42.4069701,139.451345 C49.4744763,130.437513 58.4268204,120.194349 70.1110349,109.326338 C75.9639526,103.911421 82.4947506,98.3323394 89.943803,92.9085146 C93.6727805,90.2029652 97.6268703,87.5368665 101.883653,85.0476592 C106.144252,82.5788136 110.697369,80.2155939 115.708342,78.5612128" id="Fill-25"></path>
                        <path d="M6.68077057,237.225649 C5.80702993,240.332067 5.34917456,243.46012 5.48144389,246.474912 C5.59845137,249.490976 6.25725436,252.351782 6.99745387,255.085329 C8.54780299,260.554967 10.028202,265.683549 11.544212,270.477436 L19.6673292,296.21197 L23.1343117,307.211059 L24.7520673,312.36891 L25.5380524,314.878479 C25.8102219,315.706942 26.0340623,316.572311 26.3240374,317.19334 C27.5589751,319.895072 30.7283516,321.082408 33.7603716,321.830697 C36.8547107,322.594258 40.0660574,323.019307 43.2685012,323.827408 C45.1622419,324.313542 47.0178279,324.909119 48.7309701,325.824119 C50.4415686,326.723848 52.0008204,327.984995 53.1034888,329.561748 C54.221419,331.128319 54.8560574,332.93923 55.1485761,334.689056 C55.4258329,336.398159 55.6356833,337.999091 55.8531646,339.626748 C56.6887506,346.099195 57.2941372,352.312033 57.6667805,358.829022 C57.8473791,362.089425 57.9669302,365.422366 57.9796484,368.901657 C57.9885511,370.64003 57.968202,372.416581 57.9084264,374.237672 L57.7926908,377.000489 C57.755808,377.946031 57.6298978,378.889029 57.6820424,379.736581 C57.7443616,381.483862 58.5316185,383.157332 60.1061322,384.158869 C61.6564813,385.183312 63.6786758,385.637631 65.767005,385.855245 C69.9449352,386.144126 74.5629152,385.533277 79.4797731,385.18204 L79.6667307,385.168041 L79.7417681,385.327116 C80.8240873,387.592346 81.711818,390.057373 82.1976534,392.709474 C82.6669551,395.337394 82.7305461,398.261831 81.5642868,400.915204 C82.6148105,398.21729 82.4291247,395.347575 81.8631646,392.775649 C81.2806708,390.188451 80.3115436,387.793417 79.1694489,385.618542 L79.5344613,385.82343 C74.6328653,386.355378 70.1217182,387.145663 65.6665312,386.992951 C63.4866309,386.83133 61.2863815,386.44955 59.3811945,385.288938 C58.4413192,384.708632 57.6108204,383.892895 57.0690249,382.920628 C56.523414,381.950906 56.2512444,380.876831 56.1736633,379.843479 C56.0846359,378.780857 56.1978279,377.844223 56.2029152,376.936859 L56.2512444,374.205857 C56.2639626,372.407672 56.2448853,370.651483 56.2003716,368.929654 C56.112616,365.485997 55.9371047,362.183597 55.7094489,358.953736 C55.2477781,352.495287 54.6004214,346.325718 53.7457581,339.905447 C53.5295486,338.310878 53.3044364,336.653952 53.0462569,335.064474 C52.78299,333.529717 52.2526409,332.063681 51.3547357,330.802533 C49.5805461,328.229334 46.3195985,326.798931 42.7419676,325.910656 C39.6959576,325.138187 36.5036883,324.716956 33.240197,323.912672 C31.6135387,323.501622 29.9474539,322.991309 28.3462319,322.119578 C26.7564564,321.269481 25.2277282,319.895072 24.407404,318.084161 C23.9877032,317.142436 23.8007456,316.321608 23.5336633,315.499508 L22.764212,312.984849 L21.1909701,307.809182 L17.8715187,296.764279 C15.574611,289.037047 13.0691247,280.533528 10.353788,270.828674 C8.97640648,265.972429 7.6651596,260.796761 6.309399,255.25713 C5.66331421,252.481588 5.1024414,249.545697 5.10371322,246.480002 C5.08717955,243.418124 5.67984788,240.291344 6.68077057,237.225649" id="Fill-27"></path>
                        <path d="M299.133721,158.9383 C289.700628,147.55743 280.485017,138.528328 270.445267,130.614023 C260.396613,122.75444 249.433521,116.013474 236.177337,110.76145 C244.051177,112.485824 250.916464,114.766325 257.228509,117.538049 C263.535466,120.3225 269.298085,123.599447 274.88392,127.604322 C280.453222,131.62065 285.872449,136.350908 291.239531,142.295226 C296.602798,148.231909 301.926638,155.385198 306.973222,164.336672 C314.689357,178.038766 322.186738,193.199259 327.572898,210.02177 C330.395067,218.770901 331.050055,228.102882 330.784244,237.259245 C330.467561,246.451241 329.050753,255.640692 326.504569,264.531081 C324.899531,270.102528 322.883696,275.354551 320.296813,280.620574 C317.697212,285.875143 314.540554,291.171707 310.291401,296.548446 C308.154743,299.225998 305.740828,301.922639 302.881776,304.504746 C300.026539,307.0754 296.726165,309.563334 292.808958,311.539684 C288.914643,313.50967 284.341177,314.932437 279.409057,315.050789 C274.482025,315.192048 269.327337,313.970351 264.46008,311.571499 C269.635117,313.307326 274.759282,313.713286 279.246264,312.892458 C283.747237,312.094538 287.556339,310.174183 290.692648,307.889864 C296.96781,303.2296 300.836688,297.443084 303.890329,292.119795 C306.903272,286.722695 309.041202,281.557208 310.896788,276.530435 C312.7422,271.499844 314.28619,266.585059 315.769132,261.442479 C317.617087,254.990393 319.589681,247.922368 321.09806,240.148049 C322.556838,232.403001 323.721825,223.857486 322.862075,214.981095 C320.304444,197.121415 313.50402,176.436561 299.133721,158.9383" id="Fill-29"></path>
                        <path d="M310.07392,434.293615 C307.914369,431.271188 305.772623,428.373476 303.534219,425.409588 C301.284369,422.228086 299.512723,419.087307 297.705466,415.894352 C294.163446,409.521167 290.944469,403.097078 287.901002,396.620812 C281.850953,383.6581 276.464793,370.486682 272.115167,356.630604 C269.965791,349.700019 268.070778,342.586181 266.880354,335.205096 C266.29786,331.515826 265.890878,327.755291 265.899781,323.946396 C265.932848,320.159136 266.328384,316.236981 267.910529,312.696605 C266.351277,316.796925 266.319481,321.133949 266.591651,325.217725 C266.899431,329.328225 267.639631,333.292377 268.524818,337.125451 C270.329531,344.792871 272.744718,351.962704 275.313796,358.872926 C280.5219,372.676828 286.384993,385.484282 292.945042,398.566619 C296.24796,405.087426 299.727661,411.71004 303.67412,418.337745 C304.663596,419.973038 305.70013,421.657961 306.781177,423.153267 L310.385516,428.01842 C312.7918,431.334818 315.18791,434.773385 317.585292,438.351939 C327.121401,452.680152 336.895342,469.174331 345.993945,489.497766 C352.906289,505.096035 359.14584,521.746744 363.073222,539.549157 C365.022923,548.442092 366.357062,557.625179 366.722075,566.996612 C366.801715,569.348705 366.824703,571.704151 366.794377,574.062591 C366.79282,574.183644 365.769925,574.210372 363.725692,574.142775 C363.772733,573.220524 363.805792,572.528059 363.824868,572.065381 C364.238209,561.425166 363.173696,550.410805 360.931476,539.358267 C356.408883,517.21374 347.279756,494.947043 335.061377,473.368823 C327.013297,459.209866 318.65998,446.333691 310.07392,434.293615 Z" id="Fill-31"></path>
                        <path d="M332.054666,572.848921 C332.040919,573.126694 332.019785,573.542513 331.991265,574.096379 L330.571917,574.149355 C330.706614,572.561404 330.805328,571.366911 330.868057,570.565876 C332.086461,555.433379 332.489628,539.186084 332.841923,521.853261 C332.839379,540.094721 332.868631,557.071216 332.054666,572.848921 Z" id="Fill-34"></path>
                        <path d="M26.3418429,224.995446 C23.6672045,223.109451 22.1817182,220.117567 21.4275287,217.228763 C20.6695237,214.303054 20.5029152,211.373526 20.5715935,208.580168 C20.7432893,202.979451 21.8052594,197.878867 23.0300224,193.269507 C25.5533142,184.044424 28.8358828,176.704062 31.8259327,170.7432 C37.9395736,158.855835 42.9836135,152.41393 46.0003716,148.806106 C49.2079027,145.101565 52.4802968,141.865341 57.033414,138.384778 C59.3163317,136.659131 61.9261072,134.87749 65.0827656,133.108575 C68.2356085,131.349841 71.9442369,129.586016 76.4210449,128.160703 C72.2571047,130.372483 68.9796234,132.696252 66.2159576,134.868582 C63.4548354,137.048547 61.2062569,139.096162 59.2196733,140.997428 C55.2630399,144.819048 52.3124165,148.040001 49.2066309,151.590557 C45.940596,155.440175 40.1258329,161.670828 33.36102,173.122963 C30.0415686,178.858575 26.4639377,185.912602 23.7295237,194.745724 C22.4004713,199.160376 21.2571047,204.03571 21.014187,209.372998 C20.9086259,212.032734 21.0345362,214.821002 21.7454838,217.595272 C22.444985,220.336454 23.8414439,223.153992 26.3418429,224.995446" id="Fill-36"></path>
                        <path d="M226.634995,113.626711 C235.8328,119.303783 243.195369,126.501613 247.993948,134.443915 C252.845943,142.373491 255.098337,150.840104 255.763499,158.652601 C256.422302,166.50073 255.629958,173.748192 254.316167,180.221912 C252.987115,186.705814 251.123898,192.455424 249.152576,197.561099 C245.174322,207.772448 240.855219,215.455139 237.281404,221.445271 C233.671978,227.427768 230.712451,231.712615 228.582152,234.899207 C224.119334,241.497643 219.8829,247.581947 214.265269,255.017754 C211.441828,258.722295 208.266092,262.765348 204.348885,267.211815 C202.386466,269.428686 200.235818,271.747364 197.791379,274.102949 C195.336766,276.440716 192.631603,278.890473 189.294347,280.972448 C192.973723,279.514047 196.159633,277.5237 199.041579,275.590619 C201.917165,273.633359 204.483698,271.644284 206.830207,269.711203 C211.518137,265.833588 215.327239,262.16468 218.649234,258.712114 C225.266516,251.775167 229.953175,245.704861 234.535544,238.860814 C236.978711,235.168999 240.001828,230.098957 243.410307,223.247274 C246.781903,216.386683 250.624072,207.746996 253.846865,196.735181 C255.426466,191.227364 256.84709,185.120153 257.640706,178.36646 C258.426691,171.625494 258.599658,164.20114 257.306217,156.379736 C256.025494,148.58251 253.124471,140.381871 247.948162,132.920612 C242.812551,125.437719 235.471603,118.858373 226.634995,113.626711" id="Fill-38"></path>
                        <path d="M181.857885,266.369862 C179.424893,269.641719 177.95594,273.245725 177.564219,276.690655 C177.368359,278.411211 177.424319,280.079591 177.681227,281.646163 C177.943222,283.222915 178.359107,284.680043 179.054793,285.889014 C180.434718,288.351497 182.701102,289.7819 184.860653,290.92215 C187.046913,292.056038 189.214095,292.978673 191.133272,294.088381 C194.816464,296.137268 197.829406,298.015627 200.03983,299.957616 C202.261701,301.879243 203.706489,303.882317 204.402175,305.633416 C204.765915,306.534417 205.021551,307.501594 205.123297,308.505676 L205.172898,309.321413 L205.169082,309.616656 L205.150005,310.077338 C205.108035,310.613103 205.020279,311.129779 204.894369,311.618458 C204.380554,313.582081 203.429232,315.077387 202.566938,316.545968 C201.712274,318.023458 200.827087,319.422046 200.745691,321.253318 C200.632499,323.093499 201.718633,325.468172 203.640354,327.77158 C201.064918,326.280092 198.897736,324.319014 198.115566,321.640189 C197.723845,320.333228 197.726389,318.996997 197.884095,317.842748 C198.044344,316.682136 198.338135,315.674236 198.616663,314.778325 C199.192798,312.999229 199.70407,311.607004 199.824893,310.541837 C199.891027,309.98062 199.883397,309.653562 199.802,309.125433 C199.724419,308.632936 199.585791,308.135349 199.382299,307.619946 C198.951152,306.521691 198.119382,304.922032 196.384618,302.972408 C194.679107,301.022783 192.06806,298.799549 188.704095,296.281072 C187.064718,295.061921 185.046339,293.897491 182.917312,292.367825 C180.821352,290.863611 178.523172,288.748548 177.485367,285.752846 C176.507337,282.794049 176.36998,279.49165 177.060579,276.109076 C177.767711,272.735412 179.424893,269.383381 181.857885,266.369862" id="Fill-40"></path>
                        <path d="M230.547242,305.850394 C230.009262,307.096271 229.503077,308.295061 229.092279,309.451855 C228.887516,310.029615 228.706918,310.595923 228.567017,311.148232 C228.438564,311.650909 228.319012,312.336841 228.097716,313.024045 C227.255771,315.672328 225.604948,317.94392 223.442853,319.493948 C221.31001,321.029977 218.476394,321.871166 215.841182,321.126695 C213.181805,320.394949 211.397441,318.152627 210.483002,315.767773 C212.096943,318.239163 214.397666,319.688656 216.587741,319.683565 C218.777815,319.714108 220.759312,318.670575 222.370708,317.18036 C223.980833,315.659602 225.285721,313.662891 225.95597,311.074421 C226.814449,308.029087 228.612803,305.303176 230.640085,302.184031 C233.798015,297.443593 236.437042,291.831424 237.739387,285.79166 C238.400733,282.783232 238.742853,279.702265 238.802628,276.631479 C238.839511,275.073816 238.798813,273.601417 238.712329,272.015756 L238.460509,267.251138 C238.248115,263.272988 238.282454,259.572265 237.851307,254.984539 C237.610933,252.702766 237.266269,250.174108 236.297142,247.466013 C235.798589,246.12851 235.134698,244.728649 234.051107,243.512042 C232.990409,242.291618 231.390459,241.306625 229.40006,241.148823 C231.381556,240.936298 233.329985,241.623503 234.773501,242.740846 C236.23991,243.846736 237.294249,245.233871 238.151456,246.570102 C239.834075,249.279469 240.800658,251.87303 241.57011,254.219706 C243.053052,258.9436 243.681332,262.82885 243.902628,266.994073 C243.999287,269.606723 243.947142,272.405172 243.462579,275.5994 C242.971656,278.722362 242.06612,281.976403 240.791756,285.249532 C239.526294,288.530297 237.886918,291.823788 236.069486,295.19618 C234.274948,298.576208 232.21587,302.04659 230.547242,305.850394" id="Fill-42"></path>
                        <path d="M210.475117,282.808684 C211.757112,287.032446 210.954594,291.198941 211.214045,294.884393 C211.290354,295.801938 211.455691,296.705485 211.863945,297.449956 C212.267112,298.194428 212.944993,298.709831 213.728434,298.931264 C215.296589,299.473392 216.853297,298.662745 218.018284,297.700659 C220.386414,295.683586 221.968559,293.160019 223.460404,290.945693 C224.938259,288.711006 226.216439,286.557766 227.733721,284.809212 C229.019531,283.218461 229.649082,281.399914 229.964494,279.759532 C230.271002,278.103878 230.273546,276.58312 230.159082,275.249435 C229.913621,272.574428 229.295516,270.632439 228.840204,269.222397 C228.339107,267.751271 227.830379,266.32723 227.1118,265.071173 C226.385591,263.801118 225.4419,262.575603 224.088683,261.675874 C222.768534,260.80287 220.862075,260.239108 218.988683,261.207557 C217.097486,262.140373 215.848559,264.838287 215.971925,267.99561 C215.660329,266.444309 215.623446,264.907008 215.985915,263.499511 C216.339481,262.095832 217.131825,260.83214 218.235766,260.01004 C219.332075,259.180304 220.671302,258.825248 221.89988,258.839247 C223.134818,258.851973 224.266738,259.195575 225.233322,259.679163 C229.121277,261.763684 230.530454,265.264608 231.573347,268.341757 C232.120229,270.083948 232.712898,272.501889 232.67983,275.717752 C232.65185,277.318684 232.450903,279.124504 231.831526,281.039768 C231.523746,281.995492 231.098958,282.971576 230.529182,283.931118 C229.992474,284.87157 229.14417,285.854017 228.391252,286.598489 C226.935017,288.209602 225.52584,290.264852 223.894095,292.411729 C222.234369,294.524247 220.499606,296.976549 217.769007,298.774734 C217.074594,299.195965 216.28988,299.55102 215.427586,299.655373 C214.552574,299.769908 213.654668,299.558656 212.886489,299.128517 C212.099232,298.690742 211.511651,297.913183 211.243297,297.054177 C210.957137,296.193899 210.889731,295.286535 210.871925,294.376625 C210.847761,290.764984 211.609581,286.850464 210.475117,282.808684" id="Fill-44"></path>
                        <path d="M242.680536,259.701816 C246.342107,258.044889 249.437718,255.640946 252.113628,253.062657 C254.789539,250.471642 257.059738,247.670647 259.064127,244.855654 C263.052556,239.204034 266.009539,233.505328 268.412007,228.124771 C273.177519,217.32039 275.772032,207.763158 277.499165,199.772497 C280.830062,183.713547 280.664726,173.857254 280.781733,168.237449 C280.794451,162.373304 280.690162,156.915119 279.671434,150.222511 C279.11692,146.893387 278.333479,143.225752 276.624152,139.304869 C274.908466,135.456524 272.16515,131.11441 266.985025,128.284145 C272.63318,130.123054 276.477893,134.243735 278.942681,138.09208 C281.44308,142.014236 282.831908,145.844764 283.83283,149.330418 C285.741833,156.356447 286.132282,162.159507 286.090312,168.311259 C285.950411,174.916058 284.865549,185.941871 280.087319,202.185348 C277.647968,210.276545 274.30308,219.705244 268.965249,230.090939 C266.280436,235.262789 263.081808,240.681524 258.952207,245.983179 C256.882955,248.625098 254.568242,251.227567 251.898691,253.625147 C249.232955,256.010001 246.190761,258.197602 242.680536,259.701816" id="Fill-50"></path>
                        <path d="M296.968828,262.250708 C294.346334,272.430242 289.26414,281.022843 282.107606,287.168232 C274.954888,293.339074 265.813042,296.654199 256.103965,296.98253 C261.449426,295.587759 265.851197,293.602502 269.66793,291.254554 C273.485935,288.895152 276.741796,286.178149 279.778903,283.006828 C282.800748,279.82278 285.606384,276.170416 288.282294,271.706132 C290.954389,267.241848 293.490399,261.95801 295.74788,255.463928 C299.222494,245.45874 299.768105,233.84753 298.90581,222.229957 C298.042244,210.562752 295.850898,198.784832 293.761297,187.154533 C292.416983,179.86253 291.466933,173.019755 289.590998,164.520054 C288.624414,160.283566 287.428903,155.622029 285.439776,150.467996 C284.437581,147.894797 283.225536,145.203246 281.625586,142.470972 C280.001471,139.770513 278.018703,136.952975 275.089701,134.671202 C278.400249,136.396848 281.01384,138.888601 283.233167,141.328177 C285.442319,143.80084 287.273741,146.311682 288.876234,148.734713 C292.069776,153.597321 294.395935,158.106146 296.329102,162.265006 C300.135661,170.615812 302.376608,177.632933 303.79596,185.346167 C305.534539,195.052293 305.317057,206.743677 304.105012,219.656758 C303.490723,226.120298 302.618254,232.90326 301.487606,239.991647 C300.335337,247.082579 298.964314,254.477662 296.968828,262.250708" id="Fill-52"></path>
                        <path d="M293.45517,178.175188 C294.677389,184.721447 294.962277,190.930467 295.084372,196.678805 C295.179758,202.433506 294.988985,207.758067 294.646865,212.667761 C293.95118,222.489695 292.643748,230.655974 291.104845,237.390578 C288.007963,250.872511 283.94704,258.562838 281.098162,262.661885 C279.607589,264.794764 277.965668,266.745661 276.014696,268.551482 C274.062451,270.354757 271.783349,272.023137 268.9828,273.358095 C266.186067,274.682873 262.839908,275.653867 258.993923,275.774764 C255.154297,275.905842 250.870805,275.162643 246.363474,273.372094 C251.142975,274.331635 255.322177,274.297275 258.792975,273.621524 C262.272676,272.947045 265.040157,271.67699 267.329434,270.251677 C271.883823,267.319604 274.750506,263.958666 277.510357,260.133227 C280.413923,256.010001 285.118387,248.603464 288.970731,235.387504 C290.888636,228.80434 292.592875,220.821315 293.649758,211.304806 C294.169933,206.546551 294.534945,201.406517 294.60108,195.877066 C294.637963,190.352706 294.494247,184.416023 293.45517,178.175188" id="Fill-54"></path>
                        <path d="M216.514993,35.031774 C223.270903,34.8803345 229.610928,36.0218574 235.037786,38.3087211 C240.478633,40.5777684 244.9618,43.9641592 248.273621,47.8150494 C251.596888,51.6710299 253.765342,55.9596947 254.960853,60.1210994 C256.162723,64.292685 256.391651,68.3433734 255.968135,71.9613776 C255.1122,79.2648338 251.697362,84.5893957 248.442773,87.9783317 C245.116963,91.4003554 241.956489,93.1781787 239.625242,94.2764332 C234.717287,96.5022121 229.736838,97.5190202 223.649905,97.580105 C217.561701,97.6004666 210.298334,96.5798408 200.940279,93.4696043 C210.747287,94.860557 217.800803,94.6785751 223.459132,94.0040967 C229.111102,93.2863498 233.460728,92.1397364 237.770928,90.215564 C240.053845,89.1491245 243.112574,87.6309117 246.283222,84.6263011 C249.396638,81.6573234 252.633421,76.9397921 253.552948,70.2230049 C254.486464,63.6309325 252.835641,54.9721565 246.570653,47.5745278 C243.471227,43.9068922 239.23988,40.6643053 234.095367,38.4423442 C228.958484,36.2025668 222.938958,35.0114124 216.514993,35.031774" id="Fill-58"></path>
                        <path d="M122.528224,87.8808505 C114.075706,91.6706558 106.958599,96.7076099 100.914908,101.962179 C94.8699451,107.238382 89.8551571,112.750016 85.5449576,118.087304 C76.9563541,128.807693 71.0958055,138.764522 66.5922893,147.220955 C62.1154813,155.70793 59.0580249,162.788681 56.8018155,168.503931 C54.5557805,174.226817 53.1351571,178.603291 52.22199,181.862422 C50.3600449,188.641567 49.0462544,195.105106 48.4268778,203.332471 C48.1508928,207.442971 48.0351571,212.010336 48.5820399,217.241998 C48.872015,219.853375 49.3209676,222.639098 50.2430374,225.527902 C50.7123392,226.964668 51.3037357,228.429432 52.1418653,229.826748 C52.9749077,231.211337 54.0941097,232.551386 55.5821397,233.405301 C54.2670773,232.295593 53.4632868,230.855009 52.9125885,229.427151 C52.3631621,227.990385 52.0541097,226.533257 51.8493466,225.119397 C51.4550823,222.281497 51.4703441,219.602672 51.5873516,217.104557 C51.8557057,212.101963 52.5704688,207.794209 53.2865037,203.911504 C54.7834364,196.149912 56.3388728,190.0427 58.1092469,183.47608 C59.0758304,179.950976 60.304409,175.239807 62.2121397,169.189863 C64.1300449,163.147554 66.714384,155.751198 70.6557556,147.046608 C74.6225636,138.372561 79.9006185,128.308834 87.8545835,117.650802 C91.8442843,112.345329 96.5233117,106.903688 102.198175,101.72293 C107.870494,96.563806 114.566628,91.6375682 122.528224,87.8808505" id="Fill-60"></path>
                        <path d="M83.4408579,237.326948 C79.1064938,235.564396 75.0964439,233.236809 72.0008329,230.079486 C68.8963192,226.971795 66.8563192,222.823116 66.8855711,218.605717 C66.8677656,214.381955 68.7437007,210.537428 71.1474414,207.570995 C73.558813,204.575293 76.5666683,202.271885 79.466419,200.407525 C82.1601347,198.544437 84.0818554,195.920334 85.4846733,193.21733 C86.8938504,190.497782 87.831182,187.667518 88.5790125,184.919973 C90.0377905,179.401976 90.7563691,174.186857 91.4139002,169.436239 C92.6501097,159.917184 93.5988878,152.146684 95.2217307,145.951663 C96.7860698,139.76046 98.9990374,135.135828 101.416768,132.126127 C103.773451,129.15715 106.430284,126.634855 109.495372,124.429437 C112.550284,122.21893 116.008364,120.42329 119.724623,118.705279 C123.400185,116.928728 127.480185,115.362156 130.755122,111.931225 C132.381781,110.213213 133.712105,107.942894 134.65198,105.223346 C135.584224,102.501252 136.152728,99.3795626 136.449062,95.9804458 C136.764474,99.391016 136.763202,102.625967 136.273551,105.66112 C135.782628,108.687365 134.724474,111.521447 133.123252,113.85667 C131.532204,116.199528 129.527815,117.990077 127.602279,119.429389 C125.661481,120.872518 123.780459,122.019131 122.045696,123.094479 C118.560908,125.22354 115.62809,127.101899 113.070459,129.178784 C110.516643,131.239124 108.276968,133.467449 106.261132,135.982108 C104.227491,138.49804 101.982728,142.567817 100.090259,148.575766 C98.1418304,154.56208 96.6321796,162.383485 94.6430524,172.004347 C93.6014314,176.802052 92.4644239,182.088436 90.416793,187.654792 C89.3777157,190.423971 88.0944489,193.274597 86.251581,195.96233 C85.3231521,197.298561 84.2522793,198.587706 83.0033516,199.741955 C82.3598105,200.310807 81.7200848,200.858026 80.9760698,201.35434 C80.266394,201.848109 79.5261945,202.252796 78.8177905,202.690571 C75.9981646,204.434034 73.2586633,206.61909 71.0825786,209.451899 C68.9242993,212.255439 67.3917556,215.860717 67.5977905,219.725606 C67.7567681,223.586677 69.7420798,227.370119 72.6621796,230.312372 C75.5860948,233.294076 79.3532269,235.573304 83.4408579,237.326948" id="Fill-62"></path>
                        <path d="M154.698796,88.0392893 C163.565928,95.6163547 170.366352,104.217864 175.363334,112.895729 C180.374307,121.585047 183.621264,130.341814 185.601489,138.614992 C189.544132,155.232613 188.573733,169.742808 185.919444,181.060047 C183.21301,192.446007 178.807424,200.758636 174.663833,206.718225 C170.484631,212.700722 166.557249,216.423079 163.642237,219.066271 C157.495529,224.474825 151.039768,228.707495 142.006027,232.27205 C132.97483,235.704255 121.03498,238.421257 104.046002,237.142293 C120.575853,241.474227 133.657798,240.774296 143.922661,238.147648 C154.215504,235.407739 161.917648,230.932001 168.808372,224.784067 C172.476302,221.44349 176.958197,216.447259 181.142486,209.041994 C185.300067,201.66091 189.129519,191.827523 190.794332,179.457843 C192.438796,167.14543 191.973309,152.208914 186.897474,135.951438 C184.352561,127.851334 180.632486,119.454713 175.359519,111.251529 C170.096726,103.058524 163.261963,95.0704089 154.698796,88.0392893" id="Fill-64"></path>
                        <path d="M267.083591,61.2425153 C263.341895,57.3814444 259.507357,54.1172232 255.665187,51.1469729 C251.816658,48.1894485 247.943965,45.5309854 243.922469,43.1524944 C239.899701,40.7829117 235.729401,38.6691217 231.211895,37.0860063 C226.705835,35.5397962 221.787706,34.4148171 216.491845,34.9925779 C222.25192,33.0964026 227.942045,33.4094624 233.021696,34.3270076 C238.143317,35.3005473 242.847781,37.0274666 247.432693,39.3690522 C252.007431,41.7297267 256.489327,44.7305195 260.96995,48.7290313 C265.40606,52.7428143 269.971895,57.7454082 273.688155,64.5869103 C276.470898,69.8198449 278.911521,75.6470841 279.263815,82.2137045 C279.434239,85.4753804 279.005636,88.878315 277.896608,92.1387184 C276.804115,95.4042121 275.042643,98.4864513 272.880549,101.244177 C270.712095,104.001903 268.154464,106.449115 265.397157,108.608718 C264.709102,109.150846 264.005786,109.673885 263.294838,110.179108 C262.582618,110.68433 261.778828,111.218823 261.1302,111.642599 C259.624364,112.612321 258.024414,113.52223 256.329077,114.307425 C252.952394,115.88545 249.12803,116.960798 245.204464,117.220408 C241.284713,117.482564 237.364963,116.960798 233.802594,115.947807 C229.313067,114.680297 225.46581,112.79812 221.716484,110.712328 C217.972244,108.611264 214.325935,106.244226 210.279002,103.695207 C206.230798,101.150005 201.783242,98.4024597 196.405985,95.6650953 C191.031272,92.9353665 184.706509,90.2209089 176.953491,88.0600327 C193.052195,89.5947893 204.54182,93.5220355 213.706559,96.810436 C222.872569,100.154831 229.835786,103.32488 236.774838,105.313955 C241.132095,106.531834 245.551671,107.364115 250.678379,106.48093 C253.257631,106.046973 255.871222,105.213419 258.736633,103.934455 C261.513017,102.715304 264.325012,101.214908 266.904264,99.2881898 C269.484788,97.3640174 271.863092,94.9842538 273.611845,92.0610897 C275.369501,89.1519242 276.421297,85.6751787 276.468354,82.0139061 C276.592993,74.6226405 272.762269,67.0761175 267.083591,61.2425153" id="Fill-66"></path>
                        <path d="M141.575771,259.658929 C147.517716,260.885716 153.417691,261.230591 159.000983,260.587928 C164.583002,259.936356 169.820359,258.321426 174.430708,255.948025 C183.716269,251.197406 190.364075,243.848136 195.128314,236.47596 C199.901456,229.032517 202.957641,221.433818 205.108289,214.333978 C207.248763,207.215049 208.477342,200.54153 209.213726,194.450862 C210.662329,182.24662 210.231182,172.387782 209.518963,164.649096 C208.767317,156.897684 207.654474,151.219339 206.850683,147.050299 C205.110833,138.400431 203.115347,130.432677 199.458863,120.824541 C197.590559,116.039562 195.25804,110.84735 191.816494,105.252997 C188.359686,99.6930042 183.791307,93.6405146 176.91203,88.0512517 C184.721007,92.3310083 190.540858,97.7408345 195.039287,102.957225 C199.538988,108.214339 202.771955,113.355647 205.328314,118.187712 C210.373626,127.911655 212.938888,136.362997 214.73597,145.544812 C215.673302,150.487594 216.492354,157.158567 216.595372,165.813526 C216.670409,174.455758 216.073925,185.125243 213.427267,197.751989 C212.079137,204.053908 210.210833,210.841961 207.406469,217.939256 C204.586843,225.014917 200.859137,232.458359 195.465347,239.542928 C190.103352,246.574047 182.894673,253.32774 173.483202,257.370793 C168.809262,259.394228 163.634224,260.683373 158.227716,261.057517 C152.818663,261.458387 147.198489,260.927712 141.575771,259.658929" id="Fill-68"></path>
                        <path d="M203.24291,96.2633449 C212.529743,100.901975 220.37306,106.825932 226.124232,113.648345 C231.912287,120.447851 235.536975,128.019826 237.477773,135.305466 C239.436377,142.610195 239.842087,149.601864 239.576277,155.93178 C239.297748,162.274423 238.329893,167.994764 237.159818,173.111892 C234.770067,183.353783 231.640117,191.218456 229.012536,197.381662 C226.3468,203.543595 224.084232,208.009152 222.475379,211.328095 C219.096152,218.207775 215.865728,224.569506 211.631838,232.499082 C209.506626,236.459416 207.11306,240.802803 204.205678,245.735403 C201.284307,250.659096 197.887274,256.196182 193.461339,262.346662 C198.944157,257.062823 203.296327,252.111134 207.002411,247.640487 C210.699594,243.154569 213.72907,239.110243 216.347748,235.343345 C221.567299,227.799367 225.209793,221.42491 228.660242,214.312344 C230.498022,210.483088 232.717349,205.269242 235.077848,198.30557 C237.402736,191.341898 239.961638,182.610584 241.508172,171.680216 C242.253459,166.219485 242.720217,160.200083 242.441688,153.664006 C242.1568,147.144471 241.11518,140.068811 238.555005,132.893887 C236.016451,125.729145 231.853783,118.521134 225.850791,112.210306 C219.875778,105.875299 212.150741,100.503651 203.24291,96.2633449" id="Fill-70"></path>
                        <path d="M79.410586,201.335506 C86.324202,198.338531 93.1754988,196.745234 99.3896135,194.949595 C105.631708,193.217585 111.357444,191.505937 116.487968,189.583037 C126.768092,185.791959 134.598691,181.020978 139.716496,175.907668 C144.890262,170.817265 147.409738,165.678503 148.859613,161.524734 C150.291683,157.331514 150.741908,154.03675 151.155249,151.626444 C151.942506,146.588218 152.37111,141.768878 152.614027,135.486048 C152.81116,129.203218 152.765374,121.405992 151.489738,110.419629 C156.54904,120.317919 159.185524,128.117689 160.527294,134.848475 C161.834726,141.590714 161.927569,147.280513 160.913928,153.325366 C160.336521,156.5565 159.11303,160.892251 156.340461,165.959748 C153.580611,170.994156 149.033853,176.6865 142.180012,181.386215 C135.356696,186.134289 126.448865,189.72175 115.885125,192.415846 C110.599439,193.788983 104.886421,194.963593 98.7689651,196.224741 C92.6731297,197.543155 86.0800125,198.743218 79.410586,201.335506" id="Fill-72"></path>
                        <path d="M138.80104,0.126623783 C153.027623,0.652207928 165.548696,4.4165612 176.385878,10.8368324 C179.085953,12.4606711 181.677923,14.2843081 184.096925,16.35992 C186.505753,18.4508032 188.784855,20.7834805 190.584481,23.6048366 C191.474756,25.0174235 192.244207,26.5649061 192.667723,28.2778268 C193.097599,29.970386 193.101414,31.8920132 192.405728,33.5603929 C191.71513,35.2300452 190.447125,36.5013734 189.058297,37.3947392 C187.658022,38.2995584 186.114032,38.8913178 184.543334,39.3558171 C186.17508,38.4688143 187.658022,37.4329172 188.76705,36.20613 C189.879893,34.981888 190.519618,33.5603929 190.555229,32.2025278 C190.603559,29.4549826 188.727623,27.0204972 186.721963,25.0250591 C182.524955,21.0278199 177.400791,18.209009 172.036252,15.5963595 C166.611938,13.0244332 160.736127,10.7388421 153.949693,8.67722879 C147.159444,6.63724965 139.431863,4.81106745 130.209893,3.74462796 C116.036726,2.09279207 100.400965,5.15085188 86.4427357,11.8447323 C82.9579476,13.506749 79.5240324,15.4054694 76.2808903,17.4390855 C75.3639077,18.0092107 74.6682219,18.4533484 73.9661771,18.9712969 C73.265404,19.4841551 72.5887955,20.0224652 71.9427107,20.5862274 C70.6479975,21.7137517 69.4639327,22.9392663 68.4095935,24.2525904 C64.1757032,29.5071592 61.9690948,36.0814152 61.5761022,42.7982024 C61.3319127,47.0092385 61.6931097,51.1502816 62.789419,55.3485918 C63.9111646,59.5278129 65.7718379,63.8152051 69.0544065,67.9167976 C72.3242569,71.9891203 77.1253791,75.8781885 83.8990948,78.4081189 C90.6435586,80.9558658 99.2919377,82.0108519 109.268097,80.8413317 C99.6353292,83.7772218 90.6066758,84.6349548 82.5674988,83.445073 C74.5283217,82.2895515 67.5994439,79.0673261 62.2997681,74.7544819 C56.9771995,70.4352747 53.2342319,65.1412552 50.8597431,59.5748992 C48.4992444,53.9869089 47.4512643,48.0616794 47.8048304,41.9684666 C48.239793,34.3481328 51.3303167,26.0189604 57.370192,19.407799 C60.3640574,16.1117629 64.0586958,13.3005876 68.1755786,11.2364291 C69.1968504,10.7235709 70.2728105,10.2463456 71.3195187,9.83147775 L74.3388204,8.68359179 C76.3851796,7.9353025 78.4811397,7.24046245 80.6165262,6.59143602 C97.7708404,1.38904381 117.19917,-0.537673853 138.80104,0.126623783" id="Fill-74"></path>
                        <path d="M141.542195,8.3625146 C132.663616,7.21462865 124.0801,8.72011544 117.439925,12.5773686 C110.757781,16.3900807 106.179227,22.1829597 103.512219,28.0534673 C100.809601,33.9570626 99.8646384,39.9599207 99.9536658,45.3493853 C100.046509,50.7592114 101.188603,55.5989124 102.85596,59.6737803 C106.2301,67.8858734 111.503067,72.8897399 115.998953,75.9477997 C120.572419,79.0236759 124.504888,80.3713602 127.36394,81.3258108 C133.374564,83.2028971 139.287257,84.1560751 146.86985,84.363509 C154.446085,84.5124033 163.792693,83.8786481 176.515985,80.8231335 C164.498554,86.1286064 155.023491,88.3556579 146.999576,89.1166732 C138.966758,89.821694 132.307506,89.1243088 125.514713,86.9608873 C121.90783,85.7493713 117.092718,83.6572156 111.969825,79.383822 C106.910524,75.1473338 101.586683,68.4445452 98.9654613,59.001847 C97.6618454,54.3123129 97.0500998,48.9915688 97.5473815,43.3081335 C98.0484788,37.6425146 99.6700499,31.5760264 102.952618,25.8429597 C106.21611,20.1417079 111.289401,14.7891488 118.089825,11.4943853 C124.85591,8.14489986 133.132918,7.11918359 141.542195,8.3625146" id="Fill-76"></path>
                        <path d="M226.082262,54.8385334 C223.965953,49.8219409 221.132337,45.5281857 218.093958,41.6187559 C215.032686,37.7182344 211.713234,34.2122191 208.124157,31.0090828 C204.529993,27.8212177 200.656027,24.922233 196.310217,22.524653 C191.96695,20.1537976 187.118771,18.2245348 181.634681,17.6595 C187.85897,16.9824764 193.583434,18.1761759 198.635105,20.0176293 C203.708397,21.9036238 208.237349,24.5277267 212.452162,27.8644861 C216.652985,31.2203345 220.593085,35.3066558 224.048621,40.5904944 C225.761763,43.2362316 227.350267,46.1899381 228.606825,49.5406961 C229.855753,52.8812733 230.793085,56.6405362 230.930441,60.7561273 C231.192436,67.0351398 229.607748,73.720112 225.698172,79.280105 C223.776451,82.0671008 221.419768,84.5626711 218.733683,86.7871773 C216.113733,88.9633248 213.155479,90.9625807 209.893259,92.5278797 C203.40316,95.71829 195.468272,97.0227058 187.799195,95.6012107 C180.131389,94.23571 172.920167,90.3708213 167.395379,84.9088185 C163.933484,81.476614 161.210516,77.5493679 159.206127,73.0812663 C157.225903,68.6169826 155.921015,63.5685751 155.884132,57.9233178 C155.84089,52.3200563 157.181389,46.0245 160.821339,40.2138046 C164.420591,34.3891106 170.277324,29.3559743 177.829394,25.8016001 C170.979369,30.6807517 166.618297,36.5894374 164.669868,42.1799729 C162.679469,47.79087 162.867698,52.9054527 163.821564,57.1839367 C164.79705,61.4878727 166.540716,65.0626085 168.519668,68.2275668 C170.524057,71.3874346 172.813334,74.1540688 175.432012,76.7514471 C178.722212,79.9863985 182.650865,83.2506196 187.633858,85.5794791 C192.568521,87.9057935 198.683434,89.1758491 205.232037,87.9706961 C208.490441,87.3840271 211.808621,86.1916001 214.980541,84.4175946 C218.148646,82.6537698 221.160317,80.3427267 223.522087,77.3521147 C225.888945,74.3793192 227.506701,70.6900494 227.944207,66.7386238 C228.394431,62.7884708 227.686027,58.6601537 226.082262,54.8385334" id="Fill-78"></path>
                        <path d="M283.464511,313.241787 C281.270621,313.962079 279.207728,314.826175 277.381394,315.933338 C275.574137,317.036683 273.923314,318.372914 272.982167,320.042566 C272.515409,320.868484 272.262317,321.786029 272.372965,322.638672 C272.468352,323.492587 272.928751,324.244694 273.54304,324.814819 C274.771618,325.966523 276.514012,326.462837 278.092342,326.983331 C281.299873,327.936509 284.398027,328.380647 287.240546,329.055125 C290.076706,329.692698 292.736082,330.59879 294.918526,331.781036 C297.11496,333.002733 299.161319,334.239701 300.445858,336.571106 C301.084312,337.718992 301.240746,339.252476 300.913888,340.470355 C300.595933,341.694597 300.001993,342.613414 299.425858,343.34007 C298.245608,344.797197 297.064087,345.677837 296.039,346.413401 C295.544262,346.762093 295.019,347.105695 294.544611,347.372942 C293.972292,347.691092 293.523339,347.894708 293.065484,348.079235 C289.313613,349.513456 285.942017,349.527455 282.068052,349.871057 C280.14506,350.059402 278.040197,350.237566 275.969673,351.176745 C274.942042,351.651426 273.934761,352.366627 273.106805,353.453428 C272.272491,354.530049 271.658202,355.968088 271.267753,357.609743 C271.206706,355.921001 271.415284,354.280619 272.035933,352.823491 C272.636232,351.361273 273.65496,350.139576 274.775434,349.258936 C277.062167,347.491293 279.445559,346.811725 281.44486,346.249235 C285.484162,345.20443 288.643364,344.877371 291.389224,343.812204 C291.740247,343.676036 292.157404,343.494054 292.48299,343.334979 C292.902691,343.118637 293.388526,342.839937 293.870546,342.556147 C294.828227,341.980932 295.896556,341.259367 296.67491,340.38509 C297.413838,339.442093 297.776307,338.822337 297.085708,337.510285 C296.363314,336.214777 294.697229,334.841641 292.757703,333.635216 C290.839798,332.431335 288.47294,331.474339 285.76905,330.640786 C283.075334,329.786871 280.024237,329.075487 276.870122,327.786342 C275.336307,327.128408 273.582466,326.40557 272.437828,324.79064 C271.885858,323.997809 271.60097,322.983547 271.711618,321.993463 C271.83117,321.00847 272.266132,320.092197 272.857529,319.30573 C274.041594,317.723887 275.725484,316.549277 277.537828,315.580828 C279.360347,314.613651 281.36092,313.862816 283.464511,313.241787" id="Fill-80"></path>
                        <path d="M260.305933,305.793127 C257.631294,305.712953 255.110546,306.272898 253.196456,307.498412 C251.267105,308.690839 250.056332,310.550109 249.748551,312.366111 C249.438227,314.192293 249.969848,315.882307 250.863938,317.069643 C251.310347,317.670311 251.83688,318.162807 252.385035,318.563677 C252.653389,318.772383 252.94718,318.939094 253.228252,319.104532 L254.151594,319.628844 C256.620197,321.055429 258.516481,322.417112 259.881145,323.935325 C260.553938,324.698885 261.084287,325.515895 261.411145,326.36472 C261.731643,327.21609 261.825758,328.07764 261.75708,328.780116 C261.605733,330.266514 260.899873,331.441124 260.173663,332.324309 C259.439823,333.227856 258.600421,333.941785 257.869125,334.669713 C257.50284,335.029859 257.186157,335.395095 257.00683,335.718336 C256.835135,336.026305 256.75501,336.343183 256.973763,336.895492 C257.44688,337.988656 258.775933,339.195081 260.332641,340.367147 C258.437628,339.769024 256.781718,339.198899 255.514985,337.863941 C254.881618,337.202188 254.514062,336.044122 254.716282,335.094761 C254.887978,334.160672 255.28097,333.486194 255.619274,332.922432 C256.327678,331.807634 256.97885,331.023711 257.440521,330.289421 C257.916182,329.561493 258.168002,328.955735 258.226506,328.425061 C258.283738,327.890568 258.212516,326.978113 257.254835,325.617703 C256.336581,324.2802 254.725185,322.719991 252.541469,321.055429 C251.372666,320.224421 250.051244,318.970909 249.290696,317.319073 C248.507254,315.674873 248.315209,313.58399 249.012167,311.643273 C249.677329,309.691104 251.258202,308.004908 253.284212,306.994462 C255.325484,305.978927 257.769923,305.625144 260.305933,305.793127" id="Fill-82"></path>
                        <path d="M164.816254,262.422891 C163.571142,269.218579 163.530444,275.28125 164.779372,280.126041 C165.992688,284.99883 168.537601,288.396674 171.133387,290.421382 C173.740618,292.479177 176.281716,293.409449 178.297551,294.033023 C180.351541,294.665506 181.833212,294.84367 183.223312,295.272536 C185.857252,296.136632 188.360195,297.190346 190.837701,299.783906 C192.010319,301.060325 193.222364,303.08885 193.018873,305.495339 C192.803935,307.881465 191.304459,309.873086 189.386554,311.516013 C190.653287,309.282599 191.178549,307.09118 190.767751,305.575513 C190.370943,304.067481 189.375107,303.195749 188.353835,302.48182 C186.238798,301.107411 184.100868,300.382029 181.853561,299.635012 C180.766155,299.286319 178.681641,298.717467 176.421616,297.582307 C174.128524,296.447147 171.325431,294.754588 168.756354,291.847967 C166.179646,288.971889 164.144733,284.762126 163.51391,279.702265 C162.839845,274.639859 163.386728,268.830436 164.816254,262.422891" id="Fill-84"></path>
                        <path d="M22.3245436,308.01967 C24.5667631,316.926603 42.7270873,323.077083 49.1268878,326.831255 C45.5212768,323.950087 27.1854414,324.473126 25.0042693,316.696262 C24.2182843,314.157424 23.9003292,313.130435 22.3245436,308.01967" id="Fill-121"></path>
                        <path d="M38.9197656,324.104199 C43.91802,325.936744 47.4943791,332.720979 48.1315611,335.831216 C48.8743042,335.849032 49.9757007,335.651779 50.760414,335.577968 C48.5588928,332.966591 45.2597905,325.936744 38.9197656,324.104199" id="Fill-123"></path>
                    </g>
                </g>
            </g>
        </g>
    </g>
</svg>