<?xml version="1.0" encoding="UTF-8"?>
<svg width="48px" height="49px" viewBox="0 0 48 49" version="1.1" xmlns="http://www.w3.org/2000/svg" xmlns:xlink="http://www.w3.org/1999/xlink">
    <!-- Generator: Sketch 46.2 (44496) - http://www.bohemiancoding.com/sketch -->
    <title>images/feuille</title>
    <desc>Created with Sketch.</desc>
    <defs></defs>
    <g id="Site-web-Copy" stroke="none" stroke-width="1" fill="none" fill-rule="evenodd">
        <g id="Desktop" transform="translate(-119.000000, -1517.000000)" fill-rule="nonzero" fill="#F9FCF9">
            <g id="Leaf_icon_15" transform="translate(99.000000, 1497.000000)">
                <path d="M32.0453338,68.8168789 C28.446471,68.5608789 26.5650208,67.2636288 25.5986832,65.8240037 C25.7838958,62.3192534 26.3205083,57.954003 27.8285959,53.9923777 C28.693171,51.7237525 29.9201336,49.6700024 31.4252837,48.1603773 C33.0709588,46.3608771 34.591584,44.976252 36.1237091,43.8345019 C39.1479593,41.5946267 41.8010845,40.6188766 42.6407096,40.2756266 C43.4899597,39.9480016 45.0127098,39.3321265 46.8553349,38.6463765 C48.6920851,38.0173764 50.9168353,37.1071264 52.8158354,35.9942513 C56.7090857,33.8653761 59.936086,31.4630009 59.930961,31.4621259 C59.937461,31.4630009 56.4872107,33.3752511 52.4783354,34.9625012 C50.4555852,35.8247513 48.3889601,36.3916263 46.4599599,36.8381263 C44.5617098,37.3263764 42.9584596,37.8235014 42.0755846,38.1650015 C40.4247094,38.8542515 30.5336211,42.0192518 25.4815457,52.6287526 C24.3387831,55.3386278 23.6220706,58.1418781 23.157933,60.7686283 C22.0158955,60.1240032 20.5942028,58.8765031 20.2069328,56.5676279 C19.5319578,52.5448776 19.907514,40.4738766 30.8462212,33.7683761 C41.7857095,27.0637006 53.9989605,28.4037507 59.843836,26.4373505 C65.6879614,24.4709379 68.0108366,20 68.0108366,20 C68.0108366,20 63.1403362,65.5086286 32.0453338,68.8168789 Z" id="images/feuille"></path>
            </g>
        </g>
    </g>
</svg>