<?xml version="1.0" encoding="UTF-8"?>
<svg width="149px" height="94px" viewBox="0 0 149 94" version="1.1" xmlns="http://www.w3.org/2000/svg" xmlns:xlink="http://www.w3.org/1999/xlink">
    <!-- Generator: Sketch 47.1 (45422) - http://www.bohemiancoding.com/sketch -->
    <title>images/logo_couleur</title>
    <desc>Created with Sketch.</desc>
    <defs></defs>
    <g id="Site-web-Copy" stroke="none" stroke-width="1" fill="none" fill-rule="evenodd">
        <g id="Desktop" transform="translate(-656.000000, -5415.000000)">
            <g id="Footer" transform="translate(657.000000, 5416.000000)">
                <g id="images/logo_couleur">
                    <path d="M113,77.1475282 C127.334404,80.8568415 138.587369,79.6163177 147,67.6850612 C142.587863,64.5592354 137.82793,63.4159596 134.381894,63 C139.46778,65.5186392 140.708589,67.1023909 141.371417,68.0111277 C129.389257,78.3676218 125.041807,75.2270863 113,77.1475282" id="Fill-115" fill="#50A9EC"></path>
                    <path d="M113,77.1475282 C127.334404,80.8568415 138.587369,79.6163177 147,67.6850612 C142.587863,64.5592354 137.82793,63.4159596 134.381894,63 C139.46778,65.5186392 140.708589,67.1023909 141.371417,68.0111277 C129.389257,78.3676218 125.041807,75.2270863 113,77.1475282 Z" id="Stroke-116" stroke="#50A9EC" stroke-width="0.25"></path>
                    <path d="M77.8251865,11.6085471 C97.1155994,28.7732269 93.1017188,49.263876 78.1029725,68 C82.9994821,64.154454 97.1852583,46.1667578 94.7132175,32.9078034 C92.8162873,22.7451195 82.7531275,10.8448625 74.012637,6 C65.2721465,10.8448625 55.2081373,22.7451195 53.3129061,32.9078034 C50.8383168,46.1667578 63.6623468,60.8505222 69.9214521,68 C55.2701507,49.2791327 51.9375679,29.909854 69.9766695,11.2169574 C72.4937336,8.86402909 73.8316938,8.1011921 73.8316938,8.1011921 C73.8316938,8.1011921 76.1397814,10.1735659 77.8251865,11.6085471" id="Fill-117" fill="#45CB85"></path>
                    <path d="M77.8251865,11.6085471 C97.1155994,28.7732269 93.1017188,49.263876 78.1029725,68 C82.9994821,64.154454 97.1852583,46.1667578 94.7132175,32.9078034 C92.8162873,22.7451195 82.7531275,10.8448625 74.012637,6 C65.2721465,10.8448625 55.2081373,22.7451195 53.3129061,32.9078034 C50.8383168,46.1667578 63.6623468,60.8505222 69.9214521,68 C55.2701507,49.2791327 51.9375679,29.909854 69.9766695,11.2169574 C72.4937336,8.86402909 73.8316938,8.1011921 73.8316938,8.1011921 C73.8316938,8.1011921 76.1397814,10.1735659 77.8251865,11.6085471 Z" id="Stroke-118" stroke="#58BC82" stroke-width="0.25"></path>
                    <path d="M68,69.1033574 C43.9949241,36.4209574 21.2095924,59.3358105 7,39 C7.80861358,66.1380566 27.3134307,81.8071502 53.1822415,73.9888399 C35.3705656,76.4516632 18.3709152,66.0696923 10.0357128,46.1816679 C18.5815983,53.0847514 31.5705936,51.730284 42.4945536,54.316163 C52.0964133,56.5892754 59.7748305,62.6301144 65.9776131,70.0296934 C66.592603,69.5930166 67.2084458,69.4186876 68,69.1033574" id="Fill-119" fill="#45CB85"></path>
                    <path d="M68,69.1033574 C43.9949241,36.4209574 21.2095924,59.3358105 7,39 C7.80861358,66.1380566 27.3134307,81.8071502 53.1822415,73.9888399 C35.3705656,76.4516632 18.3709152,66.0696923 10.0357128,46.1816679 C18.5815983,53.0847514 31.5705936,51.730284 42.4945536,54.316163 C52.0964133,56.5892754 59.7748305,62.6301144 65.9776131,70.0296934 C66.592603,69.5930166 67.2084458,69.4186876 68,69.1033574 Z" id="Stroke-120" stroke="#58BC82" stroke-width="0.25"></path>
                    <path d="M51.3379976,0 C55.3412041,2.77825895 59.6755285,9.66732005 61,14.4392883 C58.5561969,11.7546307 54.4831918,6.8380058 51.9372444,5.65777758 C37.0718396,25.1226087 44.7250035,40.3370865 58.4625646,56 C36.3253348,42.2644239 34.2781922,19.1602012 51.3379976,0" id="Fill-121" fill="#E08DAC"></path>
                    <path d="M51.3379976,0 C55.3412041,2.77825895 59.6755285,9.66732005 61,14.4392883 C58.5561969,11.7546307 54.4831918,6.8380058 51.9372444,5.65777758 C37.0718396,25.1226087 44.7250035,40.3370865 58.4625646,56 C36.3253348,42.2644239 34.2781922,19.1602012 51.3379976,0 Z" id="Stroke-122" stroke="#E08DAC" stroke-width="0.25"></path>
                    <path d="M74,70.2615357 C74,95.6511488 43.6011981,99.5630007 37,77.9544715 C50.0792554,83.8089143 64.4756932,70.745893 71.7979021,70 C64.0621098,76.1650165 53.4312339,82.5158611 43.7268867,82.3524012 C55.2817435,93.2465687 70.4450514,80.8193201 73.8352461,70.1987327 C73.8895979,70.2202406 73.9464974,70.2374469 74,70.2615357" id="Fill-123" fill="#E08DAC"></path>
                    <path d="M74,70.2615357 C74,95.6511488 43.6011981,99.5630007 37,77.9544715 C50.0792554,83.8089143 64.4756932,70.745893 71.7979021,70 C64.0621098,76.1650165 53.4312339,82.5158611 43.7268867,82.3524012 C55.2817435,93.2465687 70.4450514,80.8193201 73.8352461,70.1987327 C73.8895979,70.2202406 73.9464974,70.2374469 74,70.2615357 Z" id="Stroke-124" stroke="#E08DAC" stroke-width="0.25"></path>
                    <path d="M73,70.2615357 C73,95.6511488 103.39865,99.5630007 110,77.9544715 C96.9212936,83.8089143 82.5236762,70.745893 75.2021484,70 C82.9381183,76.1650165 94.2656368,82.4298296 103.971056,82.2663697 C92.4150848,93.1605372 76.5550302,80.8193201 73.165607,70.1987327 C73.1095554,70.2202406 73.0535038,70.2374469 73,70.2615357" id="Fill-125" fill="#E08DAC"></path>
                    <path d="M73,70.2615357 C73,95.6511488 103.39865,99.5630007 110,77.9544715 C96.9212936,83.8089143 82.5236762,70.745893 75.2021484,70 C82.9381183,76.1650165 94.2656368,82.4298296 103.971056,82.2663697 C92.4150848,93.1605372 76.5550302,80.8193201 73.165607,70.1987327 C73.1095554,70.2202406 73.0535038,70.2374469 73,70.2615357 Z" id="Stroke-126" stroke="#E08DAC" stroke-width="0.25"></path>
                    <path d="M19.2376115,14 C25.9485374,15.8536163 36.2809211,21.7805156 38.9161059,25.8070687 C33.6423206,22.295409 27.0722908,21.1548552 23.9939236,20.4262161 C25.6650372,39.2946803 35.5064192,43.2667152 49,52 C28.9235807,47.7761432 17.1532025,34.9012115 19.2376115,14" id="Fill-127" fill="#50A9EC"></path>
                    <path d="M19.2376115,14 C25.9485374,15.8536163 36.2809211,21.7805156 38.9161059,25.8070687 C33.6423206,22.295409 27.0722908,21.1548552 23.9939236,20.4262161 C25.6650372,39.2946803 35.5064192,43.2667152 49,52 C28.9235807,47.7761432 17.1532025,34.9012115 19.2376115,14 Z" id="Stroke-128" stroke="#50A9EC" stroke-width="0.25"></path>
                    <path d="M34,77.1475282 C19.6659501,80.8568415 8.4124231,79.6163177 0,67.6850612 C4.41202777,64.5592354 9.17184296,63.4159596 12.6177946,63 C7.53371383,65.5186392 4.70773108,67.3099621 4.04491883,68.2186989 C16.0267833,78.575193 21.9584908,75.2270863 34,77.1475282" id="Fill-129" fill="#50A9EC"></path>
                    <path d="M34,77.1475282 C19.6659501,80.8568415 8.4124231,79.6163177 0,67.6850612 C4.41202777,64.5592354 9.17184296,63.4159596 12.6177946,63 C7.53371383,65.5186392 4.70773108,67.3099621 4.04491883,68.2186989 C16.0267833,78.575193 21.9584908,75.2270863 34,77.1475282 Z" id="Stroke-130" stroke="#50A9EC" stroke-width="0.25"></path>
                    <path d="M12.2500918,27 C22.337006,36.2706317 22.1756775,40.2217054 35,48 C17.130495,46.4152095 10.5850436,48.3314366 12.2500918,27" id="Fill-131" fill-opacity="0.2" fill="#47594D"></path>
                    <path d="M127.762389,14 C121.050609,15.8536163 110.717371,21.7805156 108.083894,25.8070687 C113.355972,22.295409 119.926855,21.1548552 123.005222,20.4262161 C121.334963,39.2946803 111.492727,43.2667152 98,52 C118.076419,47.7761432 129.846798,34.9012115 127.762389,14" id="Fill-132" fill="#50A9EC"></path>
                    <path d="M127.762389,14 C121.050609,15.8536163 110.717371,21.7805156 108.083894,25.8070687 C113.355972,22.295409 119.926855,21.1548552 123.005222,20.4262161 C121.334963,39.2946803 111.492727,43.2667152 98,52 C118.076419,47.7761432 129.846798,34.9012115 127.762389,14 Z" id="Stroke-133" stroke="#50A9EC" stroke-width="0.25"></path>
                    <path d="M134.749679,27 C124.662866,36.2706317 124.824193,40.2217054 112,48 C129.870188,46.4152095 136.415573,48.3314366 134.749679,27" id="Fill-134" fill-opacity="0.2" fill="#47594D"></path>
                    <path d="M95.6612194,0 C91.6588358,2.77825895 87.3244808,9.66732005 86,14.4392883 C88.4429691,11.7546307 92.842016,6.8380058 95.3896838,5.65777758 C110.254342,25.1226087 102.275111,40.3370865 88.5374533,56 C110.67484,42.2644239 112.721997,19.1602012 95.6612194,0" id="Fill-135" fill="#E08DAC"></path>
                    <path d="M95.6612194,0 C91.6588358,2.77825895 87.3244808,9.66732005 86,14.4392883 C88.4429691,11.7546307 92.842016,6.8380058 95.3896838,5.65777758 C110.254342,25.1226087 102.275111,40.3370865 88.5374533,56 C110.67484,42.2644239 112.721997,19.1602012 95.6612194,0 Z" id="Stroke-136" stroke="#E08DAC" stroke-width="0.25"></path>
                    <path d="M78,69.1033574 C102.005412,36.4209574 124.791062,59.3358105 139,39 C138.192228,66.1380566 118.687138,81.8071502 92.8179657,73.9888399 C110.629891,76.4516632 127.629779,66.0696923 135.965098,46.1816679 C127.419093,53.0847514 114.429916,51.730284 103.505803,54.316163 C93.903809,56.5892754 86.2252846,62.6301144 80.0224152,70.0296934 C79.4074167,69.5930166 78.7907123,69.4186876 78,69.1033574" id="Fill-137" fill="#45CB85"></path>
                    <path d="M78,69.1033574 C102.005412,36.4209574 124.791062,59.3358105 139,39 C138.192228,66.1380566 118.687138,81.8071502 92.8179657,73.9888399 C110.629891,76.4516632 127.629779,66.0696923 135.965098,46.1816679 C127.419093,53.0847514 114.429916,51.730284 103.505803,54.316163 C93.903809,56.5892754 86.2252846,62.6301144 80.0224152,70.0296934 C79.4074167,69.5930166 78.7907123,69.4186876 78,69.1033574 Z" id="Stroke-138" stroke="#58BC82" stroke-width="0.25"></path>
                </g>
            </g>
        </g>
    </g>
</svg>