<?xml version="1.0" encoding="UTF-8"?>
<svg width="438px" height="212px" viewBox="0 0 438 212" version="1.1" xmlns="http://www.w3.org/2000/svg" xmlns:xlink="http://www.w3.org/1999/xlink">
    <!-- Generator: Sketch 46.2 (44496) - http://www.bohemiancoding.com/sketch -->
    <title>images/logotype_blanc</title>
    <desc>Created with Sketch.</desc>
    <defs></defs>
    <g id="Site-web-Copy" stroke="none" stroke-width="1" fill="none" fill-rule="evenodd">
        <g id="Desktop" transform="translate(-708.000000, -315.000000)">
            <g id="Group-15" transform="translate(-27.000000, -19.000000)">
                <g id="Group-2" transform="translate(204.000000, 294.000000)">
                    <g id="images/logotype_blanc" transform="translate(531.000000, 40.000000)">
                        <path d="M286.964685,146.563223 C298.468891,146.563223 314.743133,140.004946 325.966748,127.743821 C329.614423,124.036969 329.053243,118.619262 326.527929,120.900402 C320.354941,126.032966 310.534277,130.880388 303.800108,130.880388 C287.245276,130.880388 286.403504,116.338122 286.964685,95.522723 C287.525866,78.9844605 288.648227,63.5867679 289.489999,55.0324942 C289.770589,52.4662121 290.33177,51.8959271 292.295902,52.1810696 C294.821216,52.1810696 300.433024,52.4662121 306.044831,52.4662121 C316.426675,52.4662121 328.211471,50.1850724 334.66505,43.3416534 C337.751544,40.2050864 336.909773,39.0645166 334.945641,39.349659 C332.700917,39.6348015 327.3697,40.4902289 319.79376,40.2050864 C311.095458,40.2050864 301.835975,39.6348015 293.137674,38.7793741 C291.173541,38.4942317 290.892951,37.9239468 291.173541,35.9279496 C292.015312,29.6548155 292.576493,20.2451144 292.857083,14.8274078 C293.137674,9.40970108 293.137674,0 289.770589,0 C287.245276,0 276.02166,7.41370388 272.373985,10.8354134 C271.251624,11.9759832 271.251624,13.116553 272.093395,14.5422653 C273.496347,17.6788323 273.215756,27.9439608 272.373985,35.9279496 C272.093395,38.2090892 271.532214,38.4942317 269.568081,39.349659 C262.553322,40.4902289 256.660924,44.4822233 253.57443,48.7593601 C251.610297,51.6107847 252.452068,52.4662121 253.85502,51.8959271 C256.660924,51.0404998 263.675683,51.3256422 268.44572,51.6107847 C270.409853,51.6107847 270.690443,52.4662121 270.409853,55.3176366 C269.568081,65.5827651 268.16513,90.6753013 267.323358,103.221569 C266.762178,114.056983 266.481587,124.322111 268.72631,131.450673 C272.093395,143.141513 280.791697,146.563223 286.964685,146.563223 Z M398.639657,31.9359552 C409.021501,31.9359552 417.158623,45.0525082 415.19449,64.1570528 C414.072128,77.5587483 413.510948,94.9524381 412.949767,108.354134 C412.669176,116.908407 412.949767,123.181541 415.47508,126.603251 C418.000394,130.02496 421.086888,131.450673 424.734563,131.450673 C428.101647,131.450673 433.994045,129.454675 436.799949,127.743821 C438.483492,126.888393 438.483492,130.595245 436.238769,133.161527 C432.029913,138.864376 421.928659,146.563223 410.424453,146.563223 C402.848513,146.563223 396.394934,139.149519 393.58903,132.591242 C392.466669,130.595245 391.624898,130.595245 389.099584,132.3061 C381.523644,137.438664 366.932944,144.567226 360.759956,144.567226 C353.745196,144.567226 344.485714,141.715801 341.118629,135.157525 C339.435087,132.020958 338.312725,128.599248 338.312725,124.322111 C338.312725,118.904404 341.118629,114.056983 344.485714,110.350131 C354.586967,99.7998599 373.667113,91.5307286 389.941355,86.9684493 C393.30844,85.8278795 394.711392,84.6873097 394.991982,82.6913125 C395.272573,79.269603 395.272573,74.7073237 395.553163,69.5747595 C395.833753,60.4502008 394.150211,46.7633629 383.768367,46.7633629 C372.825342,46.7633629 356.83169,58.4542036 347.852798,63.5867679 C346.169256,64.1570528 344.766304,63.8719103 346.169256,60.4502008 C348.133389,55.6027791 351.500473,51.0404998 355.428738,48.7593601 C363.285269,44.4822233 374.228294,39.0645166 382.365415,35.9279496 C389.380175,32.7913825 394.430802,31.9359552 398.639657,31.9359552 Z M372.825342,130.310103 C364.688221,130.310103 357.673462,124.607254 357.954052,116.338122 C357.954052,110.635273 361.321136,107.498706 366.091173,104.647282 C370.861209,102.081 382.365415,98.3741476 390.221946,96.9484353 C393.02785,96.6632929 393.869621,96.9484353 393.869621,99.229575 C393.58903,104.932424 393.02785,110.920416 392.747259,115.482695 C392.466669,119.759832 391.063717,122.611256 387.696632,125.177539 C384.329548,127.743821 377.314788,130.310103 372.825342,130.310103 Z M166.317603,47.345143 C170.71067,47.345143 175.571293,52.5419878 178.118493,59.4711141 C181.819968,68.132522 185.292537,80.2535437 188.297551,93.6168587 C191.302565,107.227643 194.31245,118.363738 195.695633,122.07577 C196.625872,125.045396 198.013926,127.025146 199.401979,127.025146 C191.073658,142.199933 186.519869,149.129059 185.750351,147.807576 C183.670706,143.853024 181.586191,136.923898 179.735453,129.499834 C174.412146,106.485236 169.556394,87.18267 164.00418,73.0769485 C160.994296,65.9053028 157.29282,62.4407396 154.516713,62.4407396 C151.974384,62.4407396 148.03913,63.183146 145.496801,64.6679588 C143.417156,66.1527716 143.183378,63.183146 145.267894,60.2135205 C149.660961,54.2742693 159.143558,47.345143 166.317603,47.345143 Z M120.741633,149.862069 C111.534754,149.862069 105.221466,147.188857 97.8559638,133.020831 C92.8579441,123.397266 88.6490854,111.635132 83.6510658,96.6651424 C82.5988511,93.7246088 82.3357975,93.4572876 77.3377778,93.4572876 C61.0284505,93.4572876 46.0343916,94.5265725 39.7211036,96.6651424 C36.3014059,98.0017486 33.9339229,100.140319 32.0925473,102.54621 C24.9900983,112.971738 19.4659713,128.209049 19.4659713,138.367256 C19.4659713,139.703862 18.4137566,141.307789 14.204898,143.71368 C9.20687831,146.654214 4.47191232,148.525463 2.89359033,148.525463 C1.05221466,148.525463 1.42108547e-14,147.188857 1.42108547e-14,144.248323 C1.42108547e-14,139.703862 3.68275132,130.347619 8.68077098,121.526018 C14.204898,111.367811 22.6226153,97.1997849 32.8817083,80.8931893 C43.6669086,63.78463 59.4501285,36.5178637 63.6589872,24.2210867 C64.7112018,21.0132318 66.5525775,17.5380557 69.1831142,14.8648433 C71.2875435,12.1916309 74.7072411,8.98377608 77.0747241,5.77592121 C78.9160998,3.37003006 81.5466365,2.56806635 82.5988511,2.56806635 C83.9141195,2.56806635 83.6510658,3.6373513 83.6510658,6.31056369 C83.3880121,8.71645484 83.1249585,13.2609159 83.1249585,17.0034132 C83.9141195,33.8446513 92.5948904,63.2499876 98.6451248,79.5565831 C99.4342857,81.6951531 99.9603931,81.9624743 101.801769,81.9624743 C108.115057,81.9624743 119.426364,83.0317592 126.791867,84.6356867 C131.526833,85.4376504 131.526833,86.5069354 129.15935,88.6455053 C124.424384,92.1206814 112.850023,93.1899663 106.273681,93.4572876 C103.643144,93.4572876 103.380091,93.7246088 104.432305,96.3978212 C107.852003,106.556028 110.48254,112.971738 114.691398,120.456733 C121.26774,132.486188 128.370189,138.099934 136.261799,138.099934 C140.470658,138.099934 145.994785,137.030649 149.677536,135.694043 C151.518912,134.89208 152.571126,134.89208 152.571126,135.961365 C152.571126,137.030649 150.729751,139.971183 148.625321,141.307789 C143.890355,144.248323 131.526833,149.862069 120.741633,149.862069 Z M76.5486168,82.4971168 C79.1791535,82.4971168 79.7052608,82.2297955 78.9160998,79.5565831 C73.1289191,60.3094539 70.4983825,49.0819619 69.1831142,44.0028584 C68.6570068,41.0623247 67.3417385,40.7950035 65.5003628,44.0028584 C59.9762358,54.4283867 49.7171429,72.6062309 43.4038549,83.2990805 C42.3516402,85.1703292 42.8777476,86.2396141 45.5082842,85.4376504 C51.5585185,84.1010442 68.3939532,82.4971168 76.5486168,82.4971168 Z" id="Combined-Shape" fill="#FFFFFF"></path>
                        <g id="Group" transform="translate(156.814815, 47.517241)">
                            <path d="M47.8105413,59.6462839 L44.4106581,57.9752008 C43.3413857,57.4512708 42.0513919,57.8961171 41.5314704,58.9785762 C41.011549,60.05115 41.4480868,61.3560322 42.5222641,61.8799623 L46.0103048,63.5937491 L-1.42108547e-14,164.482759 L0.865956266,164.482759 L51.4769083,66.2796678 L55.9421234,68.4735721 C57.0064909,68.9975021 58.2964847,68.5526558 58.8213111,67.4751394 C59.3412326,66.397623 58.8948849,65.0927407 57.8256125,64.5688106 L53.4635819,62.4248207 L53.7851551,61.8008552 L58.1360939,63.9386118 C59.2053663,64.4625418 60.4953601,64.0176956 61.0201864,62.9352364 C61.5401079,61.8626627 61.0937602,60.5577804 60.0244878,60.0338504 L55.7728116,57.9441009 L56.0942939,57.3203119 L60.3344787,59.4036515 C61.3988462,59.9275816 62.68884,59.4827353 63.2136664,58.4002761 C63.7335878,57.3227597 63.2872402,56.0228201 62.2179677,55.4988901 L58.0809508,53.465497 L58.4035317,52.8395763 L62.5333541,54.8686913 C63.5977216,55.3926213 64.8877153,54.9428323 65.4125417,53.8653159 C65.9324632,52.7877994 65.4861155,51.4878599 64.4168431,50.9639298 L60.3901805,48.9847773 L60.7124925,48.3593784 L64.726834,50.3317539 C65.7912015,50.8556839 67.0861002,50.4108377 67.6109266,49.3333212 C68.130848,48.2558048 67.6845004,46.9509225 66.6152279,46.4269925 L62.7001241,44.5026723 L63.0217303,43.8786428 L66.9257093,45.7967936 C67.9900768,46.3207237 69.2800706,45.8758774 69.804897,44.7934182 C70.3248184,43.7208445 69.8784708,42.4159622 68.8091984,41.8920322 L65.0083625,40.0238761 L65.3308691,39.3980995 L69.1240942,41.2618334 C70.1884617,41.7857634 71.4784555,41.3409172 72.0032818,40.258458 C72.5232033,39.1809415 72.0768556,37.881002 71.0075832,37.357072 L67.317493,35.5433487 L67.6391159,34.9192869 L71.3180646,36.7268731 C72.3824321,37.2508031 73.6773308,36.8010142 74.2021572,35.7234977 C74.7220786,34.6459813 74.275731,33.3460417 73.2064585,32.8221117 L69.6267227,31.0626289 L74.4916986,21.6228605 L66.8732294,17.8466102 L62.4538945,27.5370985 L59.7915041,26.2285019 C58.7173268,25.7045719 57.4322379,26.1494181 56.9074116,27.2269346 C56.3874901,28.304451 56.8289329,29.6043906 57.8982053,30.1332633 L60.6527108,31.4866407 L60.3617971,32.1245413 L57.5926288,30.7634622 C56.5233564,30.2395321 55.2333626,30.6843784 54.7134412,31.7618948 C54.1935197,32.8394113 54.6300575,34.1393508 55.7042349,34.6682236 L58.5615183,36.0720991 L58.2697894,36.7117872 L55.394244,35.2984224 C54.3249715,34.7744924 53.0398827,35.2193386 52.5150563,36.2968551 C51.9951349,37.3743715 52.4365776,38.6743111 53.50585,39.2031838 L56.4695178,40.6593294 L56.17859,41.2972607 L53.2002735,39.8333827 C52.1260962,39.3094527 50.8410073,39.7542989 50.316181,40.8367581 C49.7962595,41.9093318 50.2377023,43.2142141 51.3069747,43.7381441 L54.3774274,45.2467566 L54.0858458,45.8861217 L51.0018887,44.37032 C49.9326163,43.84639 48.6426225,44.2912363 48.122701,45.3687527 C47.6027796,46.4462692 48.0393174,47.7462087 49.1134947,48.2750815 L52.2855881,49.8336333 L51.9937483,50.4735645 L48.8030133,48.9052803 C47.7337409,48.3813503 46.4486521,48.8261965 45.9238257,49.903713 C45.4039042,50.9812294 45.845347,52.281169 46.9146194,52.8100417 L50.1934978,54.4210605 L49.9026388,55.0588411 L46.6095334,53.4402406 C45.5353561,52.9163106 44.2502672,53.3611568 43.7254408,54.4386732 C43.2055194,55.5161897 43.6469621,56.8161292 44.7162345,57.345002 L48.1014972,59.0082908 L47.8105413,59.6462839 Z" id="Combined-Shape" fill="#FFFFFF"></path>
                            <path d="M84.7160494,10.2801724 C84.7160494,15.9570698 80.1367122,20.5603448 74.4893357,20.5603448 C68.846685,20.5603448 64.2673478,15.9570698 64.2673478,10.2801724 C64.2673478,4.60327499 68.846685,0 74.4893357,0 C80.1367122,0 84.7160494,4.60327499 84.7160494,10.2801724 Z" id="Stroke-112" stroke="#FFFFFF" stroke-width="2"></path>
                        </g>
                    </g>
                </g>
            </g>
        </g>
    </g>
</svg>