<?xml version="1.0" encoding="UTF-8"?>
<svg width="402px" height="255px" viewBox="0 0 402 255" version="1.1" xmlns="http://www.w3.org/2000/svg" xmlns:xlink="http://www.w3.org/1999/xlink">
    <!-- Generator: Sketch 46.2 (44496) - http://www.bohemiancoding.com/sketch -->
    <title>images/logo_blanc</title>
    <desc>Created with Sketch.</desc>
    <defs></defs>
    <g id="Site-web-Copy" stroke="none" stroke-width="1" fill="none" fill-rule="evenodd">
        <g id="Desktop" transform="translate(-176.000000, -274.000000)">
            <g id="Group-15" transform="translate(-27.000000, -19.000000)">
                <g id="Group-2" transform="translate(204.000000, 294.000000)">
                    <g id="Group">
                        <g id="images/logo_blanc">
                            <path d="M306.713781,215.255024 C346.043262,225.740569 376.918161,222.233837 400,188.506374 C387.894366,179.670241 374.83448,176.438411 365.379546,175.26257 C379.333756,182.382299 382.738177,186.859273 384.556788,189.428104 C351.681187,218.704004 339.753034,209.826289 306.713781,215.255024" id="Fill-115" fill="#FFFFFF"></path>
                            <path d="M306.713781,215.255024 C346.043262,225.740569 376.918161,222.233837 400,188.506374 C387.894366,179.670241 374.83448,176.438411 365.379546,175.26257 C379.333756,182.382299 382.738177,186.859273 384.556788,189.428104 C351.681187,218.704004 339.753034,209.826289 306.713781,215.255024 Z" id="Stroke-116" stroke="#50A9EC" stroke-width="0.25"></path>
                            <path d="M209.013633,31.1460996 C261.597293,78.884882 250.655871,135.873923 209.770849,187.98324 C223.118225,177.287924 261.787175,127.26015 255.048649,90.3840564 C249.877815,62.1193781 222.446688,29.0221234 198.62102,15.547486 C174.795351,29.0221234 147.361909,62.1193781 142.195706,90.3840564 C135.450233,127.26015 170.407205,168.098956 187.468875,187.98324 C147.530951,135.916355 138.446677,82.0460942 187.619392,30.0570019 C194.480647,23.5129863 198.127787,21.3913674 198.127787,21.3913674 C198.127787,21.3913674 204.419394,27.1550987 209.013633,31.1460996" id="Fill-117" fill="#FFFFFF"></path>
                            <path d="M209.013633,31.1460996 C261.597293,78.884882 250.655871,135.873923 209.770849,187.98324 C223.118225,177.287924 261.787175,127.26015 255.048649,90.3840564 C249.877815,62.1193781 222.446688,29.0221234 198.62102,15.547486 C174.795351,29.0221234 147.361909,62.1193781 142.195706,90.3840564 C135.450233,127.26015 170.407205,168.098956 187.468875,187.98324 C147.530951,135.916355 138.446677,82.0460942 187.619392,30.0570019 C194.480647,23.5129863 198.127787,21.3913674 198.127787,21.3913674 C198.127787,21.3913674 204.419394,27.1550987 209.013633,31.1460996 Z" id="Stroke-118" stroke="#58BC82" stroke-width="0.25"></path>
                            <path d="M186.572438,191.629135 C120.938448,101.738964 58.6394463,164.764325 19.7879859,108.832402 C21.9988739,183.473326 75.3283862,226.56984 146.058147,205.06624 C97.3579735,211.840027 50.8780164,183.285296 28.0881448,128.584971 C51.45406,147.571317 86.9681989,143.845969 116.836177,150.95821 C143.089307,157.210213 164.083415,173.825028 181.042886,194.176943 C182.724373,192.975901 184.408193,192.496424 186.572438,191.629135" id="Fill-119" fill="#FFFFFF"></path>
                            <path d="M186.572438,191.629135 C120.938448,101.738964 58.6394463,164.764325 19.7879859,108.832402 C21.9988739,183.473326 75.3283862,226.56984 146.058147,205.06624 C97.3579735,211.840027 50.8780164,183.285296 28.0881448,128.584971 C51.45406,147.571317 86.9681989,143.845969 116.836177,150.95821 C143.089307,157.210213 164.083415,173.825028 181.042886,194.176943 C182.724373,192.975901 184.408193,192.496424 186.572438,191.629135 Z" id="Stroke-120" stroke="#58BC82" stroke-width="0.25"></path>
                            <path d="M139.358567,0 C150.136171,7.64326089 161.805226,26.5957387 165.371025,39.7238879 C158.791713,32.3381335 147.826194,18.8120198 140.971885,15.565097 C100.950603,69.1147426 121.55478,110.971252 158.539632,154.061453 C98.9408307,116.273545 93.4294254,52.711579 139.358567,0" id="Fill-121" fill="#FFFFFF"></path>
                            <path d="M139.358567,0 C150.136171,7.64326089 161.805226,26.5957387 165.371025,39.7238879 C158.791713,32.3381335 147.826194,18.8120198 140.971885,15.565097 C100.950603,69.1147426 121.55478,110.971252 158.539632,154.061453 C98.9408307,116.273545 93.4294254,52.711579 139.358567,0 Z" id="Stroke-122" stroke="#E08DAC" stroke-width="0.25"></path>
                            <path d="M200.706714,192.945974 C200.706714,263.086554 117.096219,273.893317 98.9399293,214.198247 C134.913815,230.371554 174.510549,194.284045 194.649946,192.223464 C173.373008,209.254752 144.133276,226.799404 117.441919,226.347835 C149.223017,256.443733 190.928993,222.112591 200.253566,192.772477 C200.403058,192.831894 200.559557,192.879427 200.706714,192.945974" id="Fill-123" fill="#FFFFFF"></path>
                            <path d="M200.706714,192.945974 C200.706714,263.086554 117.096219,273.893317 98.9399293,214.198247 C134.913815,230.371554 174.510549,194.284045 194.649946,192.223464 C173.373008,209.254752 144.133276,226.799404 117.441919,226.347835 C149.223017,256.443733 190.928993,222.112591 200.253566,192.772477 C200.403058,192.831894 200.559557,192.879427 200.706714,192.945974 Z" id="Stroke-124" stroke="#E08DAC" stroke-width="0.25"></path>
                            <path d="M200.706714,192.945974 C200.706714,263.086554 284.316792,273.893317 302.473498,214.198247 C266.501123,230.371554 226.901144,194.284045 206.763621,192.223464 C228.041047,209.254752 259.196862,226.561736 285.891168,226.110167 C254.107004,256.206065 210.484659,222.112591 201.162208,192.772477 C201.008041,192.831894 200.853873,192.879427 200.706714,192.945974" id="Fill-125" fill="#FFFFFF"></path>
                            <path d="M200.706714,192.945974 C200.706714,263.086554 284.316792,273.893317 302.473498,214.198247 C266.501123,230.371554 226.901144,194.284045 206.763621,192.223464 C228.041047,209.254752 259.196862,226.561736 285.891168,226.110167 C254.107004,256.206065 210.484659,222.112591 201.162208,192.772477 C201.008041,192.831894 200.853873,192.879427 200.706714,192.945974 Z" id="Stroke-126" stroke="#E08DAC" stroke-width="0.25"></path>
                            <path d="M52.9461232,38.1620112 C71.2845779,43.1950073 99.5191247,59.2879068 106.720101,70.2209279 C92.3088148,60.6859613 74.3553766,57.5890944 65.9433484,55.6106711 C70.509878,106.842906 97.4027004,117.627898 134.275618,141.340782 C79.4142607,129.872036 47.2502117,94.9136247 52.9461232,38.1620112" id="Fill-127" fill="#FFFFFF"></path>
                            <path d="M52.9461232,38.1620112 C71.2845779,43.1950073 99.5191247,59.2879068 106.720101,70.2209279 C92.3088148,60.6859613 74.3553766,57.5890944 65.9433484,55.6106711 C70.509878,106.842906 97.4027004,117.627898 134.275618,141.340782 C79.4142607,129.872036 47.2502117,94.9136247 52.9461232,38.1620112 Z" id="Stroke-128" stroke="#50A9EC" stroke-width="0.25"></path>
                            <path d="M93.2862191,213.841616 C53.9577098,224.327161 23.0812689,220.820429 0,187.092966 C12.105335,178.256833 25.1648986,175.025003 34.6195985,173.849162 C20.6703435,180.968891 12.9166598,186.03263 11.0980937,188.601462 C43.9728829,217.877361 60.247782,208.412881 93.2862191,213.841616" id="Fill-129" fill="#FFFFFF"></path>
                            <path d="M93.2862191,213.841616 C53.9577098,224.327161 23.0812689,220.820429 0,187.092966 C12.105335,178.256833 25.1648986,175.025003 34.6195985,173.849162 C20.6703435,180.968891 12.9166598,186.03263 11.0980937,188.601462 C43.9728829,217.877361 60.247782,208.412881 93.2862191,213.841616 Z" id="Stroke-130" stroke="#50A9EC" stroke-width="0.25"></path>
                            <path d="M34.5984969,74.9106145 C61.8729921,99.8690591 61.4367681,110.506161 96.1130742,131.446927 C47.794855,127.180346 30.0962923,132.339223 34.5984969,74.9106145" id="Fill-131" fill="#FFFFFF"></path>
                            <path d="M348.467304,38.1620112 C330.126516,43.1950073 301.889636,59.2879068 294.693327,70.2209279 C309.099946,60.6859613 327.055718,57.5890944 335.467746,55.6106711 C330.90355,106.842906 304.008394,117.627898 267.137809,141.340782 C321.999167,129.872036 354.163216,94.9136247 348.467304,38.1620112" id="Fill-132" fill="#FFFFFF"></path>
                            <path d="M348.467304,38.1620112 C330.126516,43.1950073 301.889636,59.2879068 294.693327,70.2209279 C309.099946,60.6859613 327.055718,57.5890944 335.467746,55.6106711 C330.90355,106.842906 304.008394,117.627898 267.137809,141.340782 C321.999167,129.872036 354.163216,94.9136247 348.467304,38.1620112 Z" id="Stroke-133" stroke="#50A9EC" stroke-width="0.25"></path>
                            <path d="M365.400883,74.9106145 C338.126663,99.8690591 338.562882,110.506161 303.886926,131.446927 C352.20699,127.180346 369.905375,132.339223 365.400883,74.9106145" id="Fill-134" fill="#FFFFFF"></path>
                            <path d="M259.225898,0 C248.450509,7.64326089 236.781372,26.5957387 233.215548,39.7238879 C239.792614,32.3381335 251.635917,18.8120198 258.494858,15.565097 C298.514131,69.1147426 277.032102,110.971252 240.046989,154.061453 C299.646211,116.273545 305.157655,52.711579 259.225898,0" id="Fill-135" fill="#FFFFFF"></path>
                            <path d="M259.225898,0 C248.450509,7.64326089 236.781372,26.5957387 233.215548,39.7238879 C239.792614,32.3381335 251.635917,18.8120198 258.494858,15.565097 C298.514131,69.1147426 277.032102,110.971252 240.046989,154.061453 C299.646211,116.273545 305.157655,52.711579 259.225898,0 Z" id="Stroke-136" stroke="#E08DAC" stroke-width="0.25"></path>
                            <path d="M212.014134,191.629135 C277.649043,101.738964 339.948915,164.764325 378.798587,108.832402 C376.59,183.473326 323.259742,226.56984 252.528992,205.06624 C301.229846,211.840027 347.710453,183.285296 370.500644,128.584971 C347.134402,147.571317 311.619766,143.845969 281.75137,150.95821 C255.497873,157.210213 234.503472,173.825028 217.543764,194.176943 C215.862253,192.975901 214.176077,192.496424 212.014134,191.629135" id="Fill-137" fill="#FFFFFF"></path>
                            <path d="M212.014134,191.629135 C277.649043,101.738964 339.948915,164.764325 378.798587,108.832402 C376.59,183.473326 323.259742,226.56984 252.528992,205.06624 C301.229846,211.840027 347.710453,183.285296 370.500644,128.584971 C347.134402,147.571317 311.619766,143.845969 281.75137,150.95821 C255.497873,157.210213 234.503472,173.825028 217.543764,194.176943 C215.862253,192.975901 214.176077,192.496424 212.014134,191.629135 Z" id="Stroke-138" stroke="#58BC82" stroke-width="0.25"></path>
                        </g>
                    </g>
                </g>
            </g>
        </g>
    </g>
</svg>