<?xml version="1.0" encoding="UTF-8"?>
<svg width="142px" height="68px" viewBox="0 0 142 68" version="1.1" xmlns="http://www.w3.org/2000/svg" xmlns:xlink="http://www.w3.org/1999/xlink">
    <!-- Generator: Sketch 47.1 (45422) - http://www.bohemiancoding.com/sketch -->
    <title>images/logotype</title>
    <desc>Created with Sketch.</desc>
    <defs></defs>
    <g id="Site-web-Copy" stroke="none" stroke-width="1" fill="none" fill-rule="evenodd">
        <g id="Mobile" transform="translate(-111.000000, -339.000000)">
            <g id="Group-3" transform="translate(-223.000000, 339.000000)">
                <g id="Group-2">
                    <g id="images/logotype" transform="translate(334.000000, 0.000000)">
                        <path d="M93.0664288,47 C96.7516215,47 101.964821,44.8968872 105.560131,40.9649805 C106.728607,39.7762646 106.548841,38.0389105 105.739897,38.770428 C103.762476,40.4163424 100.61658,41.9708171 98.4593938,41.9708171 C93.1563115,41.9708171 92.8866633,37.307393 93.0664288,30.6322957 C93.2461943,25.3287938 93.6057253,20.3910506 93.8753735,17.6478599 C93.9652563,16.8249027 94.1450218,16.6420233 94.774201,16.733463 C95.5831458,16.733463 97.3808008,16.8249027 99.1784558,16.8249027 C102.504118,16.8249027 106.279193,16.0933852 108.346496,13.8988327 C109.335207,12.8929961 109.065558,12.5272374 108.436379,12.618677 C107.717317,12.7101167 106.009545,12.9844358 103.582711,12.8929961 C100.796345,12.8929961 97.8302145,12.7101167 95.0438493,12.4357977 C94.41467,12.344358 94.3247873,12.1614786 94.41467,11.5214008 C94.6843183,9.50972763 94.8640838,6.4922179 94.9539665,4.75486381 C95.0438493,3.01750973 95.0438493,0 93.9652563,0 C93.1563115,0 89.5610015,2.37743191 88.3925258,3.47470817 C88.0329948,3.84046693 88.0329948,4.20622568 88.302643,4.66342412 C88.7520568,5.6692607 88.662174,8.96108949 88.3925258,11.5214008 C88.302643,12.2529183 88.1228775,12.344358 87.4936983,12.618677 C85.2466295,12.9844358 83.3590917,14.2645914 82.3703815,15.6361868 C81.7412022,16.5505837 82.0108505,16.8249027 82.4602642,16.6420233 C83.3590917,16.3677043 85.6061605,16.459144 87.1341673,16.5505837 C87.7633465,16.5505837 87.8532293,16.8249027 87.7633465,17.7392996 C87.4936983,21.0311284 87.0442845,29.077821 86.7746363,33.1011673 C86.5948707,36.5758755 86.504988,39.8677043 87.22405,42.1536965 C88.302643,45.9027237 91.0890083,47 93.0664288,47 Z M129.365178,10 C132.69779,10 135.309837,14.2338308 134.679343,20.4004975 C134.319061,24.7263682 134.13892,30.340796 133.958778,34.6666667 C133.868708,37.4278607 133.958778,39.4527363 134.769414,40.5572139 C135.580049,41.6616915 136.570826,42.1218905 137.741743,42.1218905 C138.822591,42.1218905 140.714073,41.4776119 141.614779,40.9253731 C142.155203,40.6492537 142.155203,41.8457711 141.434638,42.6741294 C140.083579,44.5149254 136.841038,47 133.148143,47 C130.716237,47 128.644613,44.6069652 127.743907,42.4900498 C127.383625,41.8457711 127.113413,41.8457711 126.302778,42.39801 C123.870872,44.0547264 119.187201,46.3557214 117.205648,46.3557214 C114.953883,46.3557214 111.981553,45.4353234 110.900706,43.318408 C110.360282,42.3059701 110,41.2014925 110,39.8208955 C110,38.0721393 110.900706,36.5074627 111.981553,35.3109453 C115.224095,31.9054726 121.348895,29.2363184 126.57299,27.7636816 C127.653837,27.3955224 128.10419,27.0273632 128.19426,26.3830846 C128.284331,25.278607 128.284331,23.8059701 128.374402,22.1492537 C128.464472,19.2039801 127.924049,14.7860697 124.591437,14.7860697 C121.078683,14.7860697 115.944659,18.5597015 113.0624,20.2164179 C112.521977,20.4004975 112.071624,20.3084577 112.521977,19.2039801 C113.152471,17.6393035 114.233318,16.1666667 115.494306,15.4303483 C118.016283,14.0497512 121.529036,12.300995 124.141084,11.2885572 C126.392848,10.2761194 128.014119,10 129.365178,10 Z M120.970343,42 C118.252209,42 115.90899,40.1247869 116.002719,37.4057279 C116.002719,35.5305148 117.127464,34.4991476 118.720853,33.5615411 C120.314242,32.7176952 124.157121,31.4988067 126.781526,31.0300034 C127.718814,30.9362428 128,31.0300034 128,31.7800886 C127.906271,33.6553017 127.718814,35.6242755 127.625085,37.124446 C127.531356,38.5308558 127.062712,39.4684623 125.937967,40.3123082 C124.813222,41.1561541 122.470003,42 120.970343,42 Z M54.2865334,15 C55.7091076,15 57.2830867,16.6527239 58.1079274,18.8563558 C59.3065487,21.6108957 60.4310448,25.4656775 61.404136,29.715539 C62.3772273,34.0441017 63.3518957,37.585653 63.7998015,38.7661701 C64.101034,39.7105838 64.550517,40.3401929 65,40.3401929 C62.303102,45.1661467 60.8284824,47.3697786 60.5792953,46.9495146 C59.9058594,45.6918704 59.2308463,43.4882384 58.6315357,41.1272043 C56.9077289,33.8079983 55.335327,27.6693094 53.537395,23.1833445 C52.5627267,20.9025855 51.3641053,19.8007695 50.4651393,19.8007695 C49.6418758,19.8007695 48.367552,20.0368729 47.5442884,20.5090798 C46.8708525,20.9812866 46.7951501,20.0368729 47.4701632,19.0924592 C48.8927374,17.2036319 51.963416,15 54.2865334,15 Z M38.7775862,48 C35.8206897,48 33.7931034,47.1470054 31.4275862,42.6261343 C29.8224138,39.5553539 28.4706897,35.8021779 26.8655172,31.0254083 C26.5275862,30.0871143 26.4431034,30.0018149 24.837931,30.0018149 C19.6,30.0018149 14.7844828,30.3430127 12.7568966,31.0254083 C11.6586207,31.4519056 10.8982759,32.1343013 10.3068966,32.9019964 C8.02586207,36.2286751 6.25172414,41.0907441 6.25172414,44.3321234 C6.25172414,44.7586207 5.9137931,45.2704174 4.56206897,46.0381125 C2.95689655,46.9764065 1.4362069,47.5735027 0.929310345,47.5735027 C0.337931034,47.5735027 0,47.1470054 0,46.2087114 C0,44.7586207 1.18275862,41.7731397 2.78793103,38.9582577 C4.56206897,35.7168784 7.26551724,31.1960073 10.5603448,25.9927405 C14.0241379,20.5335753 19.0931034,11.8330309 20.4448276,7.9092559 C20.7827586,6.88566243 21.3741379,5.77676951 22.2189655,4.92377495 C22.8948276,4.0707804 23.9931034,3.04718693 24.7534483,2.02359347 C25.3448276,1.25589837 26.1896552,1 26.5275862,1 C26.95,1 26.8655172,1.34119782 26.8655172,2.19419238 C26.7810345,2.96188748 26.6965517,4.41197822 26.6965517,5.6061706 C26.95,10.9800363 29.737931,20.3629764 31.6810345,25.5662432 C31.9344828,26.2486388 32.1034483,26.3339383 32.6948276,26.3339383 C34.7224138,26.3339383 38.3551724,26.6751361 40.7206897,27.1869328 C42.2413793,27.4428312 42.2413793,27.784029 41.4810345,28.4664247 C39.9603448,29.5753176 36.2431034,29.9165154 34.1310345,30.0018149 C33.2862069,30.0018149 33.2017241,30.0871143 33.5396552,30.9401089 C34.637931,34.1814882 35.4827586,36.2286751 36.8344828,38.6170599 C38.9465517,42.4555354 41.2275862,44.246824 43.762069,44.246824 C45.1137931,44.246824 46.887931,43.9056261 48.0706897,43.4791289 C48.662069,43.2232305 49,43.2232305 49,43.5644283 C49,43.9056261 48.4086207,44.8439201 47.7327586,45.2704174 C46.212069,46.2087114 42.2413793,48 38.7775862,48 Z M25.1075912,25.978911 C25.9758365,25.978911 26.1494855,25.8938754 25.8890119,25.043519 C23.9788723,18.9209528 23.1106271,15.3494559 22.6765044,13.7337787 C22.5028554,12.7983866 22.0687327,12.713351 21.460961,13.7337787 C19.637646,17.0501687 16.2514894,22.8325923 14.1677008,26.2340179 C13.8204027,26.8292674 13.9940517,27.16941 14.862297,26.9143031 C16.8592611,26.4891249 22.4160308,25.978911 25.1075912,25.978911 Z" id="Combined-Shape" fill="#47594D"></path>
                        <g id="Group" transform="translate(51.000000, 15.000000)">
                            <path d="M21.0478914,12.9089454 L22.9519567,13.9197041 C23.3122357,14.1113109 23.7488872,13.9486258 23.9265363,13.552759 C24.0543332,13.2666068 24.0096591,12.9375614 23.8370163,12.7054408 C23.8713949,12.6594226 23.9015552,12.6085037 23.9265531,12.5530367 C24.1025017,12.1589466 23.9514514,11.6835077 23.5895949,11.4918859 L22.1720699,10.7388974 L24,7.21036842 L21.5454545,6 L19.9211883,9.54323054 L19.049789,9.08034377 C18.6862726,8.88872198 18.2513808,9.05141973 18.0737723,9.44550982 C17.945915,9.73188481 17.9898546,10.0612165 18.1622791,10.2940756 C18.1283933,10.3397939 18.0986873,10.3903724 18.0740782,10.445475 C17.8980894,10.8395343 18.0458536,11.3149361 18.4094531,11.5083505 L18.9007862,11.7691709 L18.6192017,12.3834292 L18.0484192,12.0803375 C17.6864625,11.8887307 17.2514503,12.0514157 17.0737927,12.445475 C16.9815346,12.6520415 16.9787003,12.8809598 17.0490266,13.0798946 C16.6856647,12.8889167 16.2512566,13.0516509 16.0737723,13.447241 C15.9815824,13.6527648 15.9787088,13.8816123 16.0489155,14.0804806 C15.6867185,13.888722 15.250067,14.0514197 15.0740782,14.4455098 C14.8980894,14.8395999 15.0458536,15.3150389 15.4094531,15.5084684 L16.8387902,16.2672805 L16.752981,16.4544675 L16.0484192,16.0803375 C15.6864625,15.8887307 15.2514503,16.0514157 15.0737927,16.445475 C14.9815267,16.6520591 14.9786998,16.880999 15.0490446,17.0799457 C14.6856791,16.8889529 14.2512595,17.0516846 14.0737723,17.445475 C13.8978237,17.8395343 14.047214,18.3149361 14.4090705,18.5083505 L15.5369301,19.107203 L15.255482,19.7211637 L14.0486578,19.0802959 C13.6867185,18.8886891 13.250067,19.0513742 13.0740782,19.447241 C12.8980894,19.8394927 13.0458536,20.3167021 13.4094531,20.5083089 L14.6039646,21.1424063 L0,53 L0.278996865,53 L16.3127022,22.0494767 L17.9519567,22.9196625 C18.3122357,23.1112693 18.7488872,22.9485843 18.9265363,22.554525 C19.1025251,22.1604657 18.9514404,21.6832563 18.5895011,21.4916495 L17.0305483,20.6637887 L17.3407612,20.0649719 L18.9505363,20.9197041 C19.3123929,21.1113109 19.7489446,20.9486258 19.9265531,20.552759 C20.0188479,20.3470011 20.0211662,20.1178665 19.9502787,19.9188401 L19.9519062,19.9197041 C20.3122026,20.1113109 20.7488751,19.9486258 20.9265327,19.552759 C21.10253,19.1586997 20.951438,18.6832979 20.5894813,18.4916911 L18.6808322,17.4781776 L18.7754951,17.295446 L19.9519567,17.9200105 C20.3122357,18.1116323 20.7488872,17.9471268 20.9265363,17.5530367 C21.0186434,17.3467822 21.0211601,17.1182449 20.9507474,16.9197747 C21.3109041,17.1112058 21.7489793,16.9485073 21.9265531,16.554525 C22.018877,16.3477539 22.0211676,16.1180889 21.9502117,15.9188046 L21.9519062,15.9197041 C22.3122026,16.1113109 22.7488751,15.9486258 22.9265327,15.552759 C23.10253,15.1605073 22.951438,14.6832979 22.5894813,14.4916911 L20.7374342,13.5082338 L21.0478914,12.9089454 Z" id="Combined-Shape" fill="#47594D"></path>
                            <path d="M28,3.5 C28,5.4327634 26.4324012,7 24.4991911,7 C22.5675988,7 21,5.4327634 21,3.5 C21,1.5672366 22.5675988,0 24.4991911,0 C26.4324012,0 28,1.5672366 28,3.5 Z" id="Stroke-112" stroke="#47594D" stroke-width="0.75"></path>
                        </g>
                    </g>
                </g>
            </g>
        </g>
    </g>
</svg>