<?xml version="1.0" encoding="UTF-8"?>
<svg width="47px" height="46px" viewBox="0 0 47 46" version="1.1" xmlns="http://www.w3.org/2000/svg" xmlns:xlink="http://www.w3.org/1999/xlink">
    <!-- Generator: Sketch 46.2 (44496) - http://www.bohemiancoding.com/sketch -->
    <title>images/metre</title>
    <desc>Created with Sketch.</desc>
    <defs>
        <polygon id="path-1" points="6.81312645e-15 45.301 6.81312645e-15 0.0003 46.778 0.0003 46.778 45.301"></polygon>
    </defs>
    <g id="Site-web-Copy" stroke="none" stroke-width="1" fill="none" fill-rule="evenodd">
        <g id="Desktop" transform="translate(-423.000000, -1518.000000)">
            <g id="Group-12" transform="translate(402.000000, 1497.000000)">
                <g id="images/metre" transform="translate(21.000000, 21.000000)">
                    <mask id="mask-2" fill="white">
                        <use xlink:href="#path-1"></use>
                    </mask>
                    <g id="Clip-2"></g>
                    <path d="M19.7483,9.392 C19.7483,11.924 23.3673,12.146 23.5123,10.089 C22.8923,8.432 30.8733,7.413 32.7893,9.632 C34.6493,11.788 31.0623,14.4 23.4313,14.4 C20.6963,14.4 18.2463,13.813 16.4983,12.864 C15.0443,12.075 14.1453,11.087 14.1453,10.089 C14.2483,0.347 42.9603,0.881 43.5943,10.089 C43.5943,18.344 28.5263,20.303 23.4313,20.303 C18.7413,20.303 3.2673,18.144 3.2673,10.089 C3.2673,9.21 2.5543,8.497 1.6763,8.497 C0.7963,8.497 0.0843,9.21 0.0843,10.089 C0.0843,10.223 0.0873,10.355 0.0943,10.487 C0.0333,10.651 -0.0007,10.828 -0.0007,11.012 L-0.0007,35.254 C-0.0007,35.67 0.1683,36.047 0.4403,36.321 C1.3733,37.401 2.3783,38.369 3.4403,39.233 L3.4403,29.901 C3.4403,29.118 4.0763,28.482 4.8603,28.482 C5.6443,28.482 6.2803,29.118 6.2803,29.901 L6.2803,41.224 C6.5803,41.404 6.8823,41.578 7.1883,41.745 C7.9903,42.183 8.8123,42.575 9.6493,42.925 L9.6493,33.211 C9.6493,32.427 10.2853,31.791 11.0693,31.791 C11.8523,31.791 12.4883,32.427 12.4883,33.211 L12.4883,43.936 C13.5963,44.267 14.7223,44.533 15.8573,44.739 L15.8573,35.221 C15.8573,34.437 16.4933,33.801 17.2773,33.801 C18.0613,33.801 18.6963,34.437 18.6963,35.221 L18.6963,45.131 C19.8193,45.239 20.9453,45.294 22.0653,45.301 L22.0653,27.411 C22.0653,26.627 22.7013,25.991 23.4853,25.991 C24.2693,25.991 24.9053,26.627 24.9053,27.411 L24.9053,45.218 C25.8903,45.154 26.8663,45.055 27.8273,44.925 L28.2743,44.861 L28.2743,35.221 C28.2743,34.437 28.9103,33.801 29.6933,33.801 C30.4773,33.801 31.1133,34.437 31.1133,35.221 L31.1133,44.346 C32.2723,44.093 33.3993,43.797 34.4823,43.463 L34.4823,32.738 C34.4823,31.954 35.1183,31.319 35.9023,31.319 C36.6853,31.319 37.3213,31.954 37.3213,32.738 L37.3213,42.464 C38.5313,41.981 39.6623,41.452 40.6913,40.889 L40.6913,28.955 C40.6913,28.172 41.3263,27.536 42.1103,27.536 C42.8943,27.536 43.5303,28.172 43.5303,28.955 L43.5303,39.052 C43.7343,38.893 43.9313,38.733 44.1193,38.573 C45.1633,37.679 45.9773,36.73 46.5083,35.756 L46.5133,35.759 C46.6413,35.524 46.7013,35.27 46.6983,35.02 C46.6983,26.712 46.7783,18.389 46.7783,10.089 C46.7783,-3.11 10.9613,-3.614 10.9613,10.089 C10.9613,12.35 12.4973,14.315 14.9803,15.662 C17.1683,16.849 20.1583,17.583 23.4313,17.583 C39.9373,17.583 40.3953,5.676 28.8693,5.43 C26.1153,5.067 19.1683,6.265 19.7483,9.392" id="Fill-1" fill="#F9FCF9" mask="url(#mask-2)"></path>
                </g>
            </g>
        </g>
    </g>
</svg>