<?xml version="1.0" encoding="UTF-8"?>
<svg width="337px" height="94px" viewBox="0 0 337 94" version="1.1" xmlns="http://www.w3.org/2000/svg" xmlns:xlink="http://www.w3.org/1999/xlink">
    <!-- Generator: Sketch 46.2 (44496) - http://www.bohemiancoding.com/sketch -->
    <title>images/small_logo</title>
    <desc>Created with Sketch.</desc>
    <defs></defs>
    <g id="Site-web-Copy" stroke="none" stroke-width="1" fill="none" fill-rule="evenodd">
        <g id="images/small_logo" transform="translate(-26.000000, -37.000000)">
            <g transform="translate(27.000000, 38.000000)">
                <g id="images/logo_blanc">
                    <path d="M92,64.4948667 C103.804803,67.5086837 113.071951,66.5007581 120,56.8066122 C116.366476,54.2668788 112.446531,53.3379671 109.608618,53 C113.796995,55.0463944 114.818838,56.3331926 115.364697,57.0715413 C105.497035,65.4861927 101.916782,62.9345076 92,64.4948667" id="Fill-115" fill="#FFFFFF"></path>
                    <path d="M92,64.4948667 C103.804803,67.5086837 113.071951,66.5007581 120,56.8066122 C116.366476,54.2668788 112.446531,53.3379671 109.608618,53 C113.796995,55.0463944 114.818838,56.3331926 115.364697,57.0715413 C105.497035,65.4861927 101.916782,62.9345076 92,64.4948667 Z" id="Stroke-116" stroke="#50A9EC" stroke-width="0.25"></path>
                    <path d="M63.6876554,9.70394269 C79.7629995,24.1001258 76.418099,41.2858315 63.9191438,57 C67.9995684,53.7747033 79.8210486,38.6882485 77.7610146,27.5678351 C76.1802394,19.0442938 67.7942729,9.06343304 60.5105309,5 C53.2267888,9.06343304 44.8401144,19.0442938 43.2607551,27.5678351 C41.1985973,38.6882485 51.885289,51.0036638 57.10121,57 C44.8917923,41.2986274 42.1146399,25.0534259 57.1472246,9.37551266 C59.244778,7.40208892 60.3597449,6.76229015 60.3597449,6.76229015 C60.3597449,6.76229015 62.2831512,8.50041013 63.6876554,9.70394269" id="Fill-117" fill="#FFFFFF"></path>
                    <path d="M63.6876554,9.70394269 C79.7629995,24.1001258 76.418099,41.2858315 63.9191438,57 C67.9995684,53.7747033 79.8210486,38.6882485 77.7610146,27.5678351 C76.1802394,19.0442938 67.7942729,9.06343304 60.5105309,5 C53.2267888,9.06343304 44.8401144,19.0442938 43.2607551,27.5678351 C41.1985973,38.6882485 51.885289,51.0036638 57.10121,57 C44.8917923,41.2986274 42.1146399,25.0534259 57.1472246,9.37551266 C59.244778,7.40208892 60.3597449,6.76229015 60.3597449,6.76229015 C60.3597449,6.76229015 62.2831512,8.50041013 63.6876554,9.70394269 Z" id="Stroke-118" stroke="#58BC82" stroke-width="0.25"></path>
                    <path d="M56,58.2217319 C36.3237083,30.8391806 17.6472069,50.0381115 6,33 C6.66279801,55.7372907 22.6503531,68.8654502 43.8542963,62.314974 C29.254562,64.3784205 15.3204223,55.6800125 8.48828917,39.0170731 C15.4931133,44.8007376 26.1398308,43.6659136 35.0938964,45.8324609 C42.9642732,47.7369605 49.2580578,52.7982039 54.3423058,58.9978512 C54.8463959,58.6319868 55.3511851,58.4859275 56,58.2217319" id="Fill-119" fill="#FFFFFF"></path>
                    <path d="M56,58.2217319 C36.3237083,30.8391806 17.6472069,50.0381115 6,33 C6.66279801,55.7372907 22.6503531,68.8654502 43.8542963,62.314974 C29.254562,64.3784205 15.3204223,55.6800125 8.48828917,39.0170731 C15.4931133,44.8007376 26.1398308,43.6659136 35.0938964,45.8324609 C42.9642732,47.7369605 49.2580578,52.7982039 54.3423058,58.9978512 C54.8463959,58.6319868 55.3511851,58.4859275 56,58.2217319 Z" id="Stroke-120" stroke="#58BC82" stroke-width="0.25"></path>
                    <path d="M42.178379,0 C45.41907,2.28214128 48.9278088,7.9410129 50,11.8608439 C48.0216832,9.65558949 44.7244886,5.61693334 42.6634835,4.64746015 C30.6295845,20.6364286 36.8250028,33.1340353 47.9458856,46 C30.025271,34.7172053 28.3680604,15.7387367 42.178379,0" id="Fill-121" fill="#FFFFFF"></path>
                    <path d="M42.178379,0 C45.41907,2.28214128 48.9278088,7.9410129 50,11.8608439 C48.0216832,9.65558949 44.7244886,5.61693334 42.6634835,4.64746015 C30.6295845,20.6364286 36.8250028,33.1340353 47.9458856,46 C30.025271,34.7172053 28.3680604,15.7387367 42.178379,0 Z" id="Stroke-122" stroke="#E08DAC" stroke-width="0.25"></path>
                    <path d="M61,58.2139838 C61,78.9873036 35.5307336,82.1879096 30,64.508204 C40.9582951,69.2982026 53.0201754,58.6102761 59.1549991,58 C52.6736596,63.0441044 43.7667095,68.24025 35.6360402,68.1065101 C45.3171364,77.0199199 58.0215296,66.852171 60.8619629,58.1625995 C60.9075009,58.1801969 60.9551735,58.1942747 61,58.2139838" id="Fill-123" fill="#FFFFFF"></path>
                    <path d="M61,58.2139838 C61,78.9873036 35.5307336,82.1879096 30,64.508204 C40.9582951,69.2982026 53.0201754,58.6102761 59.1549991,58 C52.6736596,63.0441044 43.7667095,68.24025 35.6360402,68.1065101 C45.3171364,77.0199199 58.0215296,66.852171 60.8619629,58.1625995 C60.9075009,58.1801969 60.9551735,58.1942747 61,58.2139838 Z" id="Stroke-124" stroke="#E08DAC" stroke-width="0.25"></path>
                    <path d="M60,58.2139838 C60,78.9873036 85.4691395,82.1879096 91,64.508204 C80.0421649,69.2982026 67.9792963,58.6102761 61.8450433,58 C68.3265315,63.0441044 77.8171552,68.1698606 85.9487227,68.0361207 C76.2666927,76.9495305 62.9785388,66.852171 60.1387518,58.1625995 C60.0917897,58.1801969 60.0448275,58.1942747 60,58.2139838" id="Fill-125" fill="#FFFFFF"></path>
                    <path d="M60,58.2139838 C60,78.9873036 85.4691395,82.1879096 91,64.508204 C80.0421649,69.2982026 67.9792963,58.6102761 61.8450433,58 C68.3265315,63.0441044 77.8171552,68.1698606 85.9487227,68.0361207 C76.2666927,76.9495305 62.9785388,66.852171 60.1387518,58.1625995 C60.0917897,58.1801969 60.0448275,58.1942747 60,58.2139838 Z" id="Stroke-126" stroke="#E08DAC" stroke-width="0.25"></path>
                    <path d="M16.1980095,11 C21.7904478,12.5121607 30.4007675,17.3472627 32.5967549,20.6320823 C28.2019338,17.7673073 22.726909,16.8368555 20.161603,16.2424394 C21.5541977,31.6351339 29.7553494,34.8754782 41,42 C24.2696506,38.5542221 14.4610021,28.0509883 16.1980095,11" id="Fill-127" fill="#FFFFFF"></path>
                    <path d="M16.1980095,11 C21.7904478,12.5121607 30.4007675,17.3472627 32.5967549,20.6320823 C28.2019338,17.7673073 22.726909,16.8368555 20.161603,16.2424394 C21.5541977,31.6351339 29.7553494,34.8754782 41,42 C24.2696506,38.5542221 14.4610021,28.0509883 16.1980095,11 Z" id="Stroke-128" stroke="#50A9EC" stroke-width="0.25"></path>
                    <path d="M28,63.4948667 C16.1954884,66.5086837 6.92787784,65.5007581 0,55.8066122 C3.63343464,53.2668788 7.55328244,52.3379671 10.3911249,52 C6.20423492,54.0463944 3.87695501,55.5018442 3.33110963,56.2401929 C13.1985274,64.6548443 18.083463,61.9345076 28,63.4948667" id="Fill-129" fill="#FFFFFF"></path>
                    <path d="M28,63.4948667 C16.1954884,66.5086837 6.92787784,65.5007581 0,55.8066122 C3.63343464,53.2668788 7.55328244,52.3379671 10.3911249,52 C6.20423492,54.0463944 3.87695501,55.5018442 3.33110963,56.2401929 C13.1985274,64.6548443 18.083463,61.9345076 28,63.4948667 Z" id="Stroke-130" stroke="#50A9EC" stroke-width="0.25"></path>
                    <path d="M10.2065976,23 C18.5392658,30.5047971 18.4059944,33.7032853 29,40 C14.238235,38.7170744 8.83112295,40.2683059 10.2065976,23" id="Fill-131" fill="#FFFFFF"></path>
                    <path d="M104.80199,11 C99.2088406,12.5121607 90.5978093,17.3472627 88.4032451,20.6320823 C92.796643,17.7673073 98.2723794,16.8368555 100.837685,16.2424394 C99.4458023,31.6351339 91.243939,34.8754782 80,42 C96.7303494,38.5542221 106.538998,28.0509883 104.80199,11" id="Fill-132" fill="#FFFFFF"></path>
                    <path d="M104.80199,11 C99.2088406,12.5121607 90.5978093,17.3472627 88.4032451,20.6320823 C92.796643,17.7673073 98.2723794,16.8368555 100.837685,16.2424394 C99.4458023,31.6351339 91.243939,34.8754782 80,42 C96.7303494,38.5542221 106.538998,28.0509883 104.80199,11 Z" id="Stroke-133" stroke="#50A9EC" stroke-width="0.25"></path>
                    <path d="M109.793213,23 C101.460629,30.5047971 101.593899,33.7032853 91,40 C105.762329,38.7170744 111.169386,40.2683059 109.793213,23" id="Fill-134" fill="#FFFFFF"></path>
                    <path d="M77.8209871,0 C74.5809623,2.28214128 71.0721988,7.9410129 70,11.8608439 C71.9776417,9.65558949 75.5387749,5.61693334 77.6011726,4.64746015 C89.6344676,20.6364286 83.1750902,33.1340353 72.0541289,46 C89.9748701,34.7172053 91.6320925,15.7387367 77.8209871,0" id="Fill-135" fill="#FFFFFF"></path>
                    <path d="M77.8209871,0 C74.5809623,2.28214128 71.0721988,7.9410129 70,11.8608439 C71.9776417,9.65558949 75.5387749,5.61693334 77.6011726,4.64746015 C89.6344676,20.6364286 83.1750902,33.1340353 72.0541289,46 C89.9748701,34.7172053 91.6320925,15.7387367 77.8209871,0 Z" id="Stroke-136" stroke="#E08DAC" stroke-width="0.25"></path>
                    <path d="M63,58.2217319 C82.6765668,30.8391806 101.353329,50.0381115 113,33 C112.337892,55.7372907 96.3501133,68.8654502 75.1458735,62.314974 C89.745812,64.3784205 103.680147,55.6800125 110.512375,39.0170731 C103.507453,44.8007376 92.8605867,43.6659136 83.906396,45.8324609 C76.0359091,47.7369605 69.7420365,52.7982039 64.6577174,58.9978512 C64.1536203,58.6319868 63.6481248,58.4859275 63,58.2217319" id="Fill-137" fill="#FFFFFF"></path>
                    <path d="M63,58.2217319 C82.6765668,30.8391806 101.353329,50.0381115 113,33 C112.337892,55.7372907 96.3501133,68.8654502 75.1458735,62.314974 C89.745812,64.3784205 103.680147,55.6800125 110.512375,39.0170731 C103.507453,44.8007376 92.8605867,43.6659136 83.906396,45.8324609 C76.0359091,47.7369605 69.7420365,52.7982039 64.6577174,58.9978512 C64.1536203,58.6319868 63.6481248,58.4859275 63,58.2217319 Z" id="Stroke-138" stroke="#58BC82" stroke-width="0.25"></path>
                </g>
                <g id="images/logotype_blanc" transform="translate(159.000000, 7.000000)">
                    <path d="M115.965181,59.6572345 C120.614141,59.6572345 127.190718,56.9877474 131.726289,51.996967 C133.200349,50.4881265 132.973571,48.282898 131.953067,49.2114152 C129.458503,51.3005791 125.489879,53.2736783 122.768537,53.2736783 C116.07857,53.2736783 115.738402,47.3543807 115.965181,38.8816606 C116.19196,32.1499104 116.645517,25.8824189 116.985684,22.4004791 C117.099074,21.3558972 117.325852,21.1237679 118.119577,21.2398325 C119.14008,21.2398325 121.407866,21.3558972 123.675651,21.3558972 C127.871054,21.3558972 132.633403,20.4273799 135.241356,17.6418281 C136.488638,16.3651169 136.14847,15.9008582 135.354745,16.0169229 C134.447631,16.1329875 132.293235,16.4811815 129.231725,16.3651169 C125.716658,16.3651169 121.974812,16.1329875 118.459745,15.7847936 C117.66602,15.6687289 117.552631,15.4365996 117.66602,14.624147 C118.006188,12.0707245 118.232966,8.24059076 118.346356,6.03536225 C118.459745,3.83013373 118.459745,0 117.099074,0 C116.07857,0 111.543,3.01768112 110.068939,4.41045703 C109.615382,4.87471566 109.615382,5.33897429 109.95555,5.91929759 C110.522496,7.19600883 110.409107,11.3743365 110.068939,14.624147 C109.95555,15.5526642 109.728771,15.6687289 108.935047,16.0169229 C106.100315,16.4811815 103.71914,18.1060867 102.471859,19.8470566 C101.678134,21.0077032 102.018302,21.3558972 102.585248,21.1237679 C103.71914,20.7755739 106.553872,20.8916385 108.48149,21.0077032 C109.275214,21.0077032 109.388604,21.3558972 109.275214,22.5165438 C108.935047,26.6948715 108.3681,36.9085614 108.027933,42.0154064 C107.801154,46.4258634 107.687765,50.6041911 108.594879,53.5058076 C109.95555,58.2644586 113.470617,59.6572345 115.965181,59.6572345 Z M161.094108,12.9992418 C165.289511,12.9992418 168.5778,18.3382161 167.784075,26.1145482 C167.330518,31.5695871 167.103739,38.6495313 166.876961,44.1045703 C166.763571,47.58651 166.876961,50.1399325 167.897464,51.5327084 C168.917967,52.9254843 170.165249,53.5058076 171.63931,53.5058076 C172.999981,53.5058076 175.381155,52.693355 176.515048,51.996967 C177.195384,51.6487731 177.195384,53.1576136 176.288269,54.2021955 C174.587431,56.5234887 170.505417,59.6572345 165.856457,59.6572345 C162.794947,59.6572345 160.186994,56.6395534 159.053101,53.9700662 C158.599544,53.1576136 158.259376,53.1576136 157.238873,53.8540016 C154.177363,55.9431654 148.281121,58.8447819 145.786557,58.8447819 C142.951826,58.8447819 139.20998,57.6841353 137.849309,55.0146482 C137.168973,53.7379369 136.715416,52.345161 136.715416,50.6041911 C136.715416,48.3989626 137.849309,46.4258634 139.20998,44.9170229 C143.291994,40.6226305 151.002464,37.2567554 157.579041,35.3997209 C158.939712,34.9354622 159.506658,34.4712036 159.620048,33.658751 C159.733437,32.2659751 159.733437,30.4089405 159.846826,28.3197767 C159.960215,24.6057076 159.27988,19.034604 155.084477,19.034604 C150.662296,19.034604 144.199108,23.793255 140.570651,25.8824189 C139.890316,26.1145482 139.323369,25.9984835 139.890316,24.6057076 C140.684041,22.6326084 142.044712,20.7755739 143.632161,19.8470566 C146.807061,18.1060867 151.229242,15.9008582 154.517531,14.624147 C157.352262,13.3474357 159.393269,12.9992418 161.094108,12.9992418 Z M150.662296,53.041549 C147.374007,53.041549 144.539276,50.7202558 144.652665,47.3543807 C144.652665,45.0330875 146.013336,43.7563763 147.940953,42.5957297 C149.868571,41.5511478 154.517531,40.0423072 157.69243,39.4619839 C158.826323,39.3459193 159.166491,39.4619839 159.166491,40.3905012 C159.053101,42.7117944 158.826323,45.1491522 158.712934,47.0061867 C158.599544,48.7471566 158.032598,49.9078032 156.671927,50.9523851 C155.311256,51.996967 152.476524,53.041549 150.662296,53.041549 Z M67.2105381,19.2714123 C68.9858188,19.2714123 70.9500429,21.386741 71.9793908,24.2071792 C73.4751927,27.732727 74.8784911,32.6664792 76.0928461,38.1058958 C77.3072011,43.6460423 78.5235242,48.1788894 79.0824817,49.6898384 C79.4584004,50.8985976 80.0193261,51.7044371 80.5802518,51.7044371 C77.2146975,57.8811968 75.3744675,60.701635 75.0634982,60.1637372 C74.2230937,58.5540728 73.380721,55.7336346 72.6328201,52.7117365 C70.4816207,43.3438524 68.5193648,35.4869174 66.2756619,29.7453111 C65.0593388,26.8261575 63.5635369,25.4159384 62.4416855,25.4159384 C61.4143057,25.4159384 59.8240321,25.7181282 58.7966524,26.3225079 C57.9562479,26.9268875 57.8617762,25.7181282 58.7041488,24.509369 C60.4794295,22.0918505 64.3114379,19.2714123 67.2105381,19.2714123 Z M48.7928516,61 C45.0722638,61 42.5210035,59.9118931 39.5445333,54.1449263 C37.5247856,50.2277414 35.8239455,45.4400709 33.8041978,39.3466721 C33.3789878,38.1497545 33.2726853,38.0409438 31.2529376,38.0409438 C24.6621821,38.0409438 18.6029391,38.4761866 16.0516788,39.3466721 C14.6697462,39.8907256 13.7130236,40.7612111 12.9689061,41.7405073 C10.0987383,45.9841244 7.86638566,52.1863339 7.86638566,56.3211402 C7.86638566,56.8651937 7.44117562,57.5180578 5.74033548,58.4973541 C3.72058781,59.6942717 1.80714265,60.4559465 1.1693276,60.4559465 C0.425210035,60.4559465 7.10542736e-15,59.9118931 7.10542736e-15,58.7149754 C7.10542736e-15,56.8651937 1.48823512,53.0568194 3.50798279,49.4660665 C5.74033548,45.3312602 9.14201576,39.5642935 13.2878136,32.9268412 C17.6462165,25.9629569 24.024367,14.8642662 25.7252071,9.85897431 C26.1504172,8.553246 26.8945347,7.13870699 27.9575598,6.05060006 C28.8079799,4.96249313 30.1899125,3.65676481 31.1466351,2.3510365 C31.8907527,1.37174026 32.9537777,1.04530818 33.3789878,1.04530818 C33.9105003,1.04530818 33.8041978,1.48055096 33.8041978,2.56865789 C33.6978953,3.54795412 33.5915928,5.3977359 33.5915928,6.9210856 C33.9105003,13.7761593 37.4184831,25.7453355 39.8634408,32.3827878 C40.1823484,33.2532733 40.3949534,33.362084 41.1390709,33.362084 C43.6903311,33.362084 48.261339,33.7973268 51.2378093,34.4501909 C53.1512544,34.776623 53.1512544,35.2118658 52.1945319,36.0823513 C50.2810867,37.4968903 45.6037763,37.9321331 42.9462136,38.0409438 C41.8831885,38.0409438 41.776886,38.1497545 42.202096,39.2378614 C43.5840286,43.3726677 44.6470537,45.9841244 46.3478939,49.0308238 C49.0054566,53.927305 51.8756243,56.2123295 55.0646996,56.2123295 C56.7655397,56.2123295 58.9978924,55.7770867 60.4861275,55.2330333 C61.2302451,54.9066012 61.6554551,54.9066012 61.6554551,55.341844 C61.6554551,55.7770867 60.9113376,56.9740044 60.0609175,57.5180578 C58.1474723,58.7149754 53.1512544,61 48.7928516,61 Z M30.9340301,33.5797054 C31.9970552,33.5797054 32.2096602,33.4708947 31.8907527,32.3827878 C29.5520975,24.5484179 28.4890724,19.9783688 27.9575598,17.9109656 C27.7449548,16.714048 27.2134423,16.6052373 26.4693247,17.9109656 C24.236972,22.1545826 20.0911742,29.5537097 17.539914,33.9061375 C17.1147039,34.6678123 17.3273089,35.1030551 18.390334,34.776623 C20.8352917,34.2325695 27.6386523,33.5797054 30.9340301,33.5797054 Z" id="Combined-Shape" fill="#FFFFFF"></path>
                    <g id="Group" transform="translate(63.000000, 19.000000)">
                        <path d="M19.1242165,24.2200062 L17.7642632,23.5414452 C17.3365543,23.3286978 16.8205567,23.5093324 16.6125882,23.9488764 C16.4046196,24.3844063 16.5792347,24.9142676 17.0089057,25.127015 L18.4041219,25.8229163 L-1.42108547e-14,66.7899687 L0.346382507,66.7899687 L20.5907633,26.9135621 L22.3768494,27.8044202 C22.8025964,28.0171675 23.3185939,27.836533 23.5285244,27.398996 C23.736493,26.961459 23.557954,26.4315977 23.130245,26.2188504 L21.3854328,25.3482605 L21.5140621,25.0948927 L23.2544375,25.9629515 C23.6821465,26.1756988 24.198144,25.9950643 24.4080746,25.5555202 C24.6160432,25.1199903 24.4375041,24.590129 24.0097951,24.3773817 L22.3091246,23.5288167 L22.4377176,23.2755206 L24.1337915,24.1214827 C24.5595385,24.3342301 25.075536,24.1535956 25.2854665,23.7140515 C25.4934351,23.2765145 25.3148961,22.7486603 24.8871871,22.535913 L23.2323803,21.7102321 L23.3614127,21.4560704 L25.0133416,22.280014 C25.4390886,22.4927614 25.9550861,22.3101198 26.1650167,21.8725828 C26.3729853,21.4350458 26.1944462,20.9071916 25.7667372,20.6944442 L24.1560722,19.8907883 L24.284997,19.6368385 L25.8907336,20.4377425 C26.3164806,20.6504898 26.8344401,20.4698553 27.0443706,20.0323183 C27.2523392,19.5947813 27.0738001,19.06492 26.6460912,18.8521727 L25.0800496,18.0707821 L25.2086921,17.8173883 L26.7702837,18.5962738 C27.1960307,18.8090211 27.7120282,18.6283866 27.9219588,18.1888426 C28.1299274,17.7533126 27.9513883,17.2234513 27.5236793,17.010704 L26.003345,16.2521194 L26.1323476,15.9980162 L27.6496377,16.7548051 C28.0753847,16.9675524 28.5913822,16.7869179 28.8013127,16.3473738 C29.0092813,15.9098369 28.8307422,15.3819826 28.4030333,15.1692353 L26.9269972,14.4327537 L27.0556464,14.1793468 L28.5272258,14.9133364 C28.9529728,15.1260837 29.4709323,14.9434421 29.6808629,14.5059051 C29.8888314,14.0683682 29.7102924,13.5405139 29.2825834,13.3277666 L27.8506891,12.6133099 L29.7966794,8.78019184 L26.7492918,7.24680536 L24.9815578,11.1817309 L23.9166017,10.6503614 C23.4869307,10.437614 22.9728952,10.6182486 22.7629646,11.0557855 C22.554996,11.4933225 22.7315731,12.0211768 23.1592821,12.2359312 L24.2610843,12.7854844 L24.1447188,13.0445107 L23.0370515,12.4918301 C22.6093426,12.2790827 22.093345,12.4597173 21.8853765,12.8972543 C21.6774079,13.3347912 21.852023,13.8626455 22.2816939,14.0773999 L23.4246073,14.6474584 L23.3079158,14.9072106 L22.1576976,14.3332988 C21.7299886,14.1205515 21.2159531,14.301186 21.0060225,14.738723 C20.7980539,15.17626 20.974631,15.7041142 21.40234,15.9188686 L22.5878071,16.5101519 L22.471436,16.7691907 L21.2801094,16.1747675 C20.8504385,15.9620202 20.3364029,16.1426547 20.1264724,16.5821987 C19.9185038,17.0177287 20.0950809,17.54759 20.5227899,17.7603373 L21.750971,18.3729254 L21.6343383,18.6325464 L20.4007555,18.017039 C19.9730465,17.8042917 19.457049,17.9849262 19.2490804,18.4224632 C19.0411118,18.8600002 19.215727,19.3878545 19.6453979,19.6026088 L20.9142353,20.2354753 L20.7974993,20.4953262 L19.5212053,19.8585078 C19.0934964,19.6457604 18.5794608,19.826395 18.3695303,20.2639319 C18.1615617,20.7014689 18.3381388,21.2293232 18.7658478,21.4440776 L20.0773991,22.0982488 L19.9610555,22.3572264 L18.6438134,21.6999765 C18.2141424,21.4872291 17.7001069,21.6678637 17.4901763,22.1054006 C17.2822078,22.5429376 17.4587849,23.0707919 17.8864938,23.2855463 L19.2405989,23.9609423 L19.1242165,24.2200062 Z" id="Combined-Shape" fill="#FFFFFF"></path>
                        <path d="M33.8864198,4.17437304 C33.8864198,6.47953745 32.0546849,8.34874608 29.7957343,8.34874608 C27.538674,8.34874608 25.7069391,6.47953745 25.7069391,4.17437304 C25.7069391,1.86920863 27.538674,0 29.7957343,0 C32.0546849,0 33.8864198,1.86920863 33.8864198,4.17437304 Z" id="Stroke-112" stroke="#FFFFFF" stroke-width="2"></path>
                    </g>
                </g>
            </g>
        </g>
    </g>
</svg>