<?xml version="1.0" encoding="UTF-8"?>
<svg width="89px" height="126px" viewBox="0 0 89 126" version="1.1" xmlns="http://www.w3.org/2000/svg" xmlns:xlink="http://www.w3.org/1999/xlink">
    <!-- Generator: Sketch 47.1 (45422) - http://www.bohemiancoding.com/sketch -->
    <title>Group 5</title>
    <desc>Created with Sketch.</desc>
    <defs>
        <linearGradient x1="50%" y1="0%" x2="50%" y2="100%" id="linearGradient-1">
            <stop stop-color="#F6EBB8" offset="0%"></stop>
            <stop stop-color="#EAD281" offset="100%"></stop>
        </linearGradient>
        <radialGradient cx="50.0035243%" cy="49.9979234%" fx="50.0035243%" fy="49.9979234%" r="53.3862962%" gradientTransform="translate(0.500035,0.499979),scale(1.000000,0.883839),translate(-0.500035,-0.499979)" id="radialGradient-2">
            <stop stop-color="#FDEDB3" offset="0%"></stop>
            <stop stop-color="#C4992D" offset="100%"></stop>
        </radialGradient>
    </defs>
    <g id="Page-1" stroke="none" stroke-width="1" fill="none" fill-rule="evenodd">
        <g id="Artboard-Copy" transform="translate(-20.000000, 0.000000)" fill-rule="nonzero">
            <g id="Group-5" transform="translate(20.000000, -4.000000)">
                <g id="snow">
                    <rect id="Rectangle-path" fill="url(#linearGradient-1)" x="29.363" y="0.062" width="1" height="40"></rect>
                    <g id="Group" transform="translate(0.000000, 23.000000)" fill="#EAD281">
                        <path d="M56.498,41.96 L50.3,44.648 L48.477,43.632 L56.961,39.957 C57.425,39.759 57.637,39.222 57.44,38.759 C57.24,38.295 56.701,38.08 56.238,38.28 L46.462,42.517 L44.73,41.551 L55.377,36.94 C55.84,36.741 56.055,36.202 55.856,35.739 C55.656,35.276 55.119,35.061 54.653,35.261 L42.716,40.434 L41.235,39.61 L47.324,36.973 C47.788,36.772 48.001,36.235 47.801,35.769 C47.603,35.308 47.067,35.094 46.602,35.292 L39.45,38.392 L37.629,34.352 L39.334,30.213 L46.582,33.074 C47.053,33.26 47.584,33.028 47.769,32.559 C47.951,32.089 47.72,31.559 47.248,31.373 L41.078,28.939 L42.532,28.066 L54.633,32.842 C55.103,33.025 55.635,32.795 55.817,32.323 C56.002,31.855 55.77,31.323 55.302,31.138 L44.509,26.881 L46.21,25.861 L56.117,29.771 C56.586,29.955 57.116,29.723 57.302,29.256 C57.485,28.784 57.253,28.255 56.783,28.071 L48.184,24.678 L49.973,23.605 L56.253,26.082 C56.724,26.268 57.256,26.036 57.441,25.567 C57.622,25.097 57.392,24.566 56.922,24.383 L51.949,22.42 L55.403,20.349 C55.835,20.088 55.974,19.527 55.715,19.093 C55.456,18.661 54.895,18.524 54.458,18.782 L51.009,20.852 L51.62,15.537 C51.677,15.035 51.317,14.583 50.815,14.527 C50.317,14.467 49.86,14.827 49.805,15.329 L49.031,22.035 L47.243,23.109 L48.302,13.923 C48.36,13.42 48,12.966 47.497,12.911 C46.997,12.851 46.545,13.214 46.486,13.712 L45.266,24.293 L43.567,25.311 L44.893,13.784 C44.952,13.282 44.593,12.831 44.091,12.772 C43.59,12.715 43.137,13.076 43.079,13.577 L41.591,26.5 L40.134,27.371 L40.897,20.775 C40.953,20.274 40.593,19.823 40.092,19.768 C39.591,19.709 39.138,20.067 39.082,20.571 L38.188,28.311 L33.774,27.869 L31.047,24.326 L37.147,19.479 C37.544,19.164 37.611,18.591 37.296,18.194 C36.984,17.798 36.411,17.733 36.013,18.044 L30.818,22.169 L30.79,20.476 L40.972,12.391 C41.368,12.076 41.437,11.504 41.123,11.107 C40.808,10.711 40.234,10.644 39.838,10.955 L30.752,18.173 L30.72,16.191 L39.057,9.572 C39.451,9.257 39.519,8.681 39.207,8.287 C38.892,7.891 38.318,7.824 37.922,8.137 L30.682,13.887 L30.647,11.804 L35.933,7.605 C36.327,7.293 36.394,6.715 36.083,6.321 C35.769,5.925 35.192,5.858 34.798,6.17 L30.61,9.498 L30.546,5.474 C30.537,4.967 30.121,4.566 29.613,4.572 C29.107,4.58 28.704,4.999 28.711,5.502 L28.778,9.526 L24.481,6.342 C24.076,6.039 23.503,6.128 23.204,6.533 C22.903,6.939 22.989,7.512 23.396,7.812 L28.816,11.832 L28.849,13.915 L21.422,8.407 C21.018,8.108 20.446,8.193 20.144,8.6 C19.846,9.005 19.932,9.578 20.339,9.879 L28.888,16.22 L28.919,18.202 L19.602,11.288 C19.194,10.988 18.623,11.074 18.324,11.481 C18.025,11.888 18.11,12.46 18.516,12.758 L28.958,20.506 L28.985,22.199 L23.656,18.244 C23.25,17.945 22.677,18.031 22.377,18.436 C22.075,18.843 22.165,19.417 22.572,19.715 L28.827,24.358 L26.241,27.956 L21.803,28.547 L20.656,20.841 C20.583,20.342 20.119,19.998 19.619,20.07 C19.121,20.145 18.775,20.608 18.848,21.106 L19.826,27.676 L18.344,26.852 L16.431,13.986 C16.359,13.487 15.894,13.143 15.394,13.216 C14.895,13.288 14.551,13.752 14.625,14.252 L16.331,25.732 L14.597,24.771 L13.03,14.235 C12.96,13.737 12.493,13.391 11.996,13.466 C11.497,13.54 11.149,14.002 11.224,14.501 L12.587,23.651 L10.761,22.637 L9.767,15.959 C9.696,15.46 9.231,15.114 8.731,15.186 C8.232,15.262 7.887,15.726 7.961,16.227 L8.749,21.52 L5.225,19.562 C4.786,19.318 4.23,19.478 3.987,19.921 C3.74,20.359 3.901,20.916 4.342,21.162 L7.861,23.115 L2.955,25.241 C2.492,25.443 2.278,25.978 2.478,26.441 C2.675,26.905 3.212,27.12 3.676,26.919 L9.876,24.234 L11.698,25.248 L3.215,28.925 C2.751,29.123 2.536,29.66 2.737,30.125 C2.937,30.588 3.472,30.801 3.935,30.603 L13.711,26.365 L15.445,27.329 L4.798,31.943 C4.335,32.142 4.119,32.679 4.319,33.143 C4.516,33.608 5.056,33.821 5.518,33.623 L17.457,28.448 L18.938,29.271 L12.85,31.91 C12.385,32.109 12.171,32.647 12.371,33.112 C12.572,33.573 13.107,33.786 13.57,33.588 L20.725,30.489 L22.546,34.528 L20.841,38.666 L13.591,35.806 C13.121,35.621 12.59,35.853 12.405,36.321 C12.222,36.793 12.454,37.321 12.924,37.508 L19.094,39.942 L17.64,40.813 L5.541,36.04 C5.072,35.854 4.54,36.085 4.356,36.556 C4.171,37.026 4.405,37.554 4.875,37.738 L15.665,41.999 L13.965,43.018 L4.057,39.108 C3.587,38.923 3.057,39.156 2.874,39.625 C2.688,40.096 2.919,40.625 3.39,40.809 L11.99,44.205 L10.201,45.276 L3.919,42.799 C3.447,42.612 2.919,42.844 2.736,43.313 C2.551,43.782 2.781,44.313 3.252,44.496 L8.227,46.458 L4.772,48.531 C4.34,48.793 4.198,49.353 4.459,49.784 C4.72,50.219 5.282,50.358 5.715,50.098 L9.167,48.027 L8.555,53.343 C8.497,53.844 8.859,54.298 9.359,54.355 C9.862,54.412 10.315,54.052 10.37,53.55 L11.142,46.844 L12.933,45.772 L11.873,54.958 C11.816,55.459 12.176,55.913 12.676,55.969 C13.178,56.028 13.632,55.665 13.689,55.166 L14.908,44.587 L16.609,43.566 L15.282,55.096 C15.223,55.598 15.583,56.049 16.085,56.106 C16.586,56.163 17.037,55.803 17.097,55.301 L18.584,42.383 L20.037,41.511 L19.278,48.106 C19.22,48.606 19.581,49.061 20.084,49.115 C20.585,49.177 21.036,48.815 21.093,48.312 L21.987,40.573 L26.399,41.011 L29.128,44.555 L23.029,49.403 C22.633,49.714 22.564,50.293 22.879,50.686 C23.19,51.082 23.767,51.15 24.162,50.835 L29.357,46.709 L29.388,48.403 L19.204,56.488 C18.808,56.801 18.741,57.377 19.054,57.772 C19.367,58.171 19.942,58.235 20.337,57.923 L29.425,50.707 L29.455,52.688 L21.12,59.306 C20.725,59.619 20.656,60.195 20.969,60.591 C21.283,60.987 21.857,61.055 22.255,60.744 L29.494,54.991 L29.526,57.075 L24.245,61.271 C23.849,61.584 23.778,62.16 24.093,62.556 C24.407,62.952 24.984,63.018 25.379,62.704 L29.567,59.38 L29.632,63.402 C29.638,63.909 30.057,64.31 30.564,64.302 C31.069,64.295 31.472,63.88 31.464,63.372 L31.398,59.348 L35.693,62.536 C36.098,62.834 36.674,62.751 36.971,62.342 C37.272,61.936 37.184,61.364 36.778,61.066 L31.36,57.044 L31.327,54.963 L38.751,60.473 C39.158,60.77 39.731,60.684 40.028,60.278 C40.331,59.87 40.242,59.298 39.837,59.001 L31.289,52.658 L31.255,50.675 L40.574,57.592 C40.983,57.889 41.553,57.805 41.852,57.396 C42.151,56.992 42.066,56.419 41.66,56.118 L31.22,48.374 L31.191,46.679 L36.521,50.635 C36.926,50.932 37.5,50.847 37.798,50.439 C38.098,50.036 38.011,49.461 37.605,49.164 L31.346,44.521 L33.933,40.923 L38.372,40.331 L39.518,48.037 C39.594,48.534 40.056,48.879 40.556,48.806 C41.053,48.733 41.399,48.269 41.326,47.77 L40.347,41.204 L41.832,42.024 L43.744,54.891 C43.817,55.392 44.282,55.736 44.78,55.663 C45.28,55.589 45.625,55.124 45.551,54.625 L43.841,43.145 L45.577,44.109 L47.142,54.641 C47.215,55.14 47.68,55.486 48.18,55.413 C48.677,55.337 49.022,54.874 48.951,54.376 L47.589,45.225 L49.411,46.239 L50.407,52.92 C50.478,53.418 50.946,53.761 51.442,53.691 C51.94,53.617 52.288,53.15 52.213,52.651 L51.428,47.357 L54.949,49.316 C55.39,49.559 55.945,49.399 56.188,48.958 C56.431,48.518 56.268,47.961 55.831,47.718 L52.312,45.763 L57.22,43.637 C57.683,43.438 57.898,42.901 57.699,42.436 C57.501,41.977 56.963,41.761 56.498,41.96 Z M35.062,34.939 L37.118,38.402 L33.094,38.451 C32.696,38.456 32.33,38.675 32.135,39.022 L30.18,42.505 L28.142,39.071 C28.04,38.898 27.896,38.762 27.728,38.668 C27.56,38.573 27.369,38.523 27.169,38.524 L23.174,38.574 L25.129,35.09 C25.324,34.743 25.317,34.319 25.115,33.976 L23.058,30.513 L27.083,30.465 C27.482,30.461 27.847,30.243 28.041,29.895 L29.996,26.414 L32.035,29.846 C32.238,30.188 32.609,30.395 33.007,30.392 L37,30.342 L35.046,33.823 C34.854,34.17 34.858,34.598 35.062,34.939 Z" id="Shape"></path>
                        <circle id="Oval" cx="30.224" cy="34.794" r="2.292"></circle>
                        <circle id="Oval" cx="29.491" cy="3.053" r="2.292"></circle>
                        <circle id="Oval" cx="24.146" cy="24.806" r="1.376"></circle>
                        <circle id="Oval" cx="35.479" cy="24.86" r="1.376"></circle>
                        <circle id="Oval" cx="24.057" cy="43.639" r="1.376"></circle>
                        <circle id="Oval" cx="35.39" cy="43.693" r="1.376"></circle>
                        <circle id="Oval" cx="41.101" cy="34.386" r="1.376"></circle>
                        <circle id="Oval" cx="19.1" cy="34.282" r="1.376"></circle>
                        <circle id="Oval" cx="3.074" cy="19.453" r="2.292"></circle>
                        <circle id="Oval" cx="3.31" cy="50.238" r="2.292"></circle>
                        <circle id="Oval" cx="30.626" cy="65.579" r="2.292"></circle>
                        <circle id="Oval" cx="56.876" cy="49.298" r="2.292"></circle>
                        <path d="M57.776,20.17 C56.679,20.797 55.277,20.414 54.649,19.316 C54.022,18.215 54.405,16.816 55.504,16.187 C56.603,15.56 58.002,15.942 58.63,17.043 C59.258,18.143 58.876,19.543 57.776,20.17 Z" id="Shape"></path>
                    </g>
                </g>
                <g id="Group-2" transform="translate(54.000000, 2.000000)">
                    <path d="M21.075,93.979 L21.075,89 L12.771,89 L12.771,94.032 C5.431,95.924 0,102.568 0,110.499 C0,119.902 7.622,127.524 17.025,127.524 C26.427,127.524 34.049,119.902 34.049,110.499 C34.05,102.495 28.519,95.798 21.075,93.979 Z" id="Shape" fill="url(#radialGradient-2)"></path>
                    <path d="M15.6334532,89.6389061 C12.7144532,89.2469061 10.6574532,86.5519061 11.0474532,83.6319061 C11.4414532,80.7129061 14.1364532,78.6559061 17.0574532,79.0479061 C19.9754532,79.4399061 22.0334532,82.1349061 21.6394532,85.0549061 C21.2474532,87.9739061 18.5544532,90.0309061 15.6334532,89.6389061 Z M16.9424532,79.8829061 C14.4854532,79.5529061 12.2134532,81.2849061 11.8844532,83.7449061 C11.5534532,86.2029061 13.2854532,88.4709061 15.7464532,88.8019061 C18.2044532,89.1319061 20.4734532,87.3999061 20.8034532,84.9409061 C21.1334532,82.4819061 19.4014532,80.2129061 16.9424532,79.8829061 Z" id="Shape" fill="#BDA791"></path>
                    <rect id="Rectangle-path" fill="#CFAA48" x="16" y="0" width="1" height="80"></rect>
                    <path d="M14.783,122.376881 L16.975,120.205881 L19.15,122.376881 C19.357,122.581881 19.69,122.581881 19.893,122.376881 C20.103,122.166881 20.103,121.837881 19.893,121.623881 L17.497,119.223881 L17.497,117.954881 L19.151,119.607881 C19.358,119.813881 19.691,119.813881 19.894,119.607881 C20.104,119.397881 20.104,119.067881 19.894,118.855881 L17.497,116.455881 L17.497,115.185881 L19.151,116.840881 C19.358,117.043881 19.691,117.043881 19.894,116.840881 C20.104,116.627881 20.104,116.294881 19.894,116.086881 L17.497,113.689881 L17.497,111.177881 L19.688,112.444881 L20.544,115.712881 C20.618,115.994881 20.905,116.161881 21.197,116.088881 C21.473,116.011881 21.649,115.721881 21.567,115.441881 L20.981,113.189881 L22.088,113.826881 L22.941,117.095881 C23.015,117.378881 23.305,117.545881 23.59,117.471881 C23.873,117.400881 24.046,117.111881 23.964,116.829881 L23.371,114.573881 L24.482,115.217881 L25.342,118.479881 C25.415,118.763881 25.703,118.933881 25.987,118.856881 C26.273,118.783881 26.444,118.493881 26.365,118.211881 L25.576,115.222881 L28.548,114.429881 C28.825,114.358881 28.996,114.064881 28.92,113.778881 C28.852,113.503881 28.554,113.328881 28.27,113.408881 L24.992,114.284881 L23.89,113.647881 L26.148,113.048881 C26.429,112.974881 26.601,112.678881 26.527,112.395881 C26.453,112.112881 26.154,111.944881 25.876,112.021881 L22.588,112.900881 L21.498,112.262881 L23.747,111.660881 C24.039,111.583881 24.203,111.291881 24.126,111.010881 C24.045,110.728881 23.758,110.561881 23.473,110.635881 L20.197,111.516881 L18.028,110.265881 L20.217,108.995881 L23.472,109.885881 C23.758,109.964881 24.045,109.795881 24.126,109.512881 C24.203,109.234881 24.038,108.940881 23.751,108.860881 L21.509,108.255881 L22.617,107.616881 L25.87,108.501881 C26.153,108.579881 26.441,108.412881 26.525,108.125881 C26.598,107.852881 26.427,107.557881 26.152,107.483881 L23.897,106.872881 L25.01,106.232881 L28.266,107.117881 C28.545,107.196881 28.833,107.032881 28.916,106.744881 C28.994,106.467881 28.83,106.174881 28.544,106.094881 L25.568,105.283881 L26.36,102.315881 C26.438,102.032881 26.268,101.745881 25.987,101.665881 C25.704,101.596881 25.415,101.762881 25.337,102.045881 L24.459,105.323881 L23.355,105.957881 L23.96,103.700881 C24.042,103.416881 23.869,103.128881 23.586,103.049881 C23.307,102.976881 23.011,103.145881 22.937,103.429881 L22.057,106.709881 L20.963,107.339881 L21.563,105.084881 C21.645,104.801881 21.476,104.514881 21.193,104.435881 C20.911,104.363881 20.614,104.530881 20.54,104.815881 L19.663,108.092881 L17.497,109.345881 L17.497,106.818881 L19.894,104.442881 C20.104,104.237881 20.104,103.901881 19.894,103.688881 C19.69,103.488881 19.358,103.478881 19.151,103.688881 L17.497,105.324881 L17.497,104.050881 L19.894,101.674881 C20.104,101.471881 20.104,101.132881 19.894,100.924881 C19.69,100.718881 19.358,100.712881 19.151,100.924881 L17.497,102.557881 L17.497,101.284881 L19.894,98.8998807 C20.104,98.6998807 20.104,98.3598807 19.894,98.1548807 C19.69,97.9508807 19.358,97.9458807 19.151,98.1548807 L16.963,100.325881 L14.784,98.1548807 C14.58,97.9508807 14.241,97.9508807 14.035,98.1548807 C13.929,98.2568807 13.876,98.3958807 13.876,98.5278807 C13.876,98.6608807 13.928,98.8018807 14.035,98.9008807 L16.438,101.302881 L16.438,102.573881 L14.783,100.925881 C14.579,100.719881 14.24,100.719881 14.034,100.925881 C13.928,101.024881 13.875,101.164881 13.875,101.295881 C13.875,101.434881 13.927,101.568881 14.034,101.667881 L16.437,104.071881 L16.437,105.345881 L14.782,103.688881 C14.578,103.478881 14.239,103.478881 14.033,103.688881 C13.927,103.790881 13.874,103.925881 13.874,104.063881 C13.874,104.201881 13.926,104.334881 14.033,104.443881 L16.436,106.839881 L16.436,109.346881 L14.242,108.083881 L13.384,104.816881 C13.313,104.531881 13.025,104.364881 12.735,104.436881 C12.459,104.515881 12.287,104.802881 12.365,105.085881 L12.952,107.335881 L11.842,106.697881 L10.992,103.430881 C10.918,103.146881 10.626,102.977881 10.342,103.050881 C10.054,103.129881 9.888,103.417881 9.967,103.701881 L10.554,105.951881 L9.45,105.312881 L8.596,102.046881 C8.519,101.763881 8.223,101.597881 7.946,101.666881 C7.656,101.747881 7.489,102.033881 7.566,102.316881 L8.352,105.299881 L5.385,106.095881 C5.149,106.154881 5,106.371881 5,106.609881 C5,106.649881 5,106.697881 5.009,106.746881 C5.09,107.028881 5.38,107.198881 5.66,107.119881 L8.944,106.242881 L10.042,106.879881 L7.782,107.483881 C7.547,107.546881 7.391,107.756881 7.391,107.993881 C7.391,108.040881 7.398,108.088881 7.409,108.128881 C7.49,108.415881 7.78,108.582881 8.059,108.504881 L11.342,107.626881 L12.435,108.265881 L10.186,108.864881 C9.943,108.929881 9.786,109.144881 9.786,109.375881 C9.786,109.424881 9.797,109.468881 9.807,109.516881 C9.886,109.798881 10.172,109.967881 10.464,109.889881 L13.734,109.014881 L15.91,110.268881 L13.718,111.527881 L10.465,110.638881 C10.173,110.564881 9.887,110.730881 9.812,111.013881 C9.798,111.057881 9.787,111.106881 9.787,111.153881 C9.787,111.387881 9.944,111.597881 10.177,111.663881 L12.425,112.276881 L11.317,112.914881 L8.061,112.023881 C7.782,111.946881 7.491,112.114881 7.411,112.397881 C7.401,112.446881 7.393,112.489881 7.393,112.536881 C7.393,112.772881 7.548,112.986881 7.784,113.050881 L10.029,113.660881 L8.924,114.299881 L5.67,113.410881 C5.389,113.330881 5.093,113.495881 5.012,113.780881 C5.003,113.829881 5.003,113.871881 5.003,113.920881 C5.003,114.156881 5.152,114.365881 5.388,114.431881 L8.365,115.243881 L7.569,118.211881 C7.492,118.492881 7.659,118.786881 7.949,118.859881 C8.226,118.936881 8.517,118.768881 8.599,118.487881 L9.478,115.207881 L10.572,114.571881 L9.971,116.825881 C9.892,117.107881 10.058,117.397881 10.346,117.474881 C10.626,117.548881 10.915,117.386881 10.996,117.098881 L11.873,113.825881 L12.971,113.186881 L12.369,115.443881 C12.29,115.723881 12.463,116.013881 12.739,116.090881 C13.029,116.163881 13.317,115.998881 13.388,115.718881 L14.265,112.440881 L16.44,111.179881 L16.44,113.710881 L14.037,116.083881 C13.931,116.195881 13.878,116.325881 13.878,116.465881 C13.878,116.596881 13.93,116.735881 14.037,116.839881 C14.243,117.043881 14.581,117.047881 14.786,116.844881 L16.441,115.206881 L16.441,116.474881 L14.038,118.859881 C13.932,118.963881 13.879,119.093881 13.879,119.232881 C13.879,119.367881 13.931,119.505881 14.038,119.611881 C14.244,119.817881 14.582,119.817881 14.787,119.611881 L16.442,117.975881 L16.442,119.251881 L14.039,121.626881 C13.933,121.730881 13.88,121.868881 13.88,122.000881 C13.88,122.140881 13.932,122.274881 14.039,122.375881 C14.24,122.580881 14.579,122.580881 14.783,122.376881 Z" id="Shape" fill="#FFFFFF"></path>
                </g>
            </g>
        </g>
    </g>
</svg>