<?xml version="1.0" encoding="UTF-8"?>
<svg width="47px" height="65px" viewBox="0 0 47 65" version="1.1" xmlns="http://www.w3.org/2000/svg" xmlns:xlink="http://www.w3.org/1999/xlink">
    <!-- Generator: Sketch 46.2 (44496) - http://www.bohemiancoding.com/sketch -->
    <title>images/soins</title>
    <desc>Created with Sketch.</desc>
    <defs>
        <polygon id="path-1" points="0.283819876 42 31.9917292 42 31.9917292 0.134745882 0.283819876 0.134745882"></polygon>
    </defs>
    <g id="Site-web-Copy" stroke="none" stroke-width="1" fill="none" fill-rule="evenodd">
        <g id="Desktop" transform="translate(-748.000000, -1509.000000)">
            <g id="Group-11" transform="translate(727.000000, 1497.000000)">
                <g id="images/soins" transform="translate(21.000000, 12.000000)">
                    <path d="M33.7772363,17.7519841 C33.646096,17.6597222 33.542912,17.5868056 33.4717506,17.5332341 C30.207476,15.0739087 25.5372556,14.7083333 21.4165027,14.3854167 C17.258136,14.0605159 13.3305356,13.7524802 11.3054857,11.391369 C11.1972187,11.265377 11.0955596,11.1349206 11,11 C11.414261,15.3983135 14.0269006,16.6056548 21.458183,20.0421627 C21.5461181,20.0823413 21.6360865,20.1279762 21.7214801,20.1741071 C33.5861172,26.6279762 40.6920903,31.0882937 41.707665,43 C44.9023032,32.5277778 42.1427661,23.6393849 33.7772363,17.7519841" id="Fill-1" fill="#F9FCF9"></path>
                    <g id="Group-5" transform="translate(0.000000, 6.000000)" fill="#F9FCF9">
                        <path d="M23.7206,15.9835 C22.6111,15.3415 21.4466,14.686 20.2231,14.004 C20.1616,13.9695 20.0971,13.9365 20.0331,13.9065 C10.5176,9.398 8.5221,8.1945 9.1116,0.028 C9.1026,0.0355 9.0941,0.042 9.0851,0.049 C0.8266,6.8455 -1.8199,15.6875 1.2206,26.33 C2.8081,31.889 5.6166,36.5185 7.2046,38.8535 C7.1106,32.2315 10.5606,26.892 13.6381,23.461 C16.9511,19.7665 20.9831,17.0675 23.7206,15.9835" id="Fill-3"></path>
                    </g>
                    <g id="Group-8" transform="translate(8.000000, 23.000000)">
                        <mask id="mask-2" fill="white">
                            <use xlink:href="#path-1"></use>
                        </mask>
                        <g id="Clip-7"></g>
                        <path d="M30.8416985,24.3672635 C30.2533908,26.0344165 28.36736,31.1776871 26.62656,33.7574753 C24.8399754,36.4049576 21.1087754,40.8460871 16.1916062,40.8460871 C11.2778831,40.8460871 7.54717538,36.4049576 5.76059077,33.7574753 C3.80514462,30.8599694 2.17019077,26.6698518 1.67936,25.3525341 L1.56268308,24.4161812 C0.106436923,12.7243694 11.8213908,2.99964 17.1978831,1.37794588 C26.4414523,6.92639294 30.8416985,11.6032165 30.8416985,22.8532871 L30.8416985,24.3672635 Z M17.5735138,0.258769412 L17.36576,0.134745882 L17.1319138,0.197004706 C14.4773908,0.906063529 9.88120615,3.82284 6.23172923,8.02580471 C3.09228308,11.6417576 -0.464147692,17.4451694 0.421513846,24.5594753 L0.54656,25.5625341 L0.578067692,25.6924871 C1.04969846,26.9643459 2.74914462,31.3526047 4.80846769,34.4047694 C6.72256,37.2414988 10.7471754,42.0003459 16.1950523,42.0003459 C21.6394831,42.0003459 25.6640985,37.2414988 27.5786831,34.4047694 C29.42976,31.66044 31.3994831,26.25084 31.9587446,24.6582988 L31.9917292,24.5649106 L31.9917292,22.8532871 C31.9917292,11.0295459 27.1360985,5.96780471 17.5735138,0.258769412 L17.5735138,0.258769412 Z" id="Fill-6" fill="#F9FCF9" mask="url(#mask-2)"></path>
                    </g>
                    <path d="M46.7027612,19.3298918 C46.0291296,14.507461 43.9200269,7.89318689 37.6966955,3.76885759 C33.6943281,1.11647087 28.3220295,-0.244353505 22.954166,0.0361826064 C18.048531,0.292302609 14.5463364,2.51964971 11.0264016,5.34494235 C10.8977858,7.26185607 11.2378047,8.69592876 12.0745468,9.706955 C13.7288127,11.7045914 17.3029534,11.9945949 21.086526,12.3020386 C25.2411627,12.6388813 29.950178,13.0205698 33.3853544,15.7023555 C33.4474448,15.7506895 33.5376237,15.8159652 33.6514562,15.8991793 C42.0602713,22.0311107 44.9302279,31.2070832 41.9232782,42 C45.8837592,35.6842003 47.7770238,27.0234576 46.7027612,19.3298918" id="Fill-9" fill="#F9FCF9"></path>
                    <path d="M27.5351362,41.2412178 C27.5351362,41.1081967 27.4155236,41 27.2673081,41 C27.1196126,41 27,41.1081967 27,41.2412178 C27,41.3081967 27.0057206,41.3747073 27.0161217,41.4398126 C27.0057206,41.4660422 27,41.4941452 27,41.5236534 C27,42.888993 28.7941884,44 30.99974,44 C33.2052916,44 35,42.888993 35,41.5236534 L35,41.2412178 C35,41.1081967 34.8798674,41 34.7321719,41 C34.5844764,41 34.4643438,41.1081967 34.4643438,41.2412178 C34.4643438,42.1245902 32.8776572,42.870726 30.99974,42.870726 C29.1218228,42.870726 27.5351362,42.1245902 27.5351362,41.2412178" id="Fill-11" fill="#F9FCF9"></path>
                    <path d="M22,41.5236534 L22,41.2412178 C22,41.1081967 21.8803874,41 21.7321719,41 C21.5844764,41 21.4648638,41.1081967 21.4648638,41.2412178 C21.4648638,42.1245902 19.8781772,42.8702576 18.00026,42.8702576 C16.1223428,42.8702576 14.5356562,42.1245902 14.5356562,41.2412178 C14.5356562,41.1081967 14.4160437,41 14.2678281,41 C14.1201326,41 14,41.1081967 14,41.2412178 C14,41.3081967 14.0057206,41.3747073 14.0166417,41.4398126 C14.0062407,41.4660422 14,41.4941452 14,41.5236534 C14,42.888993 15.7947084,44 18.00026,44 C20.2058116,44 22,42.888993 22,41.5236534" id="Fill-13" fill="#F9FCF9"></path>
                    <path d="M28.2668652,54.7539591 C28.0797347,54.7598046 27.8935969,54.7358378 27.71143,54.6884888 C27.3877984,54.6037281 27.0770723,54.4423906 26.7991065,54.2342885 C26.6626055,54.1325758 26.5365281,54.0063116 26.3990343,53.8788783 C26.0212987,53.5263909 25.6301611,53.1622124 25.1064934,53.0423783 C24.6930193,52.9476802 24.3247146,53.0119814 24.0110103,53.2323591 C23.8238798,53.3644688 23.658093,53.548604 23.4997518,53.7987941 C23.341907,53.548604 23.1761202,53.3644688 22.9889897,53.2323591 C22.6757818,53.0119814 22.3069807,52.9476802 21.894003,53.0423783 C21.3698389,53.1622124 20.9787013,53.5263909 20.6009657,53.8788783 C20.4639682,54.0063116 20.3373945,54.1325758 20.2008935,54.2342885 C19.9229277,54.4423906 19.612698,54.6037281 19.28857,54.6884888 C19.1064031,54.7358378 18.9202653,54.7598046 18.7331348,54.7539591 C18.5196968,54.7475289 18.2015252,54.6323714 18,54.7177166 C18.0049637,54.7393452 18.0173729,54.7504517 18.0327603,54.7638965 C18.1121791,54.8293668 19.7735211,56.1791072 20.4307116,56.6987778 C20.6918009,56.9051261 20.9613285,57.1184892 21.2442579,57.3184074 C21.6110735,57.5779504 22.3650557,58 23.3870764,58 C23.4248003,58 23.4620279,57.9994154 23.4997518,57.9976618 C23.5379721,57.9994154 23.575696,58 23.6129236,58 C24.6349443,58 25.3894229,57.5779504 25.7557421,57.3184074 C26.0386715,57.1184892 26.3081991,56.9051261 26.5692884,56.6987778 C27.2269753,56.1791072 28.8878209,54.8293668 28.9672397,54.7638965 C28.9831235,54.7504517 28.9955327,54.7393452 29,54.7177166 C28.7989712,54.6323714 28.4803032,54.7475289 28.2668652,54.7539591" id="Fill-15" fill="#F9FCF9"></path>
                </g>
            </g>
        </g>
    </g>
</svg>