<?xml version="1.0" encoding="UTF-8"?>
<svg width="497px" height="915px" viewBox="0 0 497 915" version="1.1" xmlns="http://www.w3.org/2000/svg" xmlns:xlink="http://www.w3.org/1999/xlink">
    <!-- Generator: Sketch 47.1 (45422) - http://www.bohemiancoding.com/sketch -->
    <title>woman</title>
    <desc>Created with Sketch.</desc>
    <defs></defs>
    <g id="Page-1" stroke="none" stroke-width="1" fill="none" fill-rule="evenodd" opacity="0.410439312">
        <g id="woman" fill-rule="nonzero" fill="#58BC82">
            <g id="Page-1" transform="translate(248.500000, 457.500000) scale(-1, 1) translate(-248.500000, -457.500000) ">
                <g id="Clipped">
                    <g id="Group">
                        <g>
                            <path d="M239.261102,560.349436 C228.498958,578.084401 218.246813,593.341613 207.204868,607.719457 C201.683895,614.904561 195.974693,621.878414 189.857237,628.751731 C183.729606,635.609777 177.21407,642.411828 169.865491,648.938998 C177.324718,640.697635 183.262848,632.87623 188.84614,625.361522 C194.409082,617.828998 199.557411,610.548449 204.910504,602.954839 C215.624319,587.777802 227.002025,571.227628 243.414868,548.361536 C249.739631,539.60986 256.009706,530.349144 262.666414,520.954805 C266.004943,516.258908 269.44013,511.531195 273.144943,506.882385 C276.871377,502.252663 280.783496,497.638212 285.620229,493.539165 C286.847536,492.523629 288.125716,491.541182 289.543796,490.647816 C290.968234,489.736634 292.517312,488.981981 294.048584,488.357134 C297.132748,487.109985 300.272873,486.315882 303.400279,485.707579 C309.663995,484.524061 315.908633,484.074832 322.116389,483.799951 C334.534444,483.307454 346.846938,483.607788 359.046239,483.778316 L370.36417,483.9463 C374.068983,483.943755 378.00781,484.125736 381.259855,483.8534 C384.627636,483.555611 387.883496,482.779325 390.639531,481.121126 C393.399382,479.487106 395.667037,476.866821 397.197037,473.251362 C398.739756,469.654992 399.537187,465.244158 399.829706,460.437545 C400.119681,455.616933 399.922549,450.373817 399.422723,444.752739 C398.92417,439.129116 398.119107,433.119895 397.186863,426.667809 C396.267337,420.211905 395.17993,413.302955 394.402848,405.844241 C395.853995,413.227871 397.593845,419.990472 399.158185,426.343296 C400.731426,432.696119 402.169855,438.632802 403.286514,444.294603 C404.399357,449.952586 405.209506,455.333143 405.466414,460.562259 C405.704244,465.774832 405.418085,470.880507 403.922424,475.762204 C402.483995,480.622266 399.451975,485.215083 395.359257,488.156063 C391.293247,491.14413 386.705791,492.554172 382.423571,493.241376 C381.345067,493.411905 380.275466,493.539165 379.21604,493.625702 L377.642798,493.733873 L376.212,493.814047 C374.259756,493.909492 372.349481,493.984575 370.430304,494.034207 C366.594494,494.137287 362.767586,494.147468 358.888534,494.087656 C349.138758,493.950215 338.624618,493.111571 327.435142,492.43582 C321.841676,492.11767 316.068883,491.835152 310.185441,491.978956 C307.248808,492.055312 304.282923,492.239839 301.352648,492.669978 C298.431277,493.110298 295.518808,493.780959 292.916663,494.98993 C290.291626,496.225625 287.704743,498.070896 285.232324,500.117239 C282.748459,502.173761 280.357436,504.472079 278.014743,506.898928 C273.343347,511.764081 268.8818,517.149728 264.519456,522.834436 C255.804943,534.229304 247.474519,546.839506 239.261102,560.349436" id="Fill-3"></path>
                            <path d="M225.960404,424.417214 C229.312923,424.550837 232.43397,426.058869 234.917835,428.045399 C237.406788,430.048473 239.277636,432.834196 239.791451,435.930434 C239.947885,436.733445 239.917362,437.451192 240.054718,438.123125 C240.175541,438.805239 240.376489,439.479718 240.609232,440.133834 C241.083621,441.440796 241.720803,442.66631 242.468633,443.779836 C243.970653,446.004342 245.968683,447.751623 248.208359,448.754433 C252.755117,450.922944 257.628733,449.386915 261.877885,447.881428 C266.158833,446.258862 270.032798,444.21252 273.63205,442.13309 C277.231302,440.035844 280.549481,437.860969 283.675616,435.684822 C285.206888,434.600566 286.804294,433.494676 288.157511,432.414238 C289.545067,431.299439 290.866489,430.101922 292.147212,428.892951 C297.24594,424.0138 301.731651,418.992117 306.134693,413.932256 C311.987611,407.150566 316.918459,401.035719 321.606389,395.095218 C326.285416,389.144537 330.730429,383.360566 335.357312,377.034467 C337.640229,373.872054 340.065591,370.550566 342.226414,366.974558 C344.318559,363.533445 344.893421,358.994078 345.007885,354.173466 C345.188484,344.441887 343.125591,333.291359 340.976214,319.979954 C343.945915,333.127193 346.651077,344.126282 346.957586,354.159467 C347.03008,356.661401 346.949955,359.098431 346.601476,361.469287 C346.263172,363.812145 345.589107,366.190636 344.46609,368.197527 C342.295092,372.115865 339.999456,375.456442 337.76614,378.739752 C333.268983,385.247833 328.886289,391.124704 324.222524,397.141561 C319.547312,403.149509 314.591027,409.296171 308.685965,416.138946 C304.235865,421.253529 299.719631,426.315935 294.418683,431.315983 C293.082,432.556769 291.699531,433.793737 290.186065,434.982346 C288.628085,436.188772 287.104444,437.204307 285.480329,438.319106 C282.261352,440.493981 278.826165,442.648494 275.080653,444.703744 C271.332599,446.744996 267.284394,448.739161 262.724918,450.287917 C260.436913,451.034933 258.025541,451.705594 255.405591,451.955024 C252.800903,452.252812 249.856638,451.827764 247.360055,450.511894 C244.817686,449.230385 242.668309,447.133139 241.149756,444.61848 C240.391751,443.359878 239.771102,441.998195 239.329781,440.55252 C239.112299,439.825865 238.931701,439.083939 238.835042,438.305107 C238.720579,437.514822 238.790529,436.729627 238.688783,436.083146 C238.384818,433.289787 236.816663,430.565149 234.531202,428.493355 C232.247012,426.443195 229.287486,424.762089 225.960404,424.417214" id="Fill-5"></path>
                            <path d="M248.653115,403.522508 C241.784012,403.315074 235.694536,403.075825 228.118302,402.0552 C221.523913,401.165652 216.095783,400.083941 213.449125,400.377912 C207.790796,401.005304 208.599673,409.372654 213.449125,411.071576 C226.022342,415.474775 239.223838,407.715728 248.653115,403.522508" id="Fill-7"></path>
                            <path d="M223.297466,414.33707 C219.736369,418.199414 219.621905,425.986458 225.967017,424.295172 C232.308314,422.603885 245.301232,412.37981 247.201332,404.182988 C241.658738,405.599393 226.861107,410.474727 223.297466,414.33707" id="Fill-9"></path>
                            <path d="M299.757022,423.541029 C306.886848,427.409735 312.341686,431.98219 316.38989,436.488469 C320.454628,440.999839 323.192858,445.368678 325.207421,449.135576 C327.202908,452.926654 328.498893,456.132336 329.41206,458.723351 C330.325227,461.320729 330.863207,463.304714 331.156998,464.782204 C331.75984,467.856807 332.03201,470.772336 331.925177,474.406884 C331.811985,478.037614 331.328693,482.40009 330.054329,488.241328 C329.206025,482.291919 328.333556,478.145785 327.649317,474.73776 C326.957446,471.334825 326.438544,468.664909 325.901835,465.782468 C325.26211,462.718045 324.865302,457.424026 322.006249,449.667524 C320.53984,445.820451 318.379017,441.371439 314.852259,436.768442 C311.342035,432.17308 306.385751,427.487364 299.757022,423.541029" id="Fill-11"></path>
                            <path d="M214.070536,384.480709 C216.326746,384.516342 217.870736,383.934764 219.105673,383.444812 C220.338067,382.923046 221.274127,382.40637 222.147868,381.799339 C223.292506,380.972149 224.059414,380.22895 224.803429,379.265591 C225.172257,378.778185 225.53091,378.228421 225.814526,377.51322 C226.077793,376.800563 226.269838,375.891926 226.004027,374.783491 C226.533105,375.779937 226.581434,376.834924 226.436446,377.676113 C226.276197,378.528755 225.964601,379.214687 225.612307,379.803901 C224.892456,380.978512 224.033978,381.80952 222.783778,382.709249 C221.832456,383.369729 220.808641,383.936036 219.427444,384.361085 C218.06914,384.759409 216.260611,385.077559 214.070536,384.480709" id="Fill-13"></path>
                            <path d="M203.27507,381.879513 C202.840107,381.753526 202.411504,381.609722 202.099908,381.227942 C201.729808,380.821982 201.932027,380.119506 202.215643,379.824263 C202.773973,379.151057 203.40098,378.865994 203.951678,378.610202 C205.072152,378.141885 206.017115,378.003171 206.954446,377.905181 C208.203374,377.791919 209.153424,377.800828 210.239559,377.996808 C211.301529,378.219513 212.593698,378.583477 214.053748,379.731363 C212.288461,379.27959 211.122202,379.341947 210.113648,379.307587 C209.106367,379.306314 208.2428,379.298679 207.099434,379.403032 C206.243499,379.489569 205.387564,379.620647 204.367564,379.858623 C203.874097,379.985883 203.28906,380.139868 202.829933,380.436384 C202.613723,380.60564 202.46492,380.712538 202.53487,380.989965 C202.613723,381.280118 202.929135,381.599541 203.27507,381.879513" id="Fill-15"></path>
                            <path d="M185.998661,310.845734 C185.056242,313.261131 185.787539,317.764865 189.559758,314.828975 C193.333249,311.894357 203.810506,293.861604 212.612776,291.974337 C216.190406,291.208231 228.331204,289.667111 241.319035,290.297049 C224.76502,286.9412 217.012002,286.9412 209.503175,289.248426 C202.921504,291.269316 189.559758,301.711006 185.998661,310.845734" id="Fill-17"></path>
                            <path d="M215.336252,323.635755 C214.916551,327.200309 212.706127,331.128828 208.131389,335.832361 C228.331713,335.168063 242.785953,319.442535 243.833933,311.474781 C232.308696,319.095115 223.297848,323.066902 215.336252,323.635755" id="Fill-19"></path>
                            <path d="M215.336252,323.635755 C212.612012,321.539781 210.03912,316.612271 209.503683,313.570755 C211.205379,318.880045 213.731214,320.343536 218.144431,323.299788 C217.036676,323.662479 216.120965,323.653571 215.336252,323.635755" id="Fill-21"></path>
                            <path d="M178.131688,335.831088 C177.293559,338.906965 177.285928,342.927111 170.421913,347.818988 C178.944382,346.980344 185.082187,341.965024 184.148671,335.168063 C181.03907,335.936714 181.624107,335.272417 178.131688,335.831088" id="Fill-23"></path>
                            <path d="M245.708342,78.5612128 C240.399763,80.1990501 235.574476,82.602993 231.055698,85.0972907 C226.544551,87.6195855 222.342456,90.3047733 218.388367,93.0217761 C210.478915,98.4659624 203.53096,104.009412 197.295224,109.341609 C184.844102,120.040364 175.244401,129.918292 167.622382,138.50453 C152.431758,155.757179 145.093354,167.820163 141.289339,175.031992 C137.431908,182.58615 134.374451,190.027047 132.370062,199.845163 C131.421284,204.752312 130.752307,210.283035 131.074077,216.619314 C131.423828,222.911053 132.791035,230.133063 136.661185,237.29017 C134.132805,229.527305 134.083204,222.561088 134.679688,216.648584 C135.320686,210.709356 136.656097,205.70549 138.064002,201.253932 C140.98283,192.368633 144.159838,185.589488 147.80106,178.372569 C151.786945,170.69115 158.303753,157.571908 172.40697,139.451345 C179.474476,130.437513 188.42682,120.194349 200.111035,109.326338 C205.963953,103.911421 212.494751,98.3323394 219.943803,92.9085146 C223.672781,90.2029652 227.62687,87.5368665 231.883653,85.0476592 C236.144252,82.5788136 240.697369,80.2155939 245.708342,78.5612128" id="Fill-25"></path>
                            <path d="M136.680771,237.225649 C135.80703,240.332067 135.349175,243.46012 135.481444,246.474912 C135.598451,249.490976 136.257254,252.351782 136.997454,255.085329 C138.547803,260.554967 140.028202,265.683549 141.544212,270.477436 L149.667329,296.21197 L153.134312,307.211059 L154.752067,312.36891 L155.538052,314.878479 C155.810222,315.706942 156.034062,316.572311 156.324037,317.19334 C157.558975,319.895072 160.728352,321.082408 163.760372,321.830697 C166.854711,322.594258 170.066057,323.019307 173.268501,323.827408 C175.162242,324.313542 177.017828,324.909119 178.73097,325.824119 C180.441569,326.723848 182.00082,327.984995 183.103489,329.561748 C184.221419,331.128319 184.856057,332.93923 185.148576,334.689056 C185.425833,336.398159 185.635683,337.999091 185.853165,339.626748 C186.688751,346.099195 187.294137,352.312033 187.666781,358.829022 C187.847379,362.089425 187.96693,365.422366 187.979648,368.901657 C187.988551,370.64003 187.968202,372.416581 187.908426,374.237672 L187.792691,377.000489 C187.755808,377.946031 187.629898,378.889029 187.682042,379.736581 C187.744362,381.483862 188.531618,383.157332 190.106132,384.158869 C191.656481,385.183312 193.678676,385.637631 195.767005,385.855245 C199.944935,386.144126 204.562915,385.533277 209.479773,385.18204 L209.666731,385.168041 L209.741768,385.327116 C210.824087,387.592346 211.711818,390.057373 212.197653,392.709474 C212.666955,395.337394 212.730546,398.261831 211.564287,400.915204 C212.61481,398.21729 212.429125,395.347575 211.863165,392.775649 C211.280671,390.188451 210.311544,387.793417 209.169449,385.618542 L209.534461,385.82343 C204.632865,386.355378 200.121718,387.145663 195.666531,386.992951 C193.486631,386.83133 191.286382,386.44955 189.381195,385.288938 C188.441319,384.708632 187.61082,383.892895 187.069025,382.920628 C186.523414,381.950906 186.251244,380.876831 186.173663,379.843479 C186.084636,378.780857 186.197828,377.844223 186.202915,376.936859 L186.251244,374.205857 C186.263963,372.407672 186.244885,370.651483 186.200372,368.929654 C186.112616,365.485997 185.937105,362.183597 185.709449,358.953736 C185.247778,352.495287 184.600421,346.325718 183.745758,339.905447 C183.529549,338.310878 183.304436,336.653952 183.046257,335.064474 C182.78299,333.529717 182.252641,332.063681 181.354736,330.802533 C179.580546,328.229334 176.319599,326.798931 172.741968,325.910656 C169.695958,325.138187 166.503688,324.716956 163.240197,323.912672 C161.613539,323.501622 159.947454,322.991309 158.346232,322.119578 C156.756456,321.269481 155.227728,319.895072 154.407404,318.084161 C153.987703,317.142436 153.800746,316.321608 153.533663,315.499508 L152.764212,312.984849 L151.19097,307.809182 L147.871519,296.764279 C145.574611,289.037047 143.069125,280.533528 140.353788,270.828674 C138.976406,265.972429 137.66516,260.796761 136.309399,255.25713 C135.663314,252.481588 135.102441,249.545697 135.103713,246.480002 C135.08718,243.418124 135.679848,240.291344 136.680771,237.225649" id="Fill-27"></path>
                            <path d="M429.133721,158.9383 C419.700628,147.55743 410.485017,138.528328 400.445267,130.614023 C390.396613,122.75444 379.433521,116.013474 366.177337,110.76145 C374.051177,112.485824 380.916464,114.766325 387.228509,117.538049 C393.535466,120.3225 399.298085,123.599447 404.88392,127.604322 C410.453222,131.62065 415.872449,136.350908 421.239531,142.295226 C426.602798,148.231909 431.926638,155.385198 436.973222,164.336672 C444.689357,178.038766 452.186738,193.199259 457.572898,210.02177 C460.395067,218.770901 461.050055,228.102882 460.784244,237.259245 C460.467561,246.451241 459.050753,255.640692 456.504569,264.531081 C454.899531,270.102528 452.883696,275.354551 450.296813,280.620574 C447.697212,285.875143 444.540554,291.171707 440.291401,296.548446 C438.154743,299.225998 435.740828,301.922639 432.881776,304.504746 C430.026539,307.0754 426.726165,309.563334 422.808958,311.539684 C418.914643,313.50967 414.341177,314.932437 409.409057,315.050789 C404.482025,315.192048 399.327337,313.970351 394.46008,311.571499 C399.635117,313.307326 404.759282,313.713286 409.246264,312.892458 C413.747237,312.094538 417.556339,310.174183 420.692648,307.889864 C426.96781,303.2296 430.836688,297.443084 433.890329,292.119795 C436.903272,286.722695 439.041202,281.557208 440.896788,276.530435 C442.7422,271.499844 444.28619,266.585059 445.769132,261.442479 C447.617087,254.990393 449.589681,247.922368 451.09806,240.148049 C452.556838,232.403001 453.721825,223.857486 452.862075,214.981095 C450.304444,197.121415 443.50402,176.436561 429.133721,158.9383" id="Fill-29"></path>
                            <path d="M465.061377,473.368823 C457.013297,459.209866 448.65998,446.333691 440.07392,434.293615 C437.914369,431.271188 435.772623,428.373476 433.534219,425.409588 C431.284369,422.228086 429.512723,419.087307 427.705466,415.894352 C424.163446,409.521167 420.944469,403.097078 417.901002,396.620812 C411.850953,383.6581 406.464793,370.486682 402.115167,356.630604 C399.965791,349.700019 398.070778,342.586181 396.880354,335.205096 C396.29786,331.515826 395.890878,327.755291 395.899781,323.946396 C395.932848,320.159136 396.328384,316.236981 397.910529,312.696605 C396.351277,316.796925 396.319481,321.133949 396.591651,325.217725 C396.899431,329.328225 397.639631,333.292377 398.524818,337.125451 C400.329531,344.792871 402.744718,351.962704 405.313796,358.872926 C410.5219,372.676828 416.384993,385.484282 422.945042,398.566619 C426.24796,405.087426 429.727661,411.71004 433.67412,418.337745 C434.663596,419.973038 435.70013,421.657961 436.781177,423.153267 L440.385516,428.01842 C442.7918,431.334818 445.18791,434.773385 447.585292,438.351939 C457.121401,452.680152 466.895342,469.174331 475.993945,489.497766 C482.906289,505.096035 489.14584,521.746744 493.073222,539.549157 C495.022923,548.442092 496.357062,557.625179 496.722075,566.996612 C497.04003,576.387134 496.454993,585.831104 495.179357,595.305618 C492.588658,614.241918 486.786613,633.035687 478.640603,650.816466 C470.507312,668.631605 460.141975,685.470659 448.657436,701.31454 C434.221002,721.181111 419.110504,738.23269 400.073895,759.24842 C390.577212,769.780465 380.013471,781.251688 368.528933,795.009776 C362.807012,801.903455 356.863796,809.38253 350.990529,817.784241 C345.156688,826.19995 339.32412,835.542113 334.592948,846.369401 C338.845915,835.299046 344.271501,825.6031 349.728883,816.837426 C355.225691,808.080659 360.819157,800.236348 366.205317,793.000339 C377.018334,778.549957 386.947436,766.464067 395.861626,755.458615 C413.739606,733.489707 427.902599,716.051257 442.077037,696.539741 C450.940354,684.28714 460.269157,670.755576 468.797985,655.31511 C477.287387,639.891188 484.989531,622.455284 489.592249,602.840687 C491.887885,593.048024 493.384818,582.738684 493.824868,572.065381 C494.238209,561.425166 493.173696,550.410805 490.931476,539.358267 C486.408883,517.21374 477.279756,494.947043 465.061377,473.368823" id="Fill-31"></path>
                            <path d="M462.841923,521.853261 C462.839379,540.094721 462.868631,557.071216 462.054666,572.848921 C461.273768,588.627899 459.757758,603.202997 457.409978,616.550034 C452.722047,643.284832 444.740102,664.931773 434.953444,681.656293 C429.899229,689.930743 424.590651,696.70607 419.747559,702.702565 C414.877758,708.677426 410.383145,713.803462 406.352746,718.297016 C398.27287,727.271397 392.061299,733.728574 387.382272,738.371022 C377.64903,748.007155 368.254092,756.543761 356.4109,767.083442 C350.50711,772.368553 343.967409,778.137252 336.728207,785.046202 C333.118781,788.510222 329.333843,792.261849 325.526012,796.519971 C323.631,798.65285 321.729628,800.91299 319.918556,803.378017 C318.121474,805.84559 316.368905,808.504054 315.048756,811.536661 C315.809304,808.299165 317.092571,805.279283 318.471224,802.460472 C319.863868,799.637844 321.393868,797.007378 322.945489,794.511807 C326.061449,789.533393 329.266436,785.098379 332.35696,781.028602 C338.562172,772.899227 344.324791,766.183713 349.633369,760.198671 C360.287409,748.257857 369.235938,739.286022 378.953918,729.755514 C384.16711,724.63075 391.332546,718.067948 400.372646,709.344269 C404.881249,704.974158 409.857883,700.060646 415.125763,694.393755 C420.350401,688.721773 426.012546,682.300229 431.008257,674.668442 C440.980601,659.017997 449.69893,638.230062 455.054566,612.551522 C457.766087,599.719888 459.682721,585.70219 460.868057,570.565876 C462.086461,555.433379 462.489628,539.186084 462.841923,521.853261" id="Fill-34"></path>
                            <path d="M156.341843,224.995446 C153.667204,223.109451 152.181718,220.117567 151.427529,217.228763 C150.669524,214.303054 150.502915,211.373526 150.571594,208.580168 C150.743289,202.979451 151.805259,197.878867 153.030022,193.269507 C155.553314,184.044424 158.835883,176.704062 161.825933,170.7432 C167.939574,158.855835 172.983613,152.41393 176.000372,148.806106 C179.207903,145.101565 182.480297,141.865341 187.033414,138.384778 C189.316332,136.659131 191.926107,134.87749 195.082766,133.108575 C198.235608,131.349841 201.944237,129.586016 206.421045,128.160703 C202.257105,130.372483 198.979623,132.696252 196.215958,134.868582 C193.454835,137.048547 191.206257,139.096162 189.219673,140.997428 C185.26304,144.819048 182.312416,148.040001 179.206631,151.590557 C175.940596,155.440175 170.125833,161.670828 163.36102,173.122963 C160.041569,178.858575 156.463938,185.912602 153.729524,194.745724 C152.400471,199.160376 151.257105,204.03571 151.014187,209.372998 C150.908626,212.032734 151.034536,214.821002 151.745484,217.595272 C152.444985,220.336454 153.841444,223.153992 156.341843,224.995446" id="Fill-36"></path>
                            <path d="M356.634995,113.626711 C365.8328,119.303783 373.195369,126.501613 377.993948,134.443915 C382.845943,142.373491 385.098337,150.840104 385.763499,158.652601 C386.422302,166.50073 385.629958,173.748192 384.316167,180.221912 C382.987115,186.705814 381.123898,192.455424 379.152576,197.561099 C375.174322,207.772448 370.855219,215.455139 367.281404,221.445271 C363.671978,227.427768 360.712451,231.712615 358.582152,234.899207 C354.119334,241.497643 349.8829,247.581947 344.265269,255.017754 C341.441828,258.722295 338.266092,262.765348 334.348885,267.211815 C332.386466,269.428686 330.235818,271.747364 327.791379,274.102949 C325.336766,276.440716 322.631603,278.890473 319.294347,280.972448 C322.973723,279.514047 326.159633,277.5237 329.041579,275.590619 C331.917165,273.633359 334.483698,271.644284 336.830207,269.711203 C341.518137,265.833588 345.327239,262.16468 348.649234,258.712114 C355.266516,251.775167 359.953175,245.704861 364.535544,238.860814 C366.978711,235.168999 370.001828,230.098957 373.410307,223.247274 C376.781903,216.386683 380.624072,207.746996 383.846865,196.735181 C385.426466,191.227364 386.84709,185.120153 387.640706,178.36646 C388.426691,171.625494 388.599658,164.20114 387.306217,156.379736 C386.025494,148.58251 383.124471,140.381871 377.948162,132.920612 C372.812551,125.437719 365.471603,118.858373 356.634995,113.626711" id="Fill-38"></path>
                            <path d="M311.857885,266.369862 C309.424893,269.641719 307.95594,273.245725 307.564219,276.690655 C307.368359,278.411211 307.424319,280.079591 307.681227,281.646163 C307.943222,283.222915 308.359107,284.680043 309.054793,285.889014 C310.434718,288.351497 312.701102,289.7819 314.860653,290.92215 C317.046913,292.056038 319.214095,292.978673 321.133272,294.088381 C324.816464,296.137268 327.829406,298.015627 330.03983,299.957616 C332.261701,301.879243 333.706489,303.882317 334.402175,305.633416 C334.765915,306.534417 335.021551,307.501594 335.123297,308.505676 L335.172898,309.321413 L335.169082,309.616656 L335.150005,310.077338 C335.108035,310.613103 335.020279,311.129779 334.894369,311.618458 C334.380554,313.582081 333.429232,315.077387 332.566938,316.545968 C331.712274,318.023458 330.827087,319.422046 330.745691,321.253318 C330.632499,323.093499 331.718633,325.468172 333.640354,327.77158 C331.064918,326.280092 328.897736,324.319014 328.115566,321.640189 C327.723845,320.333228 327.726389,318.996997 327.884095,317.842748 C328.044344,316.682136 328.338135,315.674236 328.616663,314.778325 C329.192798,312.999229 329.70407,311.607004 329.824893,310.541837 C329.891027,309.98062 329.883397,309.653562 329.802,309.125433 C329.724419,308.632936 329.585791,308.135349 329.382299,307.619946 C328.951152,306.521691 328.119382,304.922032 326.384618,302.972408 C324.679107,301.022783 322.06806,298.799549 318.704095,296.281072 C317.064718,295.061921 315.046339,293.897491 312.917312,292.367825 C310.821352,290.863611 308.523172,288.748548 307.485367,285.752846 C306.507337,282.794049 306.36998,279.49165 307.060579,276.109076 C307.767711,272.735412 309.424893,269.383381 311.857885,266.369862" id="Fill-40"></path>
                            <path d="M360.547242,305.850394 C360.009262,307.096271 359.503077,308.295061 359.092279,309.451855 C358.887516,310.029615 358.706918,310.595923 358.567017,311.148232 C358.438564,311.650909 358.319012,312.336841 358.097716,313.024045 C357.255771,315.672328 355.604948,317.94392 353.442853,319.493948 C351.31001,321.029977 348.476394,321.871166 345.841182,321.126695 C343.181805,320.394949 341.397441,318.152627 340.483002,315.767773 C342.096943,318.239163 344.397666,319.688656 346.587741,319.683565 C348.777815,319.714108 350.759312,318.670575 352.370708,317.18036 C353.980833,315.659602 355.285721,313.662891 355.95597,311.074421 C356.814449,308.029087 358.612803,305.303176 360.640085,302.184031 C363.798015,297.443593 366.437042,291.831424 367.739387,285.79166 C368.400733,282.783232 368.742853,279.702265 368.802628,276.631479 C368.839511,275.073816 368.798813,273.601417 368.712329,272.015756 L368.460509,267.251138 C368.248115,263.272988 368.282454,259.572265 367.851307,254.984539 C367.610933,252.702766 367.266269,250.174108 366.297142,247.466013 C365.798589,246.12851 365.134698,244.728649 364.051107,243.512042 C362.990409,242.291618 361.390459,241.306625 359.40006,241.148823 C361.381556,240.936298 363.329985,241.623503 364.773501,242.740846 C366.23991,243.846736 367.294249,245.233871 368.151456,246.570102 C369.834075,249.279469 370.800658,251.87303 371.57011,254.219706 C373.053052,258.9436 373.681332,262.82885 373.902628,266.994073 C373.999287,269.606723 373.947142,272.405172 373.462579,275.5994 C372.971656,278.722362 372.06612,281.976403 370.791756,285.249532 C369.526294,288.530297 367.886918,291.823788 366.069486,295.19618 C364.274948,298.576208 362.21587,302.04659 360.547242,305.850394" id="Fill-42"></path>
                            <path d="M340.475117,282.808684 C341.757112,287.032446 340.954594,291.198941 341.214045,294.884393 C341.290354,295.801938 341.455691,296.705485 341.863945,297.449956 C342.267112,298.194428 342.944993,298.709831 343.728434,298.931264 C345.296589,299.473392 346.853297,298.662745 348.018284,297.700659 C350.386414,295.683586 351.968559,293.160019 353.460404,290.945693 C354.938259,288.711006 356.216439,286.557766 357.733721,284.809212 C359.019531,283.218461 359.649082,281.399914 359.964494,279.759532 C360.271002,278.103878 360.273546,276.58312 360.159082,275.249435 C359.913621,272.574428 359.295516,270.632439 358.840204,269.222397 C358.339107,267.751271 357.830379,266.32723 357.1118,265.071173 C356.385591,263.801118 355.4419,262.575603 354.088683,261.675874 C352.768534,260.80287 350.862075,260.239108 348.988683,261.207557 C347.097486,262.140373 345.848559,264.838287 345.971925,267.99561 C345.660329,266.444309 345.623446,264.907008 345.985915,263.499511 C346.339481,262.095832 347.131825,260.83214 348.235766,260.01004 C349.332075,259.180304 350.671302,258.825248 351.89988,258.839247 C353.134818,258.851973 354.266738,259.195575 355.233322,259.679163 C359.121277,261.763684 360.530454,265.264608 361.573347,268.341757 C362.120229,270.083948 362.712898,272.501889 362.67983,275.717752 C362.65185,277.318684 362.450903,279.124504 361.831526,281.039768 C361.523746,281.995492 361.098958,282.971576 360.529182,283.931118 C359.992474,284.87157 359.14417,285.854017 358.391252,286.598489 C356.935017,288.209602 355.52584,290.264852 353.894095,292.411729 C352.234369,294.524247 350.499606,296.976549 347.769007,298.774734 C347.074594,299.195965 346.28988,299.55102 345.427586,299.655373 C344.552574,299.769908 343.654668,299.558656 342.886489,299.128517 C342.099232,298.690742 341.511651,297.913183 341.243297,297.054177 C340.957137,296.193899 340.889731,295.286535 340.871925,294.376625 C340.847761,290.764984 341.609581,286.850464 340.475117,282.808684" id="Fill-44"></path>
                            <path d="M284.98699,760.143949 C296.072177,770.112232 303.152401,781.683991 308.383399,793.389373 C313.619484,805.177475 317.220007,817.31936 320.627214,830.769478 C315.141853,816.054394 310.489534,804.887322 304.65315,793.229026 C301.702526,787.424693 298.418686,781.503282 294.104671,775.278991 C289.794471,769.058518 284.352352,762.606432 277.049559,755.962183 C271.456092,750.845055 265.076641,746.200062 258.538212,741.398539 C252.072277,736.621195 244.932277,731.764951 239.837364,724.355869 C237.253025,720.71114 235.571678,716.405931 233.864895,712.712844 C232.158112,708.999394 229.917165,705.950243 226.943648,703.282871 C220.990257,697.972308 213.345344,693.989067 205.805993,690.127997 C204.63719,689.552781 203.229284,688.824853 202.017239,688.082927 C200.777214,687.334638 199.589334,686.53799 198.439608,685.704436 C196.145244,684.032239 193.994596,682.223873 191.921529,680.280611 C187.775394,676.391543 183.889983,671.998525 179.95497,666.863581 C176.039035,661.717183 172.050606,655.835222 168.086342,648.721383 C166.113748,645.161919 164.148786,641.290667 162.364421,636.996912 C160.641105,632.705702 158.872002,627.962718 158.47901,622.641974 C159.351479,627.913087 161.541554,632.390097 163.657863,636.435695 C165.82886,640.471112 168.151204,644.052211 170.44684,647.318977 C175.062277,653.834693 179.574696,659.091807 183.854372,663.623539 C188.149309,668.142545 192.240756,671.93744 196.332202,675.266564 C198.376017,676.929853 200.431279,678.462065 202.522152,679.867016 C203.56886,680.565674 204.627015,681.228699 205.69916,681.848455 C206.795469,682.486029 207.787489,682.988706 209.063125,683.616098 C215.260706,686.7976 221.888162,690.615403 228.2231,696.249207 C231.345419,699.070563 234.383798,702.546035 236.446691,706.727802 C238.552825,710.908296 239.459633,715.292405 241.213474,719.254012 C242.924072,723.260159 245.54911,727.005424 248.815145,730.42872 C252.049384,733.869832 255.927165,736.938073 259.887613,740.110667 C267.81487,746.435493 276.585344,752.563066 284.98699,760.143949" id="Fill-46"></path>
                            <path d="M220.429638,584.827022 C214.819638,590.28648 209.437294,594.395708 204.695948,597.736285 C199.939339,601.067954 195.800835,603.623337 192.337668,605.728218 C185.383354,609.890896 181.171085,612.306292 178.668142,613.566167 C176.054551,614.861675 173.571958,615.907752 170.433105,617.135812 C168.866222,617.754296 167.132731,618.417321 165.166496,619.255965 C163.206621,620.108608 160.994925,621.103782 158.597544,622.68817 C160.301783,620.341494 162.156097,618.56367 163.828541,617.092544 C165.516247,615.623962 167.067868,614.464623 168.501209,613.47454 C171.375524,611.495645 173.788167,610.189957 176.429738,608.913538 C179.265898,607.518768 184.225998,605.850388 191.680137,602.666341 C195.39894,601.053955 199.740935,599.035611 204.615823,596.228253 C209.479264,593.415805 214.893404,589.797801 220.429638,584.827022" id="Fill-48"></path>
                            <path d="M372.680536,259.701816 C376.342107,258.044889 379.437718,255.640946 382.113628,253.062657 C384.789539,250.471642 387.059738,247.670647 389.064127,244.855654 C393.052556,239.204034 396.009539,233.505328 398.412007,228.124771 C403.177519,217.32039 405.772032,207.763158 407.499165,199.772497 C410.830062,183.713547 410.664726,173.857254 410.781733,168.237449 C410.794451,162.373304 410.690162,156.915119 409.671434,150.222511 C409.11692,146.893387 408.333479,143.225752 406.624152,139.304869 C404.908466,135.456524 402.16515,131.11441 396.985025,128.284145 C402.63318,130.123054 406.477893,134.243735 408.942681,138.09208 C411.44308,142.014236 412.831908,145.844764 413.83283,149.330418 C415.741833,156.356447 416.132282,162.159507 416.090312,168.311259 C415.950411,174.916058 414.865549,185.941871 410.087319,202.185348 C407.647968,210.276545 404.30308,219.705244 398.965249,230.090939 C396.280436,235.262789 393.081808,240.681524 388.952207,245.983179 C386.882955,248.625098 384.568242,251.227567 381.898691,253.625147 C379.232955,256.010001 376.190761,258.197602 372.680536,259.701816" id="Fill-50"></path>
                            <path d="M426.968828,262.250708 C424.346334,272.430242 419.26414,281.022843 412.107606,287.168232 C404.954888,293.339074 395.813042,296.654199 386.103965,296.98253 C391.449426,295.587759 395.851197,293.602502 399.66793,291.254554 C403.485935,288.895152 406.741796,286.178149 409.778903,283.006828 C412.800748,279.82278 415.606384,276.170416 418.282294,271.706132 C420.954389,267.241848 423.490399,261.95801 425.74788,255.463928 C429.222494,245.45874 429.768105,233.84753 428.90581,222.229957 C428.042244,210.562752 425.850898,198.784832 423.761297,187.154533 C422.416983,179.86253 421.466933,173.019755 419.590998,164.520054 C418.624414,160.283566 417.428903,155.622029 415.439776,150.467996 C414.437581,147.894797 413.225536,145.203246 411.625586,142.470972 C410.001471,139.770513 408.018703,136.952975 405.089701,134.671202 C408.400249,136.396848 411.01384,138.888601 413.233167,141.328177 C415.442319,143.80084 417.273741,146.311682 418.876234,148.734713 C422.069776,153.597321 424.395935,158.106146 426.329102,162.265006 C430.135661,170.615812 432.376608,177.632933 433.79596,185.346167 C435.534539,195.052293 435.317057,206.743677 434.105012,219.656758 C433.490723,226.120298 432.618254,232.90326 431.487606,239.991647 C430.335337,247.082579 428.964314,254.477662 426.968828,262.250708" id="Fill-52"></path>
                            <path d="M423.45517,178.175188 C424.677389,184.721447 424.962277,190.930467 425.084372,196.678805 C425.179758,202.433506 424.988985,207.758067 424.646865,212.667761 C423.95118,222.489695 422.643748,230.655974 421.104845,237.390578 C418.007963,250.872511 413.94704,258.562838 411.098162,262.661885 C409.607589,264.794764 407.965668,266.745661 406.014696,268.551482 C404.062451,270.354757 401.783349,272.023137 398.9828,273.358095 C396.186067,274.682873 392.839908,275.653867 388.993923,275.774764 C385.154297,275.905842 380.870805,275.162643 376.363474,273.372094 C381.142975,274.331635 385.322177,274.297275 388.792975,273.621524 C392.272676,272.947045 395.040157,271.67699 397.329434,270.251677 C401.883823,267.319604 404.750506,263.958666 407.510357,260.133227 C410.413923,256.010001 415.118387,248.603464 418.970731,235.387504 C420.888636,228.80434 422.592875,220.821315 423.649758,211.304806 C424.169933,206.546551 424.534945,201.406517 424.60108,195.877066 C424.637963,190.352706 424.494247,184.416023 423.45517,178.175188" id="Fill-54"></path>
                            <path d="M327.486142,639.869554 C318.738561,649.281709 309.769683,655.875054 302.105693,661.414686 C294.417539,666.92632 287.76719,671.295159 282.941903,675.568552 C281.743848,676.638809 280.674247,677.703976 279.801778,678.772961 C278.959833,679.845764 278.081005,681.05728 277.291204,682.103357 L272.965743,687.813517 C270.386491,691.163003 268.39482,693.612759 266.869908,695.367676 C263.696716,699.00986 260.582027,702.262627 256.444796,706.086793 C252.298661,709.895687 247.138885,714.302704 239.660581,719.918691 C246.038761,713.02883 250.388387,707.914248 254.023249,703.705757 L263.689085,692.571772 L270.635768,684.833086 L275.566616,679.240006 L276.963075,677.639074 C277.460357,677.065131 278.027589,676.472099 278.606267,675.928698 C279.776342,674.829171 281.059608,673.802182 282.431903,672.795555 C287.927439,668.783045 294.764746,664.890159 302.507589,659.832843 C310.213549,654.769164 319.001828,648.653045 327.486142,639.869554" id="Fill-56"></path>
                            <path d="M346.514993,35.031774 C353.270903,34.8803345 359.610928,36.0218574 365.037786,38.3087211 C370.478633,40.5777684 374.9618,43.9641592 378.273621,47.8150494 C381.596888,51.6710299 383.765342,55.9596947 384.960853,60.1210994 C386.162723,64.292685 386.391651,68.3433734 385.968135,71.9613776 C385.1122,79.2648338 381.697362,84.5893957 378.442773,87.9783317 C375.116963,91.4003554 371.956489,93.1781787 369.625242,94.2764332 C364.717287,96.5022121 359.736838,97.5190202 353.649905,97.580105 C347.561701,97.6004666 340.298334,96.5798408 330.940279,93.4696043 C340.747287,94.860557 347.800803,94.6785751 353.459132,94.0040967 C359.111102,93.2863498 363.460728,92.1397364 367.770928,90.215564 C370.053845,89.1491245 373.112574,87.6309117 376.283222,84.6263011 C379.396638,81.6573234 382.633421,76.9397921 383.552948,70.2230049 C384.486464,63.6309325 382.835641,54.9721565 376.570653,47.5745278 C373.471227,43.9068922 369.23988,40.6643053 364.095367,38.4423442 C358.958484,36.2025668 352.938958,35.0114124 346.514993,35.031774" id="Fill-58"></path>
                            <path d="M252.528224,87.8808505 C244.075706,91.6706558 236.958599,96.7076099 230.914908,101.962179 C224.869945,107.238382 219.855157,112.750016 215.544958,118.087304 C206.956354,128.807693 201.095805,138.764522 196.592289,147.220955 C192.115481,155.70793 189.058025,162.788681 186.801815,168.503931 C184.555781,174.226817 183.135157,178.603291 182.22199,181.862422 C180.360045,188.641567 179.046254,195.105106 178.426878,203.332471 C178.150893,207.442971 178.035157,212.010336 178.58204,217.241998 C178.872015,219.853375 179.320968,222.639098 180.243037,225.527902 C180.712339,226.964668 181.303736,228.429432 182.141865,229.826748 C182.974908,231.211337 184.09411,232.551386 185.58214,233.405301 C184.267077,232.295593 183.463287,230.855009 182.912589,229.427151 C182.363162,227.990385 182.05411,226.533257 181.849347,225.119397 C181.455082,222.281497 181.470344,219.602672 181.587352,217.104557 C181.855706,212.101963 182.570469,207.794209 183.286504,203.911504 C184.783436,196.149912 186.338873,190.0427 188.109247,183.47608 C189.07583,179.950976 190.304409,175.239807 192.21214,169.189863 C194.130045,163.147554 196.714384,155.751198 200.655756,147.046608 C204.622564,138.372561 209.900618,128.308834 217.854584,117.650802 C221.844284,112.345329 226.523312,106.903688 232.198175,101.72293 C237.870494,96.563806 244.566628,91.6375682 252.528224,87.8808505" id="Fill-60"></path>
                            <path d="M213.440858,237.326948 C209.106494,235.564396 205.096444,233.236809 202.000833,230.079486 C198.896319,226.971795 196.856319,222.823116 196.885571,218.605717 C196.867766,214.381955 198.743701,210.537428 201.147441,207.570995 C203.558813,204.575293 206.566668,202.271885 209.466419,200.407525 C212.160135,198.544437 214.081855,195.920334 215.484673,193.21733 C216.89385,190.497782 217.831182,187.667518 218.579012,184.919973 C220.037791,179.401976 220.756369,174.186857 221.4139,169.436239 C222.65011,159.917184 223.598888,152.146684 225.221731,145.951663 C226.78607,139.76046 228.999037,135.135828 231.416768,132.126127 C233.773451,129.15715 236.430284,126.634855 239.495372,124.429437 C242.550284,122.21893 246.008364,120.42329 249.724623,118.705279 C253.400185,116.928728 257.480185,115.362156 260.755122,111.931225 C262.381781,110.213213 263.712105,107.942894 264.65198,105.223346 C265.584224,102.501252 266.152728,99.3795626 266.449062,95.9804458 C266.764474,99.391016 266.763202,102.625967 266.273551,105.66112 C265.782628,108.687365 264.724474,111.521447 263.123252,113.85667 C261.532204,116.199528 259.527815,117.990077 257.602279,119.429389 C255.661481,120.872518 253.780459,122.019131 252.045696,123.094479 C248.560908,125.22354 245.62809,127.101899 243.070459,129.178784 C240.516643,131.239124 238.276968,133.467449 236.261132,135.982108 C234.227491,138.49804 231.982728,142.567817 230.090259,148.575766 C228.14183,154.56208 226.63218,162.383485 224.643052,172.004347 C223.601431,176.802052 222.464424,182.088436 220.416793,187.654792 C219.377716,190.423971 218.094449,193.274597 216.251581,195.96233 C215.323152,197.298561 214.252279,198.587706 213.003352,199.741955 C212.35981,200.310807 211.720085,200.858026 210.97607,201.35434 C210.266394,201.848109 209.526195,202.252796 208.817791,202.690571 C205.998165,204.434034 203.258663,206.61909 201.082579,209.451899 C198.924299,212.255439 197.391756,215.860717 197.597791,219.725606 C197.756768,223.586677 199.74208,227.370119 202.66218,230.312372 C205.586095,233.294076 209.353227,235.573304 213.440858,237.326948" id="Fill-62"></path>
                            <path d="M284.698796,88.0392893 C293.565928,95.6163547 300.366352,104.217864 305.363334,112.895729 C310.374307,121.585047 313.621264,130.341814 315.601489,138.614992 C319.544132,155.232613 318.573733,169.742808 315.919444,181.060047 C313.21301,192.446007 308.807424,200.758636 304.663833,206.718225 C300.484631,212.700722 296.557249,216.423079 293.642237,219.066271 C287.495529,224.474825 281.039768,228.707495 272.006027,232.27205 C262.97483,235.704255 251.03498,238.421257 234.046002,237.142293 C250.575853,241.474227 263.657798,240.774296 273.922661,238.147648 C284.215504,235.407739 291.917648,230.932001 298.808372,224.784067 C302.476302,221.44349 306.958197,216.447259 311.142486,209.041994 C315.300067,201.66091 319.129519,191.827523 320.794332,179.457843 C322.438796,167.14543 321.973309,152.208914 316.897474,135.951438 C314.352561,127.851334 310.632486,119.454713 305.359519,111.251529 C300.096726,103.058524 293.261963,95.0704089 284.698796,88.0392893" id="Fill-64"></path>
                            <path d="M397.083591,61.2425153 C393.341895,57.3814444 389.507357,54.1172232 385.665187,51.1469729 C381.816658,48.1894485 377.943965,45.5309854 373.922469,43.1524944 C369.899701,40.7829117 365.729401,38.6691217 361.211895,37.0860063 C356.705835,35.5397962 351.787706,34.4148171 346.491845,34.9925779 C352.25192,33.0964026 357.942045,33.4094624 363.021696,34.3270076 C368.143317,35.3005473 372.847781,37.0274666 377.432693,39.3690522 C382.007431,41.7297267 386.489327,44.7305195 390.96995,48.7290313 C395.40606,52.7428143 399.971895,57.7454082 403.688155,64.5869103 C406.470898,69.8198449 408.911521,75.6470841 409.263815,82.2137045 C409.434239,85.4753804 409.005636,88.878315 407.896608,92.1387184 C406.804115,95.4042121 405.042643,98.4864513 402.880549,101.244177 C400.712095,104.001903 398.154464,106.449115 395.397157,108.608718 C394.709102,109.150846 394.005786,109.673885 393.294838,110.179108 C392.582618,110.68433 391.778828,111.218823 391.1302,111.642599 C389.624364,112.612321 388.024414,113.52223 386.329077,114.307425 C382.952394,115.88545 379.12803,116.960798 375.204464,117.220408 C371.284713,117.482564 367.364963,116.960798 363.802594,115.947807 C359.313067,114.680297 355.46581,112.79812 351.716484,110.712328 C347.972244,108.611264 344.325935,106.244226 340.279002,103.695207 C336.230798,101.150005 331.783242,98.4024597 326.405985,95.6650953 C321.031272,92.9353665 314.706509,90.2209089 306.953491,88.0600327 C323.052195,89.5947893 334.54182,93.5220355 343.706559,96.810436 C352.872569,100.154831 359.835786,103.32488 366.774838,105.313955 C371.132095,106.531834 375.551671,107.364115 380.678379,106.48093 C383.257631,106.046973 385.871222,105.213419 388.736633,103.934455 C391.513017,102.715304 394.325012,101.214908 396.904264,99.2881898 C399.484788,97.3640174 401.863092,94.9842538 403.611845,92.0610897 C405.369501,89.1519242 406.421297,85.6751787 406.468354,82.0139061 C406.592993,74.6226405 402.762269,67.0761175 397.083591,61.2425153" id="Fill-66"></path>
                            <path d="M271.575771,259.658929 C277.517716,260.885716 283.417691,261.230591 289.000983,260.587928 C294.583002,259.936356 299.820359,258.321426 304.430708,255.948025 C313.716269,251.197406 320.364075,243.848136 325.128314,236.47596 C329.901456,229.032517 332.957641,221.433818 335.108289,214.333978 C337.248763,207.215049 338.477342,200.54153 339.213726,194.450862 C340.662329,182.24662 340.231182,172.387782 339.518963,164.649096 C338.767317,156.897684 337.654474,151.219339 336.850683,147.050299 C335.110833,138.400431 333.115347,130.432677 329.458863,120.824541 C327.590559,116.039562 325.25804,110.84735 321.816494,105.252997 C318.359686,99.6930042 313.791307,93.6405146 306.91203,88.0512517 C314.721007,92.3310083 320.540858,97.7408345 325.039287,102.957225 C329.538988,108.214339 332.771955,113.355647 335.328314,118.187712 C340.373626,127.911655 342.938888,136.362997 344.73597,145.544812 C345.673302,150.487594 346.492354,157.158567 346.595372,165.813526 C346.670409,174.455758 346.073925,185.125243 343.427267,197.751989 C342.079137,204.053908 340.210833,210.841961 337.406469,217.939256 C334.586843,225.014917 330.859137,232.458359 325.465347,239.542928 C320.103352,246.574047 312.894673,253.32774 303.483202,257.370793 C298.809262,259.394228 293.634224,260.683373 288.227716,261.057517 C282.818663,261.458387 277.198489,260.927712 271.575771,259.658929" id="Fill-68"></path>
                            <path d="M333.24291,96.2633449 C342.529743,100.901975 350.37306,106.825932 356.124232,113.648345 C361.912287,120.447851 365.536975,128.019826 367.477773,135.305466 C369.436377,142.610195 369.842087,149.601864 369.576277,155.93178 C369.297748,162.274423 368.329893,167.994764 367.159818,173.111892 C364.770067,183.353783 361.640117,191.218456 359.012536,197.381662 C356.3468,203.543595 354.084232,208.009152 352.475379,211.328095 C349.096152,218.207775 345.865728,224.569506 341.631838,232.499082 C339.506626,236.459416 337.11306,240.802803 334.205678,245.735403 C331.284307,250.659096 327.887274,256.196182 323.461339,262.346662 C328.944157,257.062823 333.296327,252.111134 337.002411,247.640487 C340.699594,243.154569 343.72907,239.110243 346.347748,235.343345 C351.567299,227.799367 355.209793,221.42491 358.660242,214.312344 C360.498022,210.483088 362.717349,205.269242 365.077848,198.30557 C367.402736,191.341898 369.961638,182.610584 371.508172,171.680216 C372.253459,166.219485 372.720217,160.200083 372.441688,153.664006 C372.1568,147.144471 371.11518,140.068811 368.555005,132.893887 C366.016451,125.729145 361.853783,118.521134 355.850791,112.210306 C349.875778,105.875299 342.150741,100.503651 333.24291,96.2633449" id="Fill-70"></path>
                            <path d="M209.410586,201.335506 C216.324202,198.338531 223.175499,196.745234 229.389613,194.949595 C235.631708,193.217585 241.357444,191.505937 246.487968,189.583037 C256.768092,185.791959 264.598691,181.020978 269.716496,175.907668 C274.890262,170.817265 277.409738,165.678503 278.859613,161.524734 C280.291683,157.331514 280.741908,154.03675 281.155249,151.626444 C281.942506,146.588218 282.37111,141.768878 282.614027,135.486048 C282.81116,129.203218 282.765374,121.405992 281.489738,110.419629 C286.54904,120.317919 289.185524,128.117689 290.527294,134.848475 C291.834726,141.590714 291.927569,147.280513 290.913928,153.325366 C290.336521,156.5565 289.11303,160.892251 286.340461,165.959748 C283.580611,170.994156 279.033853,176.6865 272.180012,181.386215 C265.356696,186.134289 256.448865,189.72175 245.885125,192.415846 C240.599439,193.788983 234.886421,194.963593 228.768965,196.224741 C222.67313,197.543155 216.080012,198.743218 209.410586,201.335506" id="Fill-72"></path>
                            <path d="M268.80104,0.126623783 C283.027623,0.652207928 295.548696,4.4165612 306.385878,10.8368324 C309.085953,12.4606711 311.677923,14.2843081 314.096925,16.35992 C316.505753,18.4508032 318.784855,20.7834805 320.584481,23.6048366 C321.474756,25.0174235 322.244207,26.5649061 322.667723,28.2778268 C323.097599,29.970386 323.101414,31.8920132 322.405728,33.5603929 C321.71513,35.2300452 320.447125,36.5013734 319.058297,37.3947392 C317.658022,38.2995584 316.114032,38.8913178 314.543334,39.3558171 C316.17508,38.4688143 317.658022,37.4329172 318.76705,36.20613 C319.879893,34.981888 320.519618,33.5603929 320.555229,32.2025278 C320.603559,29.4549826 318.727623,27.0204972 316.721963,25.0250591 C312.524955,21.0278199 307.400791,18.209009 302.036252,15.5963595 C296.611938,13.0244332 290.736127,10.7388421 283.949693,8.67722879 C277.159444,6.63724965 269.431863,4.81106745 260.209893,3.74462796 C246.036726,2.09279207 230.400965,5.15085188 216.442736,11.8447323 C212.957948,13.506749 209.524032,15.4054694 206.28089,17.4390855 C205.363908,18.0092107 204.668222,18.4533484 203.966177,18.9712969 C203.265404,19.4841551 202.588796,20.0224652 201.942711,20.5862274 C200.647998,21.7137517 199.463933,22.9392663 198.409594,24.2525904 C194.175703,29.5071592 191.969095,36.0814152 191.576102,42.7982024 C191.331913,47.0092385 191.69311,51.1502816 192.789419,55.3485918 C193.911165,59.5278129 195.771838,63.8152051 199.054406,67.9167976 C202.324257,71.9891203 207.125379,75.8781885 213.899095,78.4081189 C220.643559,80.9558658 229.291938,82.0108519 239.268097,80.8413317 C229.635329,83.7772218 220.606676,84.6349548 212.567499,83.445073 C204.528322,82.2895515 197.599444,79.0673261 192.299768,74.7544819 C186.9772,70.4352747 183.234232,65.1412552 180.859743,59.5748992 C178.499244,53.9869089 177.451264,48.0616794 177.80483,41.9684666 C178.239793,34.3481328 181.330317,26.0189604 187.370192,19.407799 C190.364057,16.1117629 194.058696,13.3005876 198.175579,11.2364291 C199.19685,10.7235709 200.27281,10.2463456 201.319519,9.83147775 L204.33882,8.68359179 C206.38518,7.9353025 208.48114,7.24046245 210.616526,6.59143602 C227.77084,1.38904381 247.19917,-0.537673853 268.80104,0.126623783" id="Fill-74"></path>
                            <path d="M271.542195,8.3625146 C262.663616,7.21462865 254.0801,8.72011544 247.439925,12.5773686 C240.757781,16.3900807 236.179227,22.1829597 233.512219,28.0534673 C230.809601,33.9570626 229.864638,39.9599207 229.953666,45.3493853 C230.046509,50.7592114 231.188603,55.5989124 232.85596,59.6737803 C236.2301,67.8858734 241.503067,72.8897399 245.998953,75.9477997 C250.572419,79.0236759 254.504888,80.3713602 257.36394,81.3258108 C263.374564,83.2028971 269.287257,84.1560751 276.86985,84.363509 C284.446085,84.5124033 293.792693,83.8786481 306.515985,80.8231335 C294.498554,86.1286064 285.023491,88.3556579 276.999576,89.1166732 C268.966758,89.821694 262.307506,89.1243088 255.514713,86.9608873 C251.90783,85.7493713 247.092718,83.6572156 241.969825,79.383822 C236.910524,75.1473338 231.586683,68.4445452 228.965461,59.001847 C227.661845,54.3123129 227.0501,48.9915688 227.547382,43.3081335 C228.048479,37.6425146 229.67005,31.5760264 232.952618,25.8429597 C236.21611,20.1417079 241.289401,14.7891488 248.089825,11.4943853 C254.85591,8.14489986 263.132918,7.11918359 271.542195,8.3625146" id="Fill-76"></path>
                            <path d="M356.082262,54.8385334 C353.965953,49.8219409 351.132337,45.5281857 348.093958,41.6187559 C345.032686,37.7182344 341.713234,34.2122191 338.124157,31.0090828 C334.529993,27.8212177 330.656027,24.922233 326.310217,22.524653 C321.96695,20.1537976 317.118771,18.2245348 311.634681,17.6595 C317.85897,16.9824764 323.583434,18.1761759 328.635105,20.0176293 C333.708397,21.9036238 338.237349,24.5277267 342.452162,27.8644861 C346.652985,31.2203345 350.593085,35.3066558 354.048621,40.5904944 C355.761763,43.2362316 357.350267,46.1899381 358.606825,49.5406961 C359.855753,52.8812733 360.793085,56.6405362 360.930441,60.7561273 C361.192436,67.0351398 359.607748,73.720112 355.698172,79.280105 C353.776451,82.0671008 351.419768,84.5626711 348.733683,86.7871773 C346.113733,88.9633248 343.155479,90.9625807 339.893259,92.5278797 C333.40316,95.71829 325.468272,97.0227058 317.799195,95.6012107 C310.131389,94.23571 302.920167,90.3708213 297.395379,84.9088185 C293.933484,81.476614 291.210516,77.5493679 289.206127,73.0812663 C287.225903,68.6169826 285.921015,63.5685751 285.884132,57.9233178 C285.84089,52.3200563 287.181389,46.0245 290.821339,40.2138046 C294.420591,34.3891106 300.277324,29.3559743 307.829394,25.8016001 C300.979369,30.6807517 296.618297,36.5894374 294.669868,42.1799729 C292.679469,47.79087 292.867698,52.9054527 293.821564,57.1839367 C294.79705,61.4878727 296.540716,65.0626085 298.519668,68.2275668 C300.524057,71.3874346 302.813334,74.1540688 305.432012,76.7514471 C308.722212,79.9863985 312.650865,83.2506196 317.633858,85.5794791 C322.568521,87.9057935 328.683434,89.1758491 335.232037,87.9706961 C338.490441,87.3840271 341.808621,86.1916001 344.980541,84.4175946 C348.148646,82.6537698 351.160317,80.3427267 353.522087,77.3521147 C355.888945,74.3793192 357.506701,70.6900494 357.944207,66.7386238 C358.394431,62.7884708 357.686027,58.6601537 356.082262,54.8385334" id="Fill-78"></path>
                            <path d="M413.464511,313.241787 C411.270621,313.962079 409.207728,314.826175 407.381394,315.933338 C405.574137,317.036683 403.923314,318.372914 402.982167,320.042566 C402.515409,320.868484 402.262317,321.786029 402.372965,322.638672 C402.468352,323.492587 402.928751,324.244694 403.54304,324.814819 C404.771618,325.966523 406.514012,326.462837 408.092342,326.983331 C411.299873,327.936509 414.398027,328.380647 417.240546,329.055125 C420.076706,329.692698 422.736082,330.59879 424.918526,331.781036 C427.11496,333.002733 429.161319,334.239701 430.445858,336.571106 C431.084312,337.718992 431.240746,339.252476 430.913888,340.470355 C430.595933,341.694597 430.001993,342.613414 429.425858,343.34007 C428.245608,344.797197 427.064087,345.677837 426.039,346.413401 C425.544262,346.762093 425.019,347.105695 424.544611,347.372942 C423.972292,347.691092 423.523339,347.894708 423.065484,348.079235 C419.313613,349.513456 415.942017,349.527455 412.068052,349.871057 C410.14506,350.059402 408.040197,350.237566 405.969673,351.176745 C404.942042,351.651426 403.934761,352.366627 403.106805,353.453428 C402.272491,354.530049 401.658202,355.968088 401.267753,357.609743 C401.206706,355.921001 401.415284,354.280619 402.035933,352.823491 C402.636232,351.361273 403.65496,350.139576 404.775434,349.258936 C407.062167,347.491293 409.445559,346.811725 411.44486,346.249235 C415.484162,345.20443 418.643364,344.877371 421.389224,343.812204 C421.740247,343.676036 422.157404,343.494054 422.48299,343.334979 C422.902691,343.118637 423.388526,342.839937 423.870546,342.556147 C424.828227,341.980932 425.896556,341.259367 426.67491,340.38509 C427.413838,339.442093 427.776307,338.822337 427.085708,337.510285 C426.363314,336.214777 424.697229,334.841641 422.757703,333.635216 C420.839798,332.431335 418.47294,331.474339 415.76905,330.640786 C413.075334,329.786871 410.024237,329.075487 406.870122,327.786342 C405.336307,327.128408 403.582466,326.40557 402.437828,324.79064 C401.885858,323.997809 401.60097,322.983547 401.711618,321.993463 C401.83117,321.00847 402.266132,320.092197 402.857529,319.30573 C404.041594,317.723887 405.725484,316.549277 407.537828,315.580828 C409.360347,314.613651 411.36092,313.862816 413.464511,313.241787" id="Fill-80"></path>
                            <path d="M390.305933,305.793127 C387.631294,305.712953 385.110546,306.272898 383.196456,307.498412 C381.267105,308.690839 380.056332,310.550109 379.748551,312.366111 C379.438227,314.192293 379.969848,315.882307 380.863938,317.069643 C381.310347,317.670311 381.83688,318.162807 382.385035,318.563677 C382.653389,318.772383 382.94718,318.939094 383.228252,319.104532 L384.151594,319.628844 C386.620197,321.055429 388.516481,322.417112 389.881145,323.935325 C390.553938,324.698885 391.084287,325.515895 391.411145,326.36472 C391.731643,327.21609 391.825758,328.07764 391.75708,328.780116 C391.605733,330.266514 390.899873,331.441124 390.173663,332.324309 C389.439823,333.227856 388.600421,333.941785 387.869125,334.669713 C387.50284,335.029859 387.186157,335.395095 387.00683,335.718336 C386.835135,336.026305 386.75501,336.343183 386.973763,336.895492 C387.44688,337.988656 388.775933,339.195081 390.332641,340.367147 C388.437628,339.769024 386.781718,339.198899 385.514985,337.863941 C384.881618,337.202188 384.514062,336.044122 384.716282,335.094761 C384.887978,334.160672 385.28097,333.486194 385.619274,332.922432 C386.327678,331.807634 386.97885,331.023711 387.440521,330.289421 C387.916182,329.561493 388.168002,328.955735 388.226506,328.425061 C388.283738,327.890568 388.212516,326.978113 387.254835,325.617703 C386.336581,324.2802 384.725185,322.719991 382.541469,321.055429 C381.372666,320.224421 380.051244,318.970909 379.290696,317.319073 C378.507254,315.674873 378.315209,313.58399 379.012167,311.643273 C379.677329,309.691104 381.258202,308.004908 383.284212,306.994462 C385.325484,305.978927 387.769923,305.625144 390.305933,305.793127" id="Fill-82"></path>
                            <path d="M294.816254,262.422891 C293.571142,269.218579 293.530444,275.28125 294.779372,280.126041 C295.992688,284.99883 298.537601,288.396674 301.133387,290.421382 C303.740618,292.479177 306.281716,293.409449 308.297551,294.033023 C310.351541,294.665506 311.833212,294.84367 313.223312,295.272536 C315.857252,296.136632 318.360195,297.190346 320.837701,299.783906 C322.010319,301.060325 323.222364,303.08885 323.018873,305.495339 C322.803935,307.881465 321.304459,309.873086 319.386554,311.516013 C320.653287,309.282599 321.178549,307.09118 320.767751,305.575513 C320.370943,304.067481 319.375107,303.195749 318.353835,302.48182 C316.238798,301.107411 314.100868,300.382029 311.853561,299.635012 C310.766155,299.286319 308.681641,298.717467 306.421616,297.582307 C304.128524,296.447147 301.325431,294.754588 298.756354,291.847967 C296.179646,288.971889 294.144733,284.762126 293.51391,279.702265 C292.839845,274.639859 293.386728,268.830436 294.816254,262.422891" id="Fill-84"></path>
                            <path d="M131.922,833.697605 C129.480105,835.876298 126.601975,837.463231 123.863746,839.06289 C121.092449,840.632007 118.322424,842.09168 115.585466,843.488996 C110.106464,846.286172 104.7521,848.842828 99.555441,851.26586 C94.356239,853.679983 89.314743,855.952848 84.4055162,858.09209 C81.9865137,859.211979 79.3004289,860.123161 76.6486833,860.475672 C73.9842195,860.868905 71.3197556,860.821819 68.7608529,860.504942 C63.6252419,859.855915 58.9347681,858.205352 54.5495312,856.502612 L41.8707531,851.394392 C37.8085586,849.517306 34.0388828,847.504051 30.4014763,845.420804 C28.5865885,844.370908 26.8162145,843.298106 25.0967132,842.154038 C24.2369626,841.576277 23.3899302,840.984517 22.555616,840.336764 C21.7213017,839.663558 20.9098803,839.041256 20.0793815,837.981179 L19.9509277,837.819559 L19.8542693,837.58031 C15.3698304,826.410693 10.9260898,816.248975 7.3599052,806.115255 C6.5408529,803.671861 5.5043192,801.276826 4.5936958,798.777438 C3.6754414,796.290776 2.8500299,793.762118 2.2103042,791.187647 C0.9194065,786.045067 0.3750673,780.66451 1.0109776,775.346312 C1.9508529,767.143127 5.717985,760.014017 10.4199052,754.521471 C10.9973117,753.84063 11.6306783,753.134337 12.234793,752.491673 C12.7982095,751.906277 13.5040698,751.150352 14.239182,750.553502 C15.7094065,749.322897 17.3169875,748.360811 18.9525486,747.588342 C22.2389327,746.05104 25.6270623,745.209851 28.9452419,744.607911 C30.6075112,744.31394 32.2608778,744.084872 33.8913516,743.883801 L38.8667132,743.285679 C40.794793,743.222049 42.4354414,743.49184 44.1015262,743.761631 C45.7523491,744.047967 47.3662893,744.396659 48.9700549,744.772076 C55.358409,746.254656 61.704793,748.275547 68.1402045,749.852299 C71.7801546,750.596771 75.0029476,752.324962 78.1418005,754.013704 C81.2870125,755.724079 84.3877107,757.666068 87.6194065,759.219914 C88.027661,759.410804 88.41811,759.58006 88.80983,759.740408 C89.176115,759.86894 89.870529,760.141277 90.334743,760.451791 C91.297511,761.055004 92.031352,761.730755 92.774095,762.411597 C94.231601,763.780915 95.561925,765.221499 96.925317,766.670992 C99.641925,769.561068 102.405591,772.55168 105.605491,775.19869 C106.011202,775.535929 106.39402,775.836263 106.823895,776.160776 L107.517037,776.688905 C107.801925,776.926882 108.081726,777.236124 108.28013,777.634448 C108.722723,778.450185 108.549756,779.506444 108.154219,780.132563 C107.767586,780.794316 107.253771,781.244816 106.725965,781.611325 C104.57786,783.029003 102.080005,783.338245 99.669905,783.146082 C97.244544,782.931013 94.885317,782.087278 92.767736,780.823586 C91.71594,780.197466 90.693397,779.438996 89.766239,778.63853 C88.867062,777.869879 87.8966633,777.159768 86.8817506,776.492925 C82.785217,773.845915 77.9357656,772.019733 72.7823491,770.603328 C67.6238454,769.155108 62.0825237,768.293558 56.3695062,767.174942 C62.1181347,768.055581 67.6950673,768.689337 72.9489576,769.939031 C78.1964888,771.160727 83.1921995,772.810018 87.5570873,775.401033 C88.64195,776.057695 89.687387,776.763989 90.669232,777.541548 C91.607835,778.289837 92.533721,778.921047 93.538459,779.477174 C95.525042,780.565248 97.673147,781.235908 99.798359,781.34917 C101.890504,781.462431 104.066589,781.031019 105.543172,779.958217 C105.899282,779.697334 106.190529,779.386819 106.329157,779.117028 C106.46397,778.828147 106.438534,778.73143 106.374943,778.615623 C106.33806,778.549448 106.261751,778.459093 106.140928,778.366193 L105.540628,777.944962 C105.105666,777.63572 104.631277,777.2883 104.209032,776.959969 C100.753496,774.282417 97.842299,771.309622 95.040479,768.495901 C93.640204,767.09095 92.276813,765.699997 90.899431,764.475755 C90.215192,763.875088 89.506788,763.285873 88.856888,762.906638 C88.521127,762.710658 88.340529,762.649573 87.8165387,762.467591 C87.3281596,762.288154 86.8512269,762.093446 86.4111771,761.900011 C82.8577107,760.297807 79.7582843,758.438537 76.6385087,756.833787 C73.5250923,755.237946 70.5070623,753.732459 67.4407032,753.182695 C60.6313766,751.642848 54.4426983,749.751764 48.1497307,748.365901 C46.5866633,748.015936 45.0286833,747.695241 43.4846933,747.44072 C41.9597805,747.197654 40.3738204,746.988947 39.0600299,747.052577 L34.3695561,747.65579 C32.7721496,747.861951 31.1912768,748.088474 29.6269377,748.376082 C26.5046185,748.951298 23.4153666,749.753036 20.6046434,751.080359 C19.2043691,751.744656 17.8842195,752.54894 16.7306783,753.521207 C16.1354663,754.003523 15.6687082,754.510018 15.0378853,755.170498 C14.459207,755.790255 13.9326733,756.380741 13.3819751,757.03104 C9.047611,762.116353 5.717985,768.472994 4.8709526,775.80572 C4.3011771,780.570338 4.7768379,785.44949 5.9774364,790.24974 C6.5726484,792.65241 7.3446434,795.038537 8.2247431,797.438662 C9.0883092,799.831152 10.1324738,802.264364 10.9947681,804.859197 C14.4414015,814.776576 18.8190075,825.001924 23.1724489,836.265713 L22.944793,835.857209 C23.3085337,836.353523 24.0347431,837.002549 24.7431471,837.566312 C25.4693566,838.14789 26.2502544,838.71547 27.0527731,839.269051 C28.6654414,840.377487 30.368409,841.447744 32.1197057,842.501458 C35.6248429,844.591068 39.3347431,846.659045 43.2036209,848.545039 L55.6140449,853.873419 C59.877187,855.652515 64.3349177,857.337438 69.0978853,858.076819 C73.8659401,858.842925 78.8438454,858.406423 83.6462394,856.254455 C88.59998,854.287014 93.708883,852.184677 98.979307,849.958898 C104.247187,847.726757 109.680404,845.373718 115.249706,842.799246 C118.033721,841.508829 120.850803,840.166235 123.675516,838.714197 C126.468434,837.2278 129.394893,835.768127 131.922,833.697605" id="Fill-86"></path>
                            <path d="M56.3070599,776.21308 C61.5863865,779.190966 66.2717731,782.453914 70.8617731,785.169645 C75.4390549,787.908282 79.9463865,790.048796 84.3812244,791.544102 C88.737209,792.983414 93.187309,793.450458 97.324541,793.95059 C101.485938,794.407454 105.440027,794.711606 109.205888,794.983942 C116.745239,795.524798 123.545663,795.881126 130.000152,796.444888 C131.616636,796.589965 133.210227,796.746494 134.80509,796.962837 C136.380875,797.166453 138.082571,797.47824 139.663444,798.089088 C141.235414,798.717753 142.906586,799.537308 144.081748,801.330403 C144.656611,802.221223 144.952945,803.47219 144.698581,804.618803 C144.444217,805.753963 143.808307,806.671508 143.106262,807.32308 C141.178182,809.065271 139.02499,809.629033 136.969728,810.014631 C134.920825,810.328963 133.145364,810.41041 131.30504,810.574575 L120.798531,811.297412 C113.986661,811.714825 107.424067,812.05461 100.34893,812.312948 C96.808182,812.438935 93.149155,812.556015 89.238307,812.578921 L87.7502768,812.571286 C87.2657132,812.575104 86.6145411,812.5242 86.1070848,812.427482 C85.0374838,812.241682 84.030202,811.951529 83.0203766,811.630834 C81.0083566,810.97799 79.0128703,810.178796 76.9639676,809.3147 C68.7721721,805.854499 59.8465362,801.131877 48.7855137,796.147099 C60.137783,800.434492 69.3495786,804.658254 77.6062369,807.683226 C79.6653142,808.439151 81.664616,809.131446 83.6028703,809.668483 C84.5694539,809.930639 85.5258628,810.158435 86.4288554,810.276787 C86.9083317,810.336599 87.2428204,810.355688 87.7426459,810.336599 L89.18489,810.286967 C93.037234,810.118984 96.692446,809.883553 100.214117,809.664666 L120.603943,808.319526 L131.065938,807.558511 C134.635938,807.218727 138.65489,807.25945 141.015389,805.130389 C141.814092,804.314652 141.967983,803.679624 141.502496,802.919881 C141.015389,802.120688 139.84913,801.386397 138.586212,800.915535 C136.045115,799.950903 132.891,799.775284 129.725439,799.416411 L108.982047,797.627134 C105.202197,797.25808 101.230302,796.831759 97.030751,796.224728 C92.842646,795.56043 88.374741,794.930493 83.7720224,793.188303 C79.2939426,791.44993 74.7840673,789.024353 70.3276085,786.014652 C65.8495287,783.026585 61.3879825,779.516752 56.3070599,776.21308" id="Fill-88"></path>
                            <path d="M135.49785,808.820931 C137.324185,808.701307 139.146703,808.925284 140.807701,809.552677 C142.44199,810.183887 144.012688,811.215966 144.831741,812.880528 C145.231092,813.702628 145.365905,814.690166 145.171317,815.600076 C144.983087,816.513803 144.525232,817.316814 143.982165,817.976022 C142.876953,819.307162 141.513561,820.157259 140.146354,820.871188 C138.748623,821.595298 137.303835,821.964353 135.978599,822.324499 C134.634284,822.671919 133.330668,822.959526 132.061392,823.2255 C129.525382,823.753629 127.130544,824.181223 124.848898,824.570639 C115.733761,826.118122 108.392813,826.987308 101.233736,828.298087 C100.044584,828.519519 98.902489,828.753678 97.823985,829.017106 L94.482913,829.804846 C92.285207,830.288435 90.158723,830.681668 88.036055,830.959095 C85.9133865,831.231432 83.79199,831.393052 81.6044589,831.319241 C79.4576259,831.249248 77.0666035,830.881467 74.9401197,829.975375 C66.8500698,826.599165 58.2373017,822.067433 44.5970274,816.25292 C58.8070773,820.306154 68.0735611,824.104867 76.0415162,826.937677 C79.7069027,828.228094 83.5706933,827.879401 87.5438603,827.358908 C89.534259,827.070027 91.566628,826.680611 93.685481,826.207204 L96.950244,825.429645 C98.12795,825.140764 99.32219,824.89897 100.55204,824.668629 C107.91588,823.320945 115.246653,822.458122 124.394858,821.370048 L131.594633,820.474137 C132.853736,820.301063 134.145905,820.113991 135.454608,819.886195 C136.768399,819.640583 138.079646,819.419151 139.286603,818.917746 C140.507551,818.421432 141.775556,817.76477 142.710344,816.831953 C143.656579,815.913136 144.178025,814.654533 143.70618,813.3463 C143.254683,812.040611 142.003212,810.904179 140.539347,810.145709 C139.061491,809.377058 137.322913,808.934193 135.49785,808.820931" id="Fill-90"></path>
                            <path d="M136.779591,821.458748 C138.516898,821.349305 140.302534,821.488018 141.794379,822.376293 C142.523132,822.819159 143.15014,823.540723 143.33201,824.426453 C143.522783,825.312184 143.287496,826.206822 142.921212,826.946203 C142.15812,828.444054 140.974055,829.542309 139.798893,830.478943 C138.607197,831.410487 137.362085,832.182955 136.124603,832.856161 C131.14797,835.510807 126.354479,836.894124 122.083706,838.036919 C113.505277,840.281787 106.586574,841.699465 99.675501,843.16041 L87.1747781,845.787058 C85.2428828,846.208289 83.3465985,846.657517 81.3561995,847.015118 C79.3759751,847.373992 77.2507631,847.601787 75.0759501,847.443985 C72.8159252,847.337086 70.6907132,846.610431 68.5349776,845.935953 C66.3652519,845.228387 64.1103142,844.413922 61.6900399,843.530737 C56.8405885,841.791092 51.3768479,839.61749 44.5751521,837.66532 C51.5447282,838.929013 57.2234065,840.615209 62.1860499,841.974346 L69.1301895,843.88452 C71.3151771,844.427921 73.3144788,844.980229 75.1878703,844.973866 C79.0427581,845.084583 82.6585436,843.936697 86.5617606,843.072601 C90.462434,842.174145 94.490289,841.366043 99.096823,840.396321 L121.497397,835.634249 C125.777072,834.672163 130.454828,833.586634 135.398394,831.390125 C136.625701,830.836544 137.854279,830.196426 139.031985,829.416321 C140.195701,828.638762 141.353057,827.707218 142.10216,826.502065 C142.4659,825.901398 142.701187,825.219284 142.619791,824.549896 C142.548569,823.877962 142.125052,823.246752 141.512035,822.783526 C140.259292,821.858345 138.515626,821.516015 136.779591,821.458748" id="Fill-92"></path>
                            <path d="M300.628855,800.437164 C308.049928,808.602171 314.669753,816.624647 320.784666,824.573312 C323.842122,828.522192 326.766037,832.56779 329.616187,836.358868 C332.503219,840.111768 335.462746,843.883757 338.73514,846.664389 C339.544017,847.337595 340.384691,847.920446 341.141424,848.261503 C341.926137,848.610196 342.427234,848.65601 342.822771,848.530022 C343.251374,848.415488 343.872022,847.87336 344.408731,847.067804 C344.950526,846.268611 345.431274,845.28489 345.86115,844.257901 C347.55903,840.07359 348.715115,835.343332 350.050526,830.684341 C352.670476,821.325634 355.67706,811.641142 360.854641,802.580224 C356.17307,813.420238 354.451025,823.688854 352.582721,833.447157 C352.117234,835.899459 351.65302,838.327581 351.093419,840.760794 C350.513469,843.191462 349.904267,845.622129 348.767259,848.110064 C348.165688,849.340669 347.454741,850.645085 346.100252,851.798061 C345.423643,852.359278 344.547359,852.853047 343.579504,853.068117 C342.619279,853.298458 341.646337,853.257734 340.80312,853.085933 C339.107783,852.723242 337.825788,851.97368 336.665888,851.207574 C335.51489,850.423652 334.493618,849.568465 333.525763,848.677644 C329.701399,845.101636 326.53711,841.080217 323.34484,836.839911 L313.559454,823.648131 C306.677633,814.444682 298.984392,804.279146 289.593269,792.750655 C282.378232,783.920078 274.326337,775.224396 265.452845,766.997032 C256.570451,758.838388 246.866461,750.894814 236.082696,745.04085 C233.376262,743.596448 230.650751,742.344209 227.803145,741.342672 C224.731698,740.240599 221.684416,739.031629 218.666387,737.724668 C212.625239,735.109473 206.699828,732.094682 200.971549,728.693019 C189.504815,721.890968 178.789728,713.533798 169.458382,703.798402 C163.613095,697.695008 158.515638,691.259466 153.91292,684.067999 C149.347085,676.865078 145.185688,668.907505 142.09898,659.415175 C140.591873,654.663284 139.345489,649.514341 138.902895,643.875446 C138.661249,640.934466 138.742646,638.2111 138.900352,635.249758 C139.074591,632.321503 139.421798,629.295259 140.080601,626.201566 C140.743219,623.115509 141.716162,619.936552 143.340277,616.891218 C144.941499,613.871337 147.304541,610.927811 150.58711,609.090175 C153.835339,607.219452 157.888631,606.705321 161.617608,607.66359 C165.3008,608.601497 168.966187,610.846364 170.834491,614.456733 C168.64696,611.028346 164.891274,609.247978 161.370875,608.704577 C157.795788,608.152268 154.262671,609.025273 151.654167,610.916357 C149.012596,612.789626 147.261299,615.501538 146.13701,618.310168 C144.998731,621.128979 144.428955,624.076323 144.136436,626.951128 C143.84519,629.831024 143.8312,632.656197 143.9711,635.391017 C144.116087,638.101656 144.36282,640.855565 144.838481,643.203513 C145.788531,648.134841 147.416461,652.648757 149.246611,656.806344 C152.971773,665.121517 157.501998,672.062282 162.1912,678.418924 C166.916012,684.765384 171.882471,690.536629 177.341125,696.235335 C184.192421,703.383534 192.053544,710.832067 201.32893,717.948451 C205.962172,721.50537 210.951524,724.973207 216.330052,728.224702 C219.017409,729.852359 221.801424,731.426566 224.683369,732.932053 C227.574217,734.497352 230.493045,735.711413 233.769254,737.47142 C240.011349,740.91635 245.716736,745.278826 251.292397,750.000175 C256.860426,754.741886 262.274566,759.898465 267.68489,765.308291 C278.49282,776.145759 289.303294,788.002581 300.628855,800.437164" id="Fill-96"></path>
                            <path d="M205.335546,773.859277 C212.264424,776.426113 219.059761,778.020682 225.679586,779.510898 C232.303227,780.992205 238.780608,782.348798 245.14607,784.121531 C251.505172,785.887901 257.7638,788.061503 263.792229,791.048297 C269.816843,794.023638 275.583277,797.823624 280.879137,802.586969 C274.331805,797.880891 267.918015,794.771927 261.625047,792.418888 C255.319362,790.069667 249.110334,788.461099 242.574449,786.967066 C236.042379,785.459034 229.146569,784.138074 221.45587,782.147727 C213.813501,780.116656 205.190559,777.468373 196.360309,772.00128 C189.614574,767.823332 183.325421,762.394417 177.943077,755.895244 C175.246818,752.656475 172.752778,749.156823 170.467317,745.509549 C168.197117,741.939903 165.788289,738.391892 163.320958,734.846426 C153.403302,720.696378 142.5941,706.501788 131.600484,692.747518 C128.137317,688.451218 124.787342,684.326718 121.147392,680.216218 C119.331232,678.166058 117.426045,676.114625 115.386045,674.13064 L113.794998,672.632789 C113.171805,672.062664 112.558788,671.461997 111.969935,670.815515 C110.793501,669.523825 109.69592,668.064152 108.798015,666.405953 C106.974224,663.115008 106.170434,658.915425 106.919536,654.897824 C107.621581,650.864952 109.55602,647.100599 112.137815,643.67603 C114.729786,640.246371 117.997092,637.091593 121.827815,634.210425 C125.669985,631.363617 130.078115,628.661885 135.244249,626.903151 C130.245995,629.123839 126.174898,632.209896 122.715546,635.351948 C119.275272,638.524542 116.477267,641.891844 114.437267,645.310049 C112.393451,648.721892 111.143252,652.234271 110.967741,655.456496 C110.765521,658.691447 111.714299,661.515348 113.286269,663.772942 C114.082429,664.905557 115.015945,665.913457 116.03213,666.819549 C116.540858,667.271322 117.073751,667.695098 117.614274,668.101058 C118.241282,668.57701 118.825047,669.018603 119.464773,669.536551 C121.888863,671.493812 124.067491,673.481614 126.126569,675.501232 C130.23582,679.537921 133.865596,683.649695 137.420334,688.060529 C146.323077,699.157608 155.027416,713.324201 164.438888,729.547316 C166.786668,733.612003 169.176419,737.806496 171.578888,742.154973 C173.916494,746.560717 176.405446,750.862108 179.604075,754.943339 C182.764549,759.010571 186.498613,762.81183 190.829162,766.037873 C195.15208,769.274097 200.057491,771.904563 205.335546,773.859277" id="Fill-98"></path>
                            <path d="M357.874511,809.195076 C360.835309,821.924902 362.688352,833.062704 363.334436,842.795556 C363.993239,852.518226 363.400571,860.865215 361.613663,867.737259 C359.859823,874.62203 356.878676,879.903323 353.956032,883.592593 C351.018127,887.30986 348.307878,889.57509 346.29713,891.065305 C342.086132,894.165361 337.805185,896.121348 333.146506,898.625827 C330.847055,899.918789 328.454761,901.335194 326.414761,903.759499 C324.35314,906.150716 322.8791,909.916341 322.534436,914.728045 C321.177404,910.131411 321.14688,905.491508 322.734112,901.629165 C324.288277,897.759186 326.864985,895.058727 329.113564,893.007294 C333.744262,888.940062 337.592791,886.730827 341.275983,884.045639 C343.252392,882.610145 345.91304,880.869227 348.839499,878.007148 C351.753239,875.157795 354.89718,871.009116 357.209349,864.915903 C359.539324,858.853233 360.961219,850.972016 361.107479,841.606946 C361.266456,832.236787 360.212117,821.392955 357.874511,809.195076" id="Fill-100"></path>
                            <path d="M151.450167,807.656501 C162.635828,810.524944 172.377973,815.290834 181.056875,820.166168 C189.735778,825.093678 197.398496,830.247711 204.379519,835.117955 C218.307224,844.924617 229.595903,853.556668 239.278272,860.278546 C248.930117,867.039874 256.905703,871.97502 263.433958,875.362684 C269.964756,878.773254 274.998621,880.647795 278.6869,881.816042 C279.645853,882.121467 280.599718,882.393803 281.549768,882.640688 L284.560167,883.39534 C286.577274,883.892927 288.594382,884.367607 290.652187,884.821926 C294.76907,885.715291 299.055105,886.548845 303.824431,887.006981 C308.58104,887.426939 313.883259,887.533838 319.734905,885.999081 C325.558571,884.491049 331.875703,880.922677 337.542935,874.703476 C333.092835,881.84404 327.124182,886.86954 320.943135,889.548365 C314.760815,892.259005 308.797249,892.969116 303.575155,893.101467 C298.316177,893.200729 293.654955,892.69678 289.267175,891.990486 C287.070741,891.631613 284.93917,891.216745 282.830491,890.747155 L279.657299,890.005229 C278.549544,889.725257 277.450691,889.412197 276.358197,889.058414 C271.656277,887.555472 265.771564,884.787565 258.860491,880.388184 C251.930342,876.004074 243.984007,869.987218 234.661564,862.365611 C225.307324,854.779638 214.624032,845.499832 201.464506,835.386474 C194.870117,830.357155 187.634731,825.131856 179.432761,820.19162 C171.232062,815.294652 162.025354,810.587301 151.450167,807.656501" id="Fill-102"></path>
                            <path d="M74.5435661,877.934101 C84.3912718,880.598927 93.829451,881.837168 102.603741,882.239309 C111.385661,882.645269 119.51005,882.252035 126.984539,881.620825 C141.933516,880.293503 154.350299,878.253524 164.870798,877.244351 C175.37985,876.163913 183.972269,875.980659 190.842643,876.462974 C197.715561,876.931291 202.837182,877.962098 206.521646,878.969998 C214.16783,881.110513 221.067456,884.208023 228.578828,889.514768 C236.048229,894.853329 244.116658,902.50675 252.706534,914.68045 C242.025786,904.194219 233.196808,898.238447 225.661272,894.066862 C218.083766,889.939817 211.741197,887.478607 204.704214,885.465353 C200.918005,884.411639 195.834539,883.088134 188.990873,882.198586 C182.15611,881.284859 173.562419,880.910714 162.997406,881.330672 C152.431122,881.68191 139.912594,882.94433 125.142943,883.44828 C110.425436,883.8886 93.1999,883.383378 74.5435661,877.934101" id="Fill-106"></path>
                            <path d="M229.602007,571.304493 C226.778566,573.422101 223.61682,574.804145 220.532656,575.896037 C217.434501,576.982838 214.365599,577.76167 211.392082,578.417059 C205.437419,579.704931 199.861758,580.496489 194.717244,581.192602 C184.418042,582.535195 175.806546,583.474375 168.685623,584.529361 C154.414526,586.548978 146.18712,588.913471 141.533529,590.401141 C136.718416,591.979166 132.227618,593.550828 127.586746,596.85959 C125.320362,598.549604 123.0349,600.775383 121.471833,604.090508 C119.882057,607.380182 119.209264,611.774472 119.771409,616.864876 C118.306272,611.953909 118.143479,607.235105 119.342805,603.25441 C120.506521,599.255898 122.833953,596.215654 125.217344,593.988603 C127.631259,591.743735 130.149464,590.202615 132.619339,588.945286 C135.101933,587.705773 137.571808,586.765321 140.162506,585.963582 C145.735623,584.199757 155.219589,582.644639 169.867145,581.667282 C177.19283,581.132789 185.824676,580.743373 195.919115,579.867824 C200.961883,579.408415 206.379838,578.8332 212.119564,577.745126 C214.986247,577.192817 217.934327,576.503067 220.905299,575.526983 C223.86101,574.535627 226.881584,573.266844 229.602007,571.304493" id="Fill-108"></path>
                            <path d="M182.746998,589.947332 C176.240364,593.524613 169.920688,596.338333 164.0258,598.869536 C158.12201,601.385468 152.618843,603.597248 147.558269,605.681768 C137.432035,609.834265 129.086349,613.542624 122.444903,617.145357 C115.793282,620.726455 110.854803,624.152297 107.268269,627.19254 C103.671561,630.225148 101.408993,632.836525 99.834479,634.788695 C96.609142,638.877561 94.145626,643.08478 92.577471,649.001101 C91.052559,654.898333 90.649392,662.704467 93.167596,673.251782 C88.78999,663.314042 87.7750773,654.993778 88.726399,648.222269 C89.699342,641.427853 92.365077,636.264912 96.029192,631.69882 C98.022135,629.245245 101.036349,626.283903 105.402509,623.225844 C109.758494,620.15633 115.447347,617.014279 122.592434,613.881136 C129.733706,610.727631 138.335027,607.598305 148.430738,604.010844 C153.47605,602.205023 158.896549,600.273215 164.650264,598.028347 C170.397621,595.773298 176.497272,593.223006 182.746998,589.947332" id="Fill-110"></path>
                            <path d="M108.750449,656.650704 C101.106808,665.477464 94.460274,672.997262 89.172045,679.785315 C83.85202,686.541553 79.7682045,692.450239 76.6433416,697.522825 C70.3974314,707.690906 67.9122943,714.377151 66.405187,718.180955 C64.8739152,722.16165 63.5626683,725.894188 62.4142145,730.713528 C61.8584289,733.128924 61.3598753,735.82302 61.1322195,738.980343 C60.9134663,742.13512 60.9592519,745.772213 61.773217,749.950162 C60.2165087,745.969467 59.5182793,742.261108 59.2333915,738.971435 C58.9523192,735.670308 59.0807731,732.768778 59.37202,730.167582 C59.995212,724.961372 61.1945387,720.922137 62.8186534,716.758187 C64.5915711,712.298994 68.2366085,705.143159 75.4592768,695.241052 C79.0674314,690.289362 83.5760349,684.663194 89.127531,678.302735 C94.651047,671.913006 101.326833,664.895885 108.750449,656.650704" id="Fill-112"></path>
                            <path d="M107.198574,671.040766 C103.722688,674.847115 101.181591,679.008519 99.917401,683.183923 C98.625232,687.354236 98.615057,691.421468 99.31583,694.980933 C100.01406,698.555668 101.332938,701.66336 102.77391,704.376545 C104.227601,707.093547 105.816105,709.431315 107.34992,711.501837 C110.440444,715.632699 113.282963,718.728937 115.522638,721.26523 C117.775032,723.788798 119.466554,725.735877 120.576853,727.297358 C122.847052,730.560307 124.870519,733.833436 126.26189,738.926385 C126.59002,740.206621 126.852015,741.625571 126.925781,743.213777 C126.989372,744.793074 126.858374,746.589987 126.194484,748.386899 C125.544584,750.181266 124.309646,751.838193 122.760569,752.961899 C121.215307,754.104695 119.43603,754.812261 117.543561,755.278033 C118.964185,753.917622 120.064309,752.487219 120.673511,751.121718 C121.301791,749.7524 121.39209,748.506524 121.23184,747.461718 C120.874459,745.375926 119.75017,743.687184 118.676753,742.077344 C116.426903,738.892024 114.269895,736.234834 112.157401,733.139869 C111.011491,731.475307 109.626479,729.106997 107.856105,725.914041 C106.104808,722.71345 103.91982,718.70603 101.628,713.585084 C100.49608,711.020793 99.34381,708.167622 98.391217,704.95685 C97.448798,701.754987 96.683162,698.171343 96.624658,694.269549 C96.544534,690.381753 97.273287,686.194896 99.078,682.201475 C100.872539,678.201691 103.689621,674.458971 107.198574,671.040766" id="Fill-119"></path>
                            <path d="M152.324544,308.01967 C154.566763,316.926603 172.727087,323.077083 179.126888,326.831255 C175.521277,323.950087 157.185441,324.473126 155.004269,316.696262 C154.218284,314.157424 153.900329,313.130435 152.324544,308.01967" id="Fill-121"></path>
                            <path d="M168.919766,324.104199 C173.91802,325.936744 177.494379,332.720979 178.131561,335.831216 C178.874304,335.849032 179.975701,335.651779 180.760414,335.577968 C178.558893,332.966591 175.259791,325.936744 168.919766,324.104199" id="Fill-123"></path>
                        </g>
                    </g>
                </g>
            </g>
        </g>
    </g>
</svg>